SplineFontDB: 3.0
FontName: OPENDIN
FullName: OPENDIN
FamilyName: OPENDIN
Weight: Normal
Copyright: Copyleft (c) 2013 by thibault dietlin
Version: 001.001
ItalicAngle: 0
UnderlinePosition: -114
UnderlineWidth: 51
Ascent: 800
Descent: 200
sfntRevision: 0x00010000
LayerCount: 2
Layer: 0 0 "Arri+AOgA-re"  1
Layer: 1 0 "Avant"  0
XUID: [1021 220 254333241 11806250]
FSType: 0
OS2Version: 2
OS2_WeightWidthSlopeOnly: 0
OS2_UseTypoMetrics: 1
CreationTime: 1363975212
ModificationTime: 1364032346
PfmFamily: 17
TTFWeight: 400
TTFWidth: 5
LineGap: 0
VLineGap: 0
Panose: 2 0 5 6 5 0 0 2 0 4
OS2TypoAscent: 185
OS2TypoAOffset: 1
OS2TypoDescent: -26
OS2TypoDOffset: 1
OS2TypoLinegap: 0
OS2WinAscent: 1
OS2WinAOffset: 1
OS2WinDescent: -2
OS2WinDOffset: 1
HheadAscent: -59
HheadAOffset: 1
HheadDescent: -15
HheadDOffset: 1
OS2SubXSize: 650
OS2SubYSize: 700
OS2SubXOff: 0
OS2SubYOff: 140
OS2SupXSize: 650
OS2SupYSize: 700
OS2SupXOff: 0
OS2SupYOff: 480
OS2StrikeYSize: 50
OS2StrikeYPos: 250
OS2Vendor: 'FONT'
OS2CodePages: 00000001.00000000
OS2UnicodeRanges: 00000003.00000000.00000000.00000000
Lookup: 1 0 0 "'aalt' Activer toutes les variantes dans Latin lookup 0"  {"sous-table 'aalt' Activer toutes les variantes dans Latin lookup 0"  } ['aalt' ('latn' <'dflt' > ) ]
Lookup: 1 0 0 "'sups' Exposant dans Latin lookup 1"  {"sous-table 'sups' Exposant dans Latin lookup 1" ("superior" ) } ['sups' ('latn' <'dflt' > ) ]
DEI: 91125
LangName: 1033 "" "" "Regular" "FONT: OPENDIN: 2013" "" "Version fontforge" "" "OPENDIN is a creation of thibault dietlin." "thibault dietlin" "Thibault Dietlin" "Copyleft (c) 2013 by thibault dietlin" "thibault-dietlin.com" "thibault-dietlin.com" "SIL open font licence" "thibault-dietlin.com" 
LangName: 1036 "copyleft" "open din" "" "" "" "" "" "" "" "thibault dietlin" 
Encoding: UnicodeBmp
Compacted: 1
UnicodeInterp: none
NameList: Adobe Glyph List
DisplaySize: -96
AntiAlias: 1
FitToEm: 1
WinInfo: 275 11 4
BeginPrivate: 9
BlueValues 21 [0 0 477 501 676 687]

StartChar: .notdef
Encoding: 65536 -1 0
Width: 475
Flags: MW
HStem: 39 56<138 363 138 419> 680 55<138 363 138 138>
VStem: 82 56<95 95 95 680> 363 56<95 680 680 680>
LayerCount: 2
Fore
SplineSet
138 95 m 1
 363 95 l 1
 363 680 l 1
 138 680 l 1
 138 95 l 1
82 39 m 1
 82 735 l 1
 419 735 l 1
 419 39 l 1
 82 39 l 1
EndSplineSet
EndChar

StartChar: exclam
Encoding: 33 33 2
Width: 301
Flags: MW
HStem: 36 75<134 212 134 212> 656 20G<136 211 211 211>
VStem: 134 78<36 111 36 111> 145 56<216 216>
LayerCount: 2
Fore
SplineSet
212 36 m 1xe0
 134 36 l 1
 134 111 l 1
 212 111 l 1
 212 36 l 1xe0
211 676 m 1
 201 216 l 1
 145 216 l 1xd0
 136 676 l 1
 211 676 l 1
EndSplineSet
Substitution2: "sous-table 'sups' Exposant dans Latin lookup 1" exclam.superior
Substitution2: "sous-table 'aalt' Activer toutes les variantes dans Latin lookup 0" exclam.superior
EndChar

StartChar: quotedbl
Encoding: 34 34 3
Width: 401
Flags: MW
HStem: 550 154<100 171 100 171 100 252 252 323>
VStem: 100 71<550 704> 252 71<550 704>
LayerCount: 2
Fore
SplineSet
171 550 m 1
 100 550 l 1
 100 704 l 1
 171 704 l 1
 171 550 l 1
323 550 m 1
 252 550 l 1
 252 704 l 1
 323 704 l 1
 323 550 l 1
EndSplineSet
Substitution2: "sous-table 'sups' Exposant dans Latin lookup 1" quotedbl.superior
Substitution2: "sous-table 'aalt' Activer toutes les variantes dans Latin lookup 0" quotedbl.superior
EndChar

StartChar: numbersign
Encoding: 35 35 4
Width: 621
Flags: MW
HStem: 36 21G<208 274 208 208 417 484 417 417> 240 58<114 204 114 204 270 412 270 270 480 559 480 480> 424 60<110 200 109 202 110 110 268 409 268 268 477 477 477 553> 657 20G<196 264 264 264 406 471 471 471>
VStem: 204 66<240 240 240 298> 406 65<677 677> 411 66<424 424> 417 67<36 36>
LayerCount: 2
Fore
SplineSet
411 424 m 1xfa
 268 424 l 1
 269 298 l 1
 412 298 l 1
 411 424 l 1xfa
554 424 m 1
 477 424 l 1xfa
 479 298 l 1
 559 298 l 1
 559 240 l 1
 480 240 l 1
 484 36 l 1
 417 36 l 1xf9
 414 240 l 1
 270 240 l 1
 274 36 l 1
 208 36 l 1
 204 240 l 1
 114 240 l 1
 114 298 l 1
 204 298 l 1
 202 424 l 1
 110 424 l 1
 109 484 l 1
 200 484 l 1
 196 677 l 1
 264 677 l 1
 266 484 l 1
 409 484 l 1
 406 677 l 1
 471 677 l 1xfc
 475 484 l 1
 553 484 l 1
 554 424 l 1
EndSplineSet
Substitution2: "sous-table 'sups' Exposant dans Latin lookup 1" numbersign.superior
Substitution2: "sous-table 'aalt' Activer toutes les variantes dans Latin lookup 0" numbersign.superior
EndChar

StartChar: dollar
Encoding: 36 36 5
Width: 565
Flags: MW
HStem: 31 60 620 60
VStem: 84 68<484.5 517.5 484.5 522.5> 268 48<91 323 91 328 91 328> 447 68
LayerCount: 2
Fore
SplineSet
412 127 m 1
 412 126 l 1
 435 147 447 175 447 209 c 0
 447 263 421 298 368 314 c 1
 361 315 344 318 316 323 c 1
 316 91 l 1
 357 94 389 106 412 127 c 1
268 393 m 1
 267 618 l 1
 230 615 202 603 182 582 c 0
 162 561 152 534 152 501 c 0
 152 468 162 443 182 426 c 0
 202 409 231 398 268 393 c 1
459 336 m 1
 461 334 l 1
 498 303 516 261 516 209 c 0
 516 157 498 115 463 83 c 0
 428 51 380 33 320 29 c 1
 321 -41 l 1
 267 -41 l 1
 266 27 l 1
 187 31 121 59 68 112 c 1
 115 159 l 1
 158 115 209 92 268 89 c 1
 268 328 l 1
 250 330 l 2
 205 334 166 350 133 378 c 0
 100 406 84 446 84 497 c 0
 84 548 100 590 132 623 c 0
 164 656 208 674 264 678 c 1
 264 738 l 1
 318 738 l 1
 318 678 l 1
 381 675 437 652 485 609 c 1
 441 564 l 1
 404 597 362 615 315 618 c 1
 315 385 l 1
 343 381 l 1
 395 372 434 357 459 336 c 1
EndSplineSet
Substitution2: "sous-table 'sups' Exposant dans Latin lookup 1" dollar.superior
Substitution2: "sous-table 'aalt' Activer toutes les variantes dans Latin lookup 0" dollar.superior
EndChar

StartChar: percent
Encoding: 37 37 6
Width: 791
Flags: MW
HStem: 21 45 36 21G 322 45 346 45 647 45 656 20G
VStem: 100 52 292 51<468 568 568 570> 491 51 682 52
LayerCount: 2
Fore
SplineSet
292 468 m 2x1bc0
 292 568 l 2
 292 619 269 645 222 646 c 0
 175 646 152 620 152 567 c 2
 152 467 l 2
 152 415 175 389 222 390 c 0
 269 391 292 417 292 468 c 2x1bc0
343 467 m 1
 342 468 l 1
 342 433 331 404 309 381 c 0
 287 358 259 347 224 347 c 0
 189 347 159 357 135 377 c 0
 111 397 99 427 99 467 c 2
 99 570 l 2
 99 607 111 637 134 659 c 0
 157 681 187 692 224 692 c 0
 261 692 289 681 309 658 c 1
 332 634 343 605 343 570 c 2
 343 467 l 1
593 677 m 1x47c0
 293 37 l 1
 239 37 l 1
 539 677 l 1
 593 677 l 1x47c0
681 145 m 2
 681 245 l 2
 681 296 658 322 611 323 c 0
 564 323 541 297 541 245 c 2
 541 145 l 2
 541 93 564 67 611 67 c 0xa3c0
 658 68 681 94 681 145 c 2
733 143 m 1
 730 144 l 1
 730 109 719 80 697 57 c 0
 675 34 647 23 612 23 c 0
 577 23 548 33 524 53 c 0
 500 73 488 103 488 143 c 2
 488 246 l 2
 488 283 499 313 522 335 c 0
 545 357 575 368 612 368 c 0
 649 368 678 356 700 333 c 0
 722 310 733 281 733 246 c 2
 733 143 l 1
EndSplineSet
Substitution2: "sous-table 'sups' Exposant dans Latin lookup 1" percent.superior
Substitution2: "sous-table 'aalt' Activer toutes les variantes dans Latin lookup 0" percent.superior
EndChar

StartChar: ampersand
Encoding: 38 38 7
Width: 704
Flags: MW
HStem: 30 60 623 59
VStem: 108 65 166 68<535 557 535 565> 383 64 538 65
LayerCount: 2
Fore
SplineSet
460 153 m 1xec
 273 364 l 1
 240 335 218 315 208 304 c 0
 185 279 173 249 173 214 c 0
 173 179 186 150 211 126 c 0
 236 102 268 90 307 90 c 0
 362 90 413 111 460 153 c 1xec
325 466 m 1
 326 465 l 1
 365 491 384 516 384 540 c 0
 384 564 377 584 363 599 c 0
 349 614 331 621 309 621 c 0
 287 621 269 614 255 600 c 0
 241 586 234 568 234 546 c 0xdc
 234 524 253 489 291 442 c 1
 298 447 309 455 325 466 c 1
642 34 m 1
 555 35 l 1
 497 105 l 1
 443 54 383 29 316 29 c 0
 249 29 197 46 161 80 c 0
 125 114 107 157 108 209 c 0xec
 109 261 127 304 162 337 c 0
 187 360 211 383 235 406 c 1
 213 433 197 454 188 468 c 1
 173 495 166 521 166 546 c 0
 166 584 179 616 206 642 c 0
 233 668 267 681 308 681 c 0
 349 681 383 668 409 642 c 0
 435 616 448 583 448 542 c 0
 448 501 424 464 377 431 c 0
 366 424 350 413 329 398 c 1
 503 201 l 1
 526 236 538 274 539 314 c 1
 604 314 l 1
 601 254 581 200 544 152 c 1
 642 34 l 1
EndSplineSet
Substitution2: "sous-table 'sups' Exposant dans Latin lookup 1" ampersand.superior
Substitution2: "sous-table 'aalt' Activer toutes les variantes dans Latin lookup 0" ampersand.superior
EndChar

StartChar: quoteright
Encoding: 8217 8217 8
Width: 249
Flags: MW
HStem: 557 147<92 171>
VStem: 92 79<628 628 628 704 628 704>
LayerCount: 2
Fore
SplineSet
171 628 m 1
 92 557 l 1
 92 704 l 1
 171 704 l 1
 171 628 l 1
EndSplineSet
Substitution2: "sous-table 'sups' Exposant dans Latin lookup 1" quoteright.superior
Substitution2: "sous-table 'aalt' Activer toutes les variantes dans Latin lookup 0" quoteright.superior
EndChar

StartChar: parenleft
Encoding: 40 40 9
Width: 284
Flags: MW
VStem: 99 65
LayerCount: 2
Fore
SplineSet
227 -5 m 1
 184 -51 l 1
 152 -19 130 8 118 30 c 0
 106 52 100 82 100 120 c 2
 100 590 l 2
 100 629 106 659 117 680 c 0
 128 701 150 728 183 761 c 1
 227 717 l 1
 199 689 l 2
 190 679 182 667 175 652 c 0
 168 637 164 615 164 586 c 2
 164 126 l 2
 164 97 168 74 176 58 c 0
 184 42 201 21 227 -5 c 1
EndSplineSet
Substitution2: "sous-table 'sups' Exposant dans Latin lookup 1" parenleft.superior
Substitution2: "sous-table 'aalt' Activer toutes les variantes dans Latin lookup 0" parenleft.superior
EndChar

StartChar: parenright
Encoding: 41 41 10
Width: 281
Flags: MW
VStem: 131 67
LayerCount: 2
Fore
SplineSet
198 121 m 1
 195 120 l 1
 195 81 190 51 179 30 c 0
 168 9 146 -18 113 -51 c 1
 67 -5 l 1
 95 23 l 2
 104 33 112 45 119 59 c 0
 126 73 129 95 129 125 c 2
 129 585 l 2
 129 615 126 637 119 652 c 0
 112 667 95 688 68 715 c 1
 114 761 l 1
 146 729 168 702 180 681 c 0
 192 660 198 630 198 591 c 2
 198 121 l 1
EndSplineSet
Substitution2: "sous-table 'sups' Exposant dans Latin lookup 1" parenright.superior
Substitution2: "sous-table 'aalt' Activer toutes les variantes dans Latin lookup 0" parenright.superior
EndChar

StartChar: asterisk
Encoding: 42 42 11
Width: 450
Flags: MW
HStem: 375 324<211 263 211 266 211 263>
VStem: 212 50<498 498>
LayerCount: 2
Fore
SplineSet
390 478 m 1
 365 434 l 1
 262 498 l 1
 266 375 l 1
 211 375 l 1
 212 498 l 1
 110 434 l 1
 84 478 l 1
 192 537 l 1
 84 596 l 1
 110 640 l 1
 212 576 l 1
 211 699 l 1
 263 699 l 1
 262 576 l 1
 365 640 l 1
 390 596 l 1
 282 537 l 1
 390 478 l 1
EndSplineSet
Substitution2: "sous-table 'sups' Exposant dans Latin lookup 1" asterisk.superior
Substitution2: "sous-table 'aalt' Activer toutes les variantes dans Latin lookup 0" asterisk.superior
EndChar

StartChar: plus
Encoding: 43 43 12
Width: 495
Flags: MW
HStem: 237 61<73 231 73 231 292 449>
VStem: 231 61<79 237 79 237 298 454>
LayerCount: 2
Fore
SplineSet
449 237 m 1
 292 237 l 1
 292 79 l 1
 231 79 l 1
 231 237 l 1
 73 237 l 1
 73 298 l 1
 231 298 l 1
 231 454 l 1
 292 454 l 1
 292 298 l 1
 449 298 l 1
 449 237 l 1
EndSplineSet
Substitution2: "sous-table 'sups' Exposant dans Latin lookup 1" plus.superior
Substitution2: "sous-table 'aalt' Activer toutes les variantes dans Latin lookup 0" plus.superior
EndChar

StartChar: comma
Encoding: 44 44 13
Width: 250
Flags: MW
HStem: -132 208<92 172>
VStem: 92 80<-61 -61 -61 76>
LayerCount: 2
Fore
SplineSet
172 -61 m 1
 92 -132 l 1
 92 76 l 1
 172 76 l 1
 172 -61 l 1
EndSplineSet
Substitution2: "sous-table 'sups' Exposant dans Latin lookup 1" comma.superior
Substitution2: "sous-table 'aalt' Activer toutes les variantes dans Latin lookup 0" comma.superior
EndChar

StartChar: hyphen
Encoding: 45 45 14
AltUni2: 002010.ffffffff.0
Width: 404
Flags: MW
HStem: 239 61<157 391 157 392>
VStem: 157 234<239 300 239 300>
LayerCount: 2
Fore
SplineSet
391 239 m 1
 157 239 l 1
 157 300 l 1
 392 300 l 1
 391 239 l 1
EndSplineSet
Substitution2: "sous-table 'sups' Exposant dans Latin lookup 1" hyphen.superior
Substitution2: "sous-table 'aalt' Activer toutes les variantes dans Latin lookup 0" hyphen.superior
EndChar

StartChar: period
Encoding: 46 46 15
Width: 256
Flags: MW
HStem: 5 84<93 177 93 177>
VStem: 93 84<5 89>
LayerCount: 2
Fore
SplineSet
177 5 m 1
 93 5 l 1
 93 89 l 1
 177 89 l 1
 177 5 l 1
EndSplineSet
Substitution2: "sous-table 'sups' Exposant dans Latin lookup 1" period.superior
Substitution2: "sous-table 'aalt' Activer toutes les variantes dans Latin lookup 0" period.superior
EndChar

StartChar: slash
Encoding: 47 47 16
Width: 337
Flags: MW
VStem: 18 320
LayerCount: 2
Fore
SplineSet
338 743 m 1
 82 -31 l 1
 18 -31 l 1
 274 743 l 1
 338 743 l 1
EndSplineSet
Substitution2: "sous-table 'sups' Exposant dans Latin lookup 1" slash.superior
Substitution2: "sous-table 'aalt' Activer toutes les variantes dans Latin lookup 0" slash.superior
EndChar

StartChar: zero
Encoding: 48 48 17
Width: 495
Flags: MW
HStem: 30 58 624 58
VStem: 86 64 372 64<210 502 502 505>
LayerCount: 2
Fore
SplineSet
372 210 m 2
 372 502 l 2
 372 538 362 567 342 590 c 0
 322 613 295 624 260 624 c 0
 225 624 198 613 178 590 c 0
 158 567 148 538 148 502 c 2
 148 210 l 2
 148 174 158 145 178 122 c 0
 198 99 225 88 260 88 c 0
 295 88 322 99 342 122 c 0
 362 145 372 174 372 210 c 2
436 207 m 1
 434 207 l 1
 434 154 418 111 385 78 c 0
 352 45 310 29 259 29 c 0
 208 29 166 45 133 78 c 0
 100 111 84 154 84 207 c 2
 84 505 l 2
 84 558 101 601 134 634 c 0
 167 667 209 683 260 683 c 0
 311 683 353 667 386 634 c 0
 419 601 436 558 436 505 c 2
 436 207 l 1
EndSplineSet
Substitution2: "sous-table 'sups' Exposant dans Latin lookup 1" zero.superior
Substitution2: "sous-table 'aalt' Activer toutes les variantes dans Latin lookup 0" zero.superior
EndChar

StartChar: one
Encoding: 49 49 18
Width: 492
Flags: MW
HStem: 36 21G<255 320 255 255> 477 21G<105 105> 656 20G<255 320 320 320>
VStem: 255 65<36 604 604 604>
LayerCount: 2
Fore
SplineSet
320 36 m 1
 255 36 l 1
 255 604 l 1
 105 477 l 1
 105 551 l 1
 255 676 l 1
 320 676 l 1
 320 36 l 1
EndSplineSet
Substitution2: "sous-table 'sups' Exposant dans Latin lookup 1" one.superior
Substitution2: "sous-table 'aalt' Activer toutes les variantes dans Latin lookup 0" one.superior
EndChar

StartChar: two
Encoding: 50 50 19
Width: 496
Flags: MW
HStem: 36 58<166 441> 624 58
VStem: 89 64<508 527.5 508 533.5> 377 64<493 527>
LayerCount: 2
Fore
SplineSet
441 36 m 1
 88 34 l 1
 88 92 l 1
 341 413 l 2
 365 444 377 476 377 510 c 0
 377 544 367 571 347 592 c 0
 327 613 300 623 266 623 c 0
 232 623 205 614 184 595 c 0
 163 576 153 547 153 508 c 1
 89 508 l 1
 89 559 105 601 137 633 c 0
 169 665 212 681 265 681 c 0
 318 681 361 665 393 634 c 0
 425 603 441 564 441 516 c 0
 441 468 424 423 390 380 c 2
 166 94 l 1
 441 94 l 1
 441 36 l 1
EndSplineSet
Substitution2: "sous-table 'sups' Exposant dans Latin lookup 1" two.superior
Substitution2: "sous-table 'aalt' Activer toutes les variantes dans Latin lookup 0" two.superior
EndChar

StartChar: three
Encoding: 51 51 20
Width: 494
Flags: MW
HStem: 29 58 318 57<235 248 235 248> 625 58
VStem: 63 65 71 65 363 64<470 526.5> 374 65<210 244.5 210 246.5>
LayerCount: 2
Fore
SplineSet
439 210 m 1xe2
 440 211 l 1
 440 154 422 110 387 78 c 0
 352 46 307 30 253 30 c 0
 199 30 155 44 122 72 c 1
 85 101 66 143 64 198 c 1
 129 198 l 1
 131 161 144 133 167 115 c 0
 190 97 219 88 253 88 c 0
 287 88 316 99 339 121 c 0
 362 143 374 173 374 211 c 0xf2
 374 282 332 318 248 318 c 2
 235 318 l 1
 235 375 l 1
 248 375 l 2
 325 375 363 419 363 508 c 0
 363 545 353 574 332 594 c 0
 311 614 284 624 251 624 c 0
 218 624 191 615 171 596 c 0
 151 577 140 551 137 518 c 1
 72 518 l 1
 75 569 93 609 126 639 c 0
 159 669 201 684 252 684 c 0
 303 684 345 668 378 636 c 0
 411 604 427 562 427 510 c 0xec
 427 430 398 377 341 351 c 1
 406 326 439 279 439 210 c 1xe2
EndSplineSet
Substitution2: "sous-table 'sups' Exposant dans Latin lookup 1" three.superior
Substitution2: "sous-table 'aalt' Activer toutes les variantes dans Latin lookup 0" three.superior
EndChar

StartChar: four
Encoding: 52 52 21
Width: 495
Flags: MW
HStem: 36 21G<318 382 318 318> 173 59<131 318 62 62 382 460> 656 20G<293 363 363 363>
VStem: 318 64<36 173 36 173 232 470>
LayerCount: 2
Fore
SplineSet
460 173 m 1
 382 173 l 1
 382 36 l 1
 318 36 l 1
 318 173 l 1
 62 173 l 1
 62 232 l 1
 293 676 l 1
 363 676 l 1
 131 232 l 1
 318 232 l 1
 318 470 l 1
 382 470 l 1
 382 232 l 1
 460 232 l 1
 460 173 l 1
EndSplineSet
Substitution2: "sous-table 'sups' Exposant dans Latin lookup 1" four.superior
Substitution2: "sous-table 'aalt' Activer toutes les variantes dans Latin lookup 0" four.superior
EndChar

StartChar: five
Encoding: 53 53 22
Width: 496
Flags: MW
HStem: 29 58<234 279.5 231 288> 618 58<162 428 162 162>
VStem: 90 64<186 186> 105 58 378 64
LayerCount: 2
Fore
SplineSet
279 459 m 1xd8
 278 458 l 1
 387 458 441 387 441 246 c 0
 441 167 425 111 392 78 c 0
 359 45 315 29 261 29 c 0
 207 29 165 44 135 75 c 1
 108 101 93 138 90 186 c 1
 154 186 l 1xe8
 163 120 199 87 263 87 c 0
 296 87 322 97 341 116 c 0
 365 139 377 183 377 247 c 0
 377 341 341 393 269 402 c 0
 229 407 193 399 162 377 c 1
 104 377 l 1
 104 676 l 1
 428 676 l 1
 428 618 l 1
 162 618 l 1
 162 415 l 1
 189 444 228 459 279 459 c 1xd8
EndSplineSet
Substitution2: "sous-table 'sups' Exposant dans Latin lookup 1" five.superior
Substitution2: "sous-table 'aalt' Activer toutes les variantes dans Latin lookup 0" five.superior
EndChar

StartChar: six
Encoding: 54 54 23
Width: 496
Flags: MW
HStem: 30 58 347 55 656 20G
VStem: 85 65 375 65
LayerCount: 2
Fore
SplineSet
344 123 m 0
 365 147 375 178 375 216 c 0
 375 254 366 285 347 309 c 0
 326 334 298 347 263 347 c 0
 228 347 201 335 181 311 c 0
 161 287 151 256 151 217 c 0
 151 178 161 147 181 123 c 0
 201 99 228 87 262 87 c 0
 296 87 323 99 344 123 c 0
394 350 m 1
 393 349 l 1
 424 315 439 271 439 217 c 0
 439 163 423 118 391 82 c 0
 359 46 316 28 262 28 c 0
 208 28 165 45 133 79 c 0
 101 113 85 158 85 213 c 0
 85 254 98 302 125 357 c 2
 283 675 l 1
 349 675 l 1
 206 387 l 1
 226 396 249 401 274 401 c 0
 323 401 363 384 394 350 c 1
EndSplineSet
Substitution2: "sous-table 'sups' Exposant dans Latin lookup 1" six.superior
Substitution2: "sous-table 'aalt' Activer toutes les variantes dans Latin lookup 0" six.superior
EndChar

StartChar: seven
Encoding: 55 55 24
Width: 497
Flags: MW
HStem: 36 21G<161 229 161 161> 619 57<96 383 96 451 96 451>
LayerCount: 2
Fore
SplineSet
96 676 m 1
 451 676 l 1
 451 619 l 1
 229 36 l 1
 161 36 l 1
 383 619 l 1
 96 619 l 1
 96 676 l 1
EndSplineSet
Substitution2: "sous-table 'sups' Exposant dans Latin lookup 1" seven.superior
Substitution2: "sous-table 'aalt' Activer toutes les variantes dans Latin lookup 0" seven.superior
EndChar

StartChar: eight
Encoding: 56 56 25
Width: 495
Flags: MW
HStem: 30 58 347 57 624 58
VStem: 72 65 85 64 373 64 385 65
LayerCount: 2
Fore
SplineSet
349 124 m 1xf2
 347 124 l 1
 371 148 383 179 383 217 c 0
 383 255 371 286 347 310 c 0
 323 334 294 346 259 346 c 0
 224 346 195 334 171 310 c 0
 147 286 135 255 135 217 c 0
 135 179 147 148 171 124 c 0
 195 100 225 88 260 88 c 0
 295 88 325 100 349 124 c 1xf2
339 436 m 1
 337 436 l 1
 358 457 369 483 369 513 c 0
 369 543 359 569 338 591 c 0
 317 613 290 624 257 624 c 0
 224 624 197 613 176 591 c 0
 155 569 145 543 145 513 c 0xec
 145 483 156 457 177 436 c 0
 198 415 225 404 258 404 c 0
 291 404 318 415 339 436 c 1
445 212 m 2xe2
 445 211 l 2
 445 158 427 114 391 80 c 0
 355 46 310 29 256 29 c 0
 202 29 157 46 121 80 c 0
 85 114 67 158 67 211 c 0xf2
 67 284 99 339 163 376 c 1
 108 407 80 450 80 504 c 0
 80 558 97 601 130 633 c 0
 163 665 205 681 256 681 c 0
 307 681 349 665 382 633 c 0
 415 601 432 558 432 504 c 0xec
 432 450 405 408 350 377 c 1
 413 341 445 286 445 212 c 2xe2
EndSplineSet
Substitution2: "sous-table 'sups' Exposant dans Latin lookup 1" eight.superior
Substitution2: "sous-table 'aalt' Activer toutes les variantes dans Latin lookup 0" eight.superior
EndChar

StartChar: nine
Encoding: 57 57 26
Width: 495
Flags: MW
HStem: 36 21G 310 55 624 58
VStem: 82 65 372 65
LayerCount: 2
Fore
SplineSet
341 400 m 1
 338 400 l 1
 359 424 369 455 369 494 c 0
 369 533 359 564 338 588 c 0
 317 612 290 624 256 624 c 0
 222 624 195 612 175 588 c 0
 155 564 145 533 145 495 c 0
 145 457 155 426 175 401 c 0
 195 376 222 364 257 364 c 0
 292 364 320 376 341 400 c 1
434 497 m 1
 436 497 l 1
 436 456 423 408 396 353 c 2
 238 35 l 1
 171 35 l 1
 315 323 l 1
 295 314 272 309 246 309 c 0
 197 309 157 326 126 360 c 0
 95 394 80 438 80 492 c 0
 80 546 96 591 128 627 c 0
 160 663 203 681 257 681 c 0
 311 681 354 664 386 630 c 0
 418 596 434 552 434 497 c 1
EndSplineSet
Substitution2: "sous-table 'sups' Exposant dans Latin lookup 1" nine.superior
Substitution2: "sous-table 'aalt' Activer toutes les variantes dans Latin lookup 0" nine.superior
EndChar

StartChar: colon
Encoding: 58 58 27
Width: 283
Flags: MW
HStem: 20 84<120 204 120 204> 291 84<120 204 120 204>
VStem: 120 84<20 104 291 375>
LayerCount: 2
Fore
SplineSet
204 20 m 1
 120 20 l 1
 120 104 l 1
 204 104 l 1
 204 20 l 1
204 291 m 1
 120 291 l 1
 120 375 l 1
 204 375 l 1
 204 291 l 1
EndSplineSet
Substitution2: "sous-table 'sups' Exposant dans Latin lookup 1" colon.superior
Substitution2: "sous-table 'aalt' Activer toutes les variantes dans Latin lookup 0" colon.superior
EndChar

StartChar: semicolon
Encoding: 59 59 28
Width: 283
Flags: MW
HStem: 283 85<120 204 120 204>
VStem: 122 79<-46 -46 -46 92>
LayerCount: 2
Fore
SplineSet
201 -46 m 1
 122 -117 l 1
 122 92 l 1
 201 92 l 1
 201 -46 l 1
204 283 m 1
 120 283 l 1
 120 368 l 1
 204 368 l 1
 204 283 l 1
EndSplineSet
Substitution2: "sous-table 'sups' Exposant dans Latin lookup 1" semicolon.superior
Substitution2: "sous-table 'aalt' Activer toutes les variantes dans Latin lookup 0" semicolon.superior
EndChar

StartChar: less
Encoding: 60 60 29
Width: 975
Flags: MW
HStem: 238 62<359 926 359 359>
LayerCount: 2
Fore
SplineSet
926 238 m 1
 359 238 l 1
 501 -90 l 1
 460 -90 l 1
 101 269 l 1
 460 628 l 1
 510 628 l 1
 358 300 l 1
 926 300 l 1
 926 238 l 1
EndSplineSet
Substitution2: "sous-table 'sups' Exposant dans Latin lookup 1" less.superior
Substitution2: "sous-table 'aalt' Activer toutes les variantes dans Latin lookup 0" less.superior
EndChar

StartChar: equal
Encoding: 61 61 30
Width: 495
Flags: MW
HStem: 163 59<73 449 73 449> 315 60<73 449 73 449>
LayerCount: 2
Fore
SplineSet
449 163 m 1
 73 163 l 1
 73 222 l 1
 449 222 l 1
 449 163 l 1
449 315 m 1
 73 315 l 1
 73 375 l 1
 449 375 l 1
 449 315 l 1
EndSplineSet
Substitution2: "sous-table 'sups' Exposant dans Latin lookup 1" equal.superior
Substitution2: "sous-table 'aalt' Activer toutes les variantes dans Latin lookup 0" equal.superior
EndChar

StartChar: greater
Encoding: 62 62 31
Width: 975
Flags: MW
HStem: -90 21G<526 567 526 526> 238 62<101 668 101 669> 608 20G<517 567 567 567>
LayerCount: 2
Fore
SplineSet
668 238 m 1
 101 238 l 1
 101 300 l 1
 669 300 l 1
 517 628 l 1
 567 628 l 1
 926 269 l 1
 567 -90 l 1
 526 -90 l 1
 668 238 l 1
EndSplineSet
Substitution2: "sous-table 'sups' Exposant dans Latin lookup 1" greater.superior
Substitution2: "sous-table 'aalt' Activer toutes les variantes dans Latin lookup 0" greater.superior
EndChar

StartChar: question
Encoding: 63 63 32
Width: 473
Flags: MW
HStem: 36 76<231 308 231 308> 624 58
VStem: 95 65 231 77<36 112 36 112> 367 65
LayerCount: 2
Fore
SplineSet
308 36 m 1
 231 36 l 1
 231 112 l 1
 308 112 l 1
 308 36 l 1
432 518 m 1
 433 514 l 1
 433 481 420 445 393 406 c 2
 319 300 l 2
 308 285 303 268 303 249 c 2
 303 214 l 1
 238 214 l 1
 238 250 l 2
 238 279 247 307 266 334 c 2
 339 440 l 2
 358 469 368 497 368 523 c 0
 368 549 358 572 339 592 c 0
 320 612 295 622 264 622 c 0
 233 622 208 612 189 591 c 0
 170 570 161 545 161 515 c 1
 96 515 l 1
 96 562 112 601 144 633 c 0
 176 665 216 681 264 681 c 0
 312 681 352 666 384 635 c 0
 416 604 432 565 432 518 c 1
EndSplineSet
Substitution2: "sous-table 'sups' Exposant dans Latin lookup 1" question.superior
Substitution2: "sous-table 'aalt' Activer toutes les variantes dans Latin lookup 0" question.superior
EndChar

StartChar: at
Encoding: 64 64 33
Width: 677
Flags: MW
HStem: 27 21G<403.5 459.5> 29 56 414 57 621 55
VStem: 100 63 268 64 550 63
LayerCount: 2
Fore
SplineSet
551 363 m 1x7e
 551 362 l 1
 534 396 497 413 441 413 c 0
 398 413 368 396 351 362 c 0
 338 337 332 299 332 249 c 0
 332 199 338 161 351 136 c 0
 368 102 398 85 441 85 c 0
 497 85 534 102 551 136 c 1
 551 363 l 1x7e
613 33 m 1
 554 33 l 1
 554 83 l 1
 525 46 485 27 434 27 c 0x7e
 373 27 328 51 299 100 c 0
 281 131 272 183 272 255 c 0
 272 327 284 380 309 413 c 0
 336 450 377 469 432 470 c 0
 487 471 527 456 552 425 c 1
 552 482 l 2
 552 522 541 555 519 581 c 0
 497 607 463 620 416 620 c 2
 299 620 l 2
 257 620 224 608 200 584 c 0
 176 560 164 526 164 481 c 2
 164 178 l 2
 164 150 168 129 175 114 c 0
 182 99 196 84 217 69 c 1
 173 25 l 1xbe
 145 46 126 67 116 88 c 0
 106 109 101 139 101 178 c 2
 101 481 l 2
 101 543 118 591 151 625 c 0
 184 659 230 676 289 676 c 2
 423 676 l 2
 482 676 528 659 562 625 c 0
 596 591 613 543 613 481 c 2
 613 33 l 1
EndSplineSet
Substitution2: "sous-table 'sups' Exposant dans Latin lookup 1" at.superior
Substitution2: "sous-table 'aalt' Activer toutes les variantes dans Latin lookup 0" at.superior
EndChar

StartChar: A
Encoding: 65 65 34
Width: 580
Flags: MW
HStem: 36 21G<41 118 41 41 492 570 492 492> 244 59<204 406 204 423 187 406> 656 20G<277 335 335 335>
LayerCount: 2
Fore
SplineSet
406 303 m 1
 307 578 l 1
 204 303 l 1
 406 303 l 1
570 36 m 1
 492 36 l 1
 423 244 l 1
 187 244 l 1
 118 36 l 1
 41 36 l 1
 277 676 l 1
 335 676 l 1
 570 36 l 1
EndSplineSet
Substitution2: "sous-table 'sups' Exposant dans Latin lookup 1" A.superior
Substitution2: "sous-table 'aalt' Activer toutes les variantes dans Latin lookup 0" A.superior
EndChar

StartChar: B
Encoding: 66 66 35
Width: 635
Flags: MW
HStem: 36 61 320 61 615 61
VStem: 127 69 489 69 499 69
LayerCount: 2
Fore
SplineSet
499 215 m 1xf4
 497 214 l 1
 497 250 486 277 463 294 c 0
 440 311 409 320 369 320 c 2
 195 320 l 1
 195 97 l 1
 369 97 l 2
 409 97 441 108 464 129 c 0
 487 150 499 179 499 215 c 1xf4
452 414 m 1
 452 413 l 1
 475 436 487 466 487 502 c 0xf8
 487 538 476 566 453 585 c 0
 430 604 400 613 362 613 c 2
 195 613 l 1
 195 379 l 1
 362 379 l 2
 399 379 429 391 452 414 c 1
566 210 m 2xf4
 566 209 l 2
 566 152 549 108 514 78 c 0
 479 48 433 33 375 33 c 2
 125 33 l 1
 125 673 l 1
 367 673 l 2
 423 673 469 658 504 628 c 0
 539 598 557 556 557 503 c 0xf8
 557 470 548 440 530 412 c 0
 512 384 489 365 461 355 c 1
 531 329 566 281 566 210 c 2xf4
EndSplineSet
Substitution2: "sous-table 'sups' Exposant dans Latin lookup 1" B.superior
Substitution2: "sous-table 'aalt' Activer toutes les variantes dans Latin lookup 0" B.superior
EndChar

StartChar: C
Encoding: 67 67 36
Width: 605
Flags: MW
HStem: 30 61 621 61
VStem: 101 68<321 391 321 395.5>
LayerCount: 2
Fore
SplineSet
545 214 m 1
 547 212 l 1
 537 153 512 108 472 76 c 0
 432 44 382 28 321 28 c 0
 260 28 207 50 162 95 c 0
 133 124 116 155 110 188 c 0
 104 221 101 277 101 356 c 0
 101 435 104 491 110 524 c 0
 116 557 133 587 160 614 c 0
 205 659 258 681 319 681 c 0
 436 681 512 620 546 498 c 1
 476 498 l 1
 462 537 443 567 419 588 c 0
 395 609 362 620 320 620 c 0
 278 620 242 605 213 575 c 0
 194 555 182 531 177 503 c 0
 172 475 169 426 169 356 c 0
 169 286 172 237 177 209 c 0
 182 181 194 157 213 137 c 0
 242 107 278 92 320 92 c 0
 362 92 396 103 423 124 c 0
 450 145 468 175 477 214 c 1
 545 214 l 1
EndSplineSet
Substitution2: "sous-table 'sups' Exposant dans Latin lookup 1" C.superior
Substitution2: "sous-table 'aalt' Activer toutes les variantes dans Latin lookup 0" C.superior
EndChar

StartChar: D
Encoding: 68 68 37
Width: 640
Flags: MW
HStem: 36 61 615 61
VStem: 128 68 504 68
LayerCount: 2
Fore
SplineSet
499 241 m 1
 498 243 l 1
 501 267 503 307 503 363 c 0
 503 419 501 458 498 479 c 0
 486 570 432 616 336 616 c 2
 196 616 l 1
 196 98 l 1
 336 98 l 2
 390 98 432 114 462 145 c 0
 481 164 493 196 499 241 c 1
565 500 m 0
 569 475 571 429 571 363 c 0
 571 297 569 250 565 223 c 0
 556 168 537 126 508 97 c 0
 469 58 415 38 346 38 c 2
 127 38 l 1
 127 678 l 1
 346 678 l 2
 415 678 469 658 508 619 c 0
 537 590 556 550 565 500 c 0
EndSplineSet
Substitution2: "sous-table 'sups' Exposant dans Latin lookup 1" D.superior
Substitution2: "sous-table 'aalt' Activer toutes les variantes dans Latin lookup 0" D.superior
EndChar

StartChar: E
Encoding: 69 69 38
Width: 572
Flags: MW
HStem: 36 61<194 523 194 523> 319 61<194 474 194 474> 615 61<194 523 194 194>
VStem: 125 69<97 319 380 615>
LayerCount: 2
Fore
SplineSet
523 36 m 1
 125 36 l 1
 125 676 l 1
 523 676 l 1
 523 615 l 1
 194 615 l 1
 194 380 l 1
 474 380 l 1
 474 319 l 1
 194 319 l 1
 194 97 l 1
 523 97 l 1
 523 36 l 1
EndSplineSet
Substitution2: "sous-table 'sups' Exposant dans Latin lookup 1" E.superior
Substitution2: "sous-table 'aalt' Activer toutes les variantes dans Latin lookup 0" E.superior
EndChar

StartChar: F
Encoding: 70 70 39
Width: 554
Flags: MW
HStem: 36 21G<125 194 125 125> 318 61<194 474 194 474> 615 61<194 523 194 194>
VStem: 125 69<36 318 379 615>
LayerCount: 2
Fore
SplineSet
523 615 m 1
 194 615 l 1
 194 379 l 1
 474 379 l 1
 474 318 l 1
 194 318 l 1
 194 36 l 1
 125 36 l 1
 125 676 l 1
 523 676 l 1
 523 615 l 1
EndSplineSet
Substitution2: "sous-table 'sups' Exposant dans Latin lookup 1" F.superior
Substitution2: "sous-table 'aalt' Activer toutes les variantes dans Latin lookup 0" F.superior
EndChar

StartChar: G
Encoding: 71 71 40
Width: 617
Flags: MW
HStem: 30 61 319 60<325 483 325 551> 490 21G 621 61
VStem: 101 68 483 68<270 270 270 319 319 319>
LayerCount: 2
Fore
SplineSet
551 270 m 1
 554 266 l 1
 554 195 536 140 499 101 c 0
 454 52 398 27 331 27 c 0
 264 27 208 49 163 94 c 0
 135 123 118 154 112 187 c 0
 106 220 103 276 103 355 c 0
 103 434 106 490 112 523 c 0
 118 556 135 586 162 613 c 0
 207 658 261 680 323 680 c 0
 385 680 436 662 476 627 c 0
 516 592 541 546 550 489 c 1
 482 489 l 1
 473 530 455 562 427 585 c 0
 399 608 364 620 322 620 c 0
 280 620 244 605 214 574 c 0
 195 554 183 530 177 502 c 0
 171 474 168 425 168 355 c 0
 168 285 171 236 177 208 c 0
 183 180 195 156 214 136 c 0
 243 106 282 91 330 91 c 0
 378 91 417 109 447 146 c 0
 471 175 483 214 483 262 c 2
 483 319 l 1
 325 319 l 1
 325 379 l 1
 551 379 l 1
 551 270 l 1
EndSplineSet
Substitution2: "sous-table 'sups' Exposant dans Latin lookup 1" G.superior
Substitution2: "sous-table 'aalt' Activer toutes les variantes dans Latin lookup 0" G.superior
EndChar

StartChar: H
Encoding: 72 72 41
Width: 661
Flags: MW
HStem: 36 21G<128 196 128 128 500 568 500 500> 320 61<196 500 196 500> 656 20G<128 196 196 196 500 568 568 568>
VStem: 128 68<36 320 36 381 381 676> 500 68<36 320 320 320 381 676>
LayerCount: 2
Fore
SplineSet
568 36 m 1
 500 36 l 1
 500 320 l 1
 196 320 l 1
 196 36 l 1
 128 36 l 1
 128 676 l 1
 196 676 l 1
 196 381 l 1
 500 381 l 1
 500 676 l 1
 568 676 l 1
 568 36 l 1
EndSplineSet
Substitution2: "sous-table 'sups' Exposant dans Latin lookup 1" H.superior
Substitution2: "sous-table 'aalt' Activer toutes les variantes dans Latin lookup 0" H.superior
EndChar

StartChar: I
Encoding: 73 73 42
Width: 267
Flags: MW
HStem: 36 21G<107 175 107 107> 656 20G<107 175 175 175>
VStem: 107 68<36 676>
LayerCount: 2
Fore
SplineSet
175 36 m 1
 107 36 l 1
 107 676 l 1
 175 676 l 1
 175 36 l 1
EndSplineSet
Substitution2: "sous-table 'sups' Exposant dans Latin lookup 1" I.superior
Substitution2: "sous-table 'aalt' Activer toutes les variantes dans Latin lookup 0" I.superior
EndChar

StartChar: J
Encoding: 74 74 43
Width: 472
Flags: MW
HStem: 30 60 655 20G
VStem: 320 69<239 676>
LayerCount: 2
Fore
SplineSet
389 230 m 1
 388 229 l 1
 388 168 370 119 333 83 c 0
 296 47 247 29 186 29 c 0
 125 29 77 46 42 81 c 1
 88 127 l 1
 111 102 144 90 187 90 c 0
 230 90 263 103 286 129 c 0
 309 155 320 192 320 239 c 2
 320 676 l 1
 389 676 l 1
 389 230 l 1
EndSplineSet
Substitution2: "sous-table 'sups' Exposant dans Latin lookup 1" J.superior
Substitution2: "sous-table 'aalt' Activer toutes les variantes dans Latin lookup 0" J.superior
EndChar

StartChar: K
Encoding: 75 75 44
Width: 621
Flags: MW
HStem: 36 21G<130 198 130 130 528 609 528 528> 656 20G<130 198 198 198 497 581 581 581>
VStem: 130 68<36 284 377 676>
LayerCount: 2
Fore
SplineSet
609 36 m 1
 528 36 l 1
 321 405 l 1
 198 284 l 1
 198 36 l 1
 130 36 l 1
 130 676 l 1
 198 676 l 1
 198 377 l 1
 497 676 l 1
 581 676 l 1
 373 444 l 1
 609 36 l 1
EndSplineSet
Substitution2: "sous-table 'sups' Exposant dans Latin lookup 1" K.superior
Substitution2: "sous-table 'aalt' Activer toutes les variantes dans Latin lookup 0" K.superior
EndChar

StartChar: L
Encoding: 76 76 45
Width: 548
Flags: MW
HStem: 36 61<193 521 193 521> 656 20G<125 193 193 193>
VStem: 125 68<97 676 97 676 97 676>
LayerCount: 2
Fore
SplineSet
521 36 m 1
 125 36 l 1
 125 676 l 1
 193 676 l 1
 193 97 l 1
 521 97 l 1
 521 36 l 1
EndSplineSet
Substitution2: "sous-table 'sups' Exposant dans Latin lookup 1" L.superior
Substitution2: "sous-table 'aalt' Activer toutes les variantes dans Latin lookup 0" L.superior
EndChar

StartChar: M
Encoding: 77 77 46
Width: 775
Flags: MW
HStem: 36 21G<134 202 134 134 614 682 614 614> 656 20G<134 202 202 202 614 682 682 682>
VStem: 134 68<36 522 36 676> 614 68<36 522 522 522>
LayerCount: 2
Fore
SplineSet
682 36 m 1
 614 36 l 1
 614 522 l 1
 439 171 l 1
 380 171 l 1
 202 522 l 1
 202 36 l 1
 134 36 l 1
 134 676 l 1
 202 676 l 1
 411 257 l 1
 614 676 l 1
 682 676 l 1
 682 36 l 1
EndSplineSet
Substitution2: "sous-table 'sups' Exposant dans Latin lookup 1" M.superior
Substitution2: "sous-table 'aalt' Activer toutes les variantes dans Latin lookup 0" M.superior
EndChar

StartChar: N
Encoding: 78 78 47
Width: 695
Flags: MW
HStem: 36 21G<129 198 129 129 538 603 538 538> 656 20G<129 194 194 194 534 603 603 603>
VStem: 129 69<36 550 36 676> 534 69<164 676>
LayerCount: 2
Fore
SplineSet
603 36 m 1
 538 36 l 1
 198 550 l 1
 198 36 l 1
 129 36 l 1
 129 676 l 1
 194 676 l 1
 534 164 l 1
 534 676 l 1
 603 676 l 1
 603 36 l 1
EndSplineSet
Substitution2: "sous-table 'sups' Exposant dans Latin lookup 1" N.superior
Substitution2: "sous-table 'aalt' Activer toutes les variantes dans Latin lookup 0" N.superior
EndChar

StartChar: O
Encoding: 79 79 48
Width: 617
Flags: MW
HStem: 23 61 625 61
VStem: 101 68 481 68
LayerCount: 2
Fore
SplineSet
436 130 m 1
 434 131 l 1
 453 152 465 177 471 207 c 0
 477 237 480 288 480 360 c 0
 480 432 477 482 471 510 c 0
 465 538 453 561 436 579 c 0
 406 610 369 625 324 625 c 0
 279 625 242 610 213 579 c 0
 195 559 182 533 175 500 c 0
 170 474 168 425 168 353 c 0
 168 281 170 234 175 212 c 0
 184 175 197 148 213 130 c 1
 243 99 280 84 325 84 c 0
 370 84 407 99 436 130 c 1
540 515 m 1
 538 515 l 1
 543 488 545 434 545 354 c 0
 545 274 543 222 538 199 c 0
 527 153 509 117 484 91 c 0
 439 46 384 24 319 24 c 0
 254 24 200 46 157 91 c 0
 130 120 112 156 104 199 c 0
 99 226 97 280 97 360 c 0
 97 440 99 492 104 515 c 0
 113 559 131 594 157 620 c 0
 202 665 257 687 322 687 c 0
 387 687 442 665 487 620 c 0
 515 592 533 557 540 515 c 1
EndSplineSet
Substitution2: "sous-table 'sups' Exposant dans Latin lookup 1" O.superior
Substitution2: "sous-table 'aalt' Activer toutes les variantes dans Latin lookup 0" O.superior
EndChar

StartChar: P
Encoding: 80 80 49
Width: 601
Flags: MW
HStem: 36 21G<126 195 126 126> 319 61 615 61
VStem: 127 69 495 69<467.5 508.5>
LayerCount: 2
Fore
SplineSet
495 488 m 0
 495 529 483 561 459 583 c 0
 435 605 402 616 360 616 c 2
 197 616 l 1
 197 381 l 1
 360 381 l 2
 402 381 435 389 459 404 c 0
 483 419 495 447 495 488 c 0
509 625 m 1
 509 624 l 1
 546 590 564 545 564 488 c 0
 564 431 546 389 509 361 c 0
 472 333 424 319 365 319 c 2
 195 319 l 1
 195 36 l 1
 126 36 l 1
 126 676 l 1
 365 676 l 2
 424 676 472 659 509 625 c 1
EndSplineSet
Substitution2: "sous-table 'sups' Exposant dans Latin lookup 1" P.superior
Substitution2: "sous-table 'aalt' Activer toutes les variantes dans Latin lookup 0" P.superior
EndChar

StartChar: Q
Encoding: 81 81 50
Width: 618
Flags: MW
HStem: 29 61 625 61
VStem: 102 69 482 69
LayerCount: 2
Fore
SplineSet
456 165 m 1
 455 163 l 1
 466 181 473 203 476 229 c 0
 479 255 481 301 481 366 c 0
 481 431 479 475 474 498 c 0
 465 535 452 562 435 579 c 0
 405 610 368 625 324 625 c 0
 280 625 244 610 215 579 c 0
 196 558 184 533 179 504 c 0
 174 475 171 425 171 355 c 0
 171 285 174 236 179 208 c 0
 184 180 196 156 215 136 c 0
 245 105 279 90 318 90 c 0
 357 90 390 100 417 121 c 1
 356 179 l 1
 398 220 l 1
 456 165 l 1
563 61 m 1
 522 20 l 1
 464 72 l 1
 425 42 376 27 317 27 c 0
 258 27 207 49 163 93 c 0
 134 122 116 156 109 195 c 0
 104 222 101 276 101 356 c 0
 101 436 104 488 109 511 c 0
 119 557 137 593 162 618 c 0
 206 662 261 684 327 684 c 0
 393 684 447 662 490 618 c 0
 518 589 536 553 543 510 c 0
 548 483 551 432 551 357 c 0
 551 282 549 229 544 197 c 0
 539 165 526 137 505 112 c 1
 563 61 l 1
EndSplineSet
Substitution2: "sous-table 'sups' Exposant dans Latin lookup 1" Q.superior
Substitution2: "sous-table 'aalt' Activer toutes les variantes dans Latin lookup 0" Q.superior
EndChar

StartChar: R
Encoding: 82 82 51
Width: 625
Flags: MW
HStem: 36 21G<127 195 127 127 495 575 495 495> 320 60<196 349 195 367> 615 61<196 367 196 196>
VStem: 128 68 495 69
LayerCount: 2
Fore
SplineSet
460 410 m 1
 460 411 l 1
 483 431 495 460 495 498 c 0
 495 536 483 565 460 585 c 0
 437 605 406 615 367 615 c 2
 196 615 l 1
 196 380 l 1
 367 380 l 2
 406 380 437 390 460 410 c 1
575 36 m 1
 495 36 l 1
 349 320 l 1
 195 320 l 1
 195 36 l 1
 127 36 l 1
 127 676 l 1
 373 676 l 2
 429 676 475 660 510 628 c 0
 545 596 563 555 563 505 c 0
 563 455 550 415 525 385 c 0
 500 355 466 335 423 326 c 1
 575 36 l 1
EndSplineSet
Substitution2: "sous-table 'sups' Exposant dans Latin lookup 1" R.superior
Substitution2: "sous-table 'aalt' Activer toutes les variantes dans Latin lookup 0" R.superior
EndChar

StartChar: S
Encoding: 83 83 52
Width: 557
Flags: MW
HStem: 30 61 622 60
VStem: 84 67 439 69
LayerCount: 2
Fore
SplineSet
454 339 m 1
 451 338 l 1
 487 307 505 264 505 209 c 0
 505 154 485 110 445 77 c 0
 405 44 351 28 284 28 c 0
 194 28 121 56 64 113 c 1
 111 160 l 1
 158 113 216 89 285 89 c 0
 332 89 369 100 396 121 c 0
 423 142 437 171 437 207 c 0
 437 243 427 270 406 288 c 0
 390 303 362 313 323 319 c 2
 248 331 l 2
 137 348 82 404 82 499 c 0
 82 554 100 598 137 631 c 0
 174 664 227 681 296 681 c 0
 365 681 426 658 479 611 c 1
 435 567 l 1
 394 603 344 621 285 621 c 0
 243 621 210 610 186 589 c 0
 162 568 150 540 150 506 c 0
 150 472 160 446 180 429 c 0
 200 412 229 401 266 395 c 2
 336 384 l 2
 389 376 428 361 454 339 c 1
EndSplineSet
Substitution2: "sous-table 'sups' Exposant dans Latin lookup 1" S.superior
Substitution2: "sous-table 'aalt' Activer toutes les variantes dans Latin lookup 0" S.superior
EndChar

StartChar: T
Encoding: 84 84 53
Width: 520
Flags: MW
HStem: 36 21G<240 308 240 240> 623 61<54 240 54 494 308 494 308 308>
VStem: 240 68<36 623 36 623>
LayerCount: 2
Fore
SplineSet
494 623 m 1
 308 623 l 1
 308 36 l 1
 240 36 l 1
 240 623 l 1
 54 623 l 1
 54 684 l 1
 494 684 l 1
 494 623 l 1
EndSplineSet
Substitution2: "sous-table 'sups' Exposant dans Latin lookup 1" T.superior
Substitution2: "sous-table 'aalt' Activer toutes les variantes dans Latin lookup 0" T.superior
EndChar

StartChar: U
Encoding: 85 85 54
Width: 648
Flags: MW
HStem: 30 61 662 20G<117 185 185 185 497 565 565 565>
VStem: 118 68 497 68<252 682>
LayerCount: 2
Fore
SplineSet
565 247 m 1
 563 247 l 1
 563 183 542 131 500 91 c 0
 458 51 405 31 340 31 c 0
 275 31 222 51 180 91 c 0
 138 131 117 183 117 247 c 2
 117 682 l 1
 185 682 l 1
 185 252 l 2
 185 203 199 164 227 135 c 0
 255 106 293 91 340 91 c 0
 387 91 425 106 454 135 c 0
 483 164 497 203 497 252 c 2
 497 682 l 1
 565 682 l 1
 565 247 l 1
EndSplineSet
Substitution2: "sous-table 'sups' Exposant dans Latin lookup 1" U.superior
Substitution2: "sous-table 'aalt' Activer toutes les variantes dans Latin lookup 0" U.superior
EndChar

StartChar: V
Encoding: 86 86 55
Width: 518
Flags: MW
HStem: 36 21G<245 301 245 245> 663 20G<34 106 106 106 440 512 512 512>
LayerCount: 2
Fore
SplineSet
512 683 m 1
 301 36 l 1
 245 36 l 1
 34 683 l 1
 106 683 l 1
 273 158 l 1
 440 683 l 1
 512 683 l 1
EndSplineSet
Substitution2: "sous-table 'sups' Exposant dans Latin lookup 1" V.superior
Substitution2: "sous-table 'aalt' Activer toutes les variantes dans Latin lookup 0" V.superior
EndChar

StartChar: W
Encoding: 87 87 56
Width: 811
Flags: MW
HStem: 36 21G<221 285 221 221 569 633 569 569> 656 20G<57 130 130 130 724 797 797 797>
LayerCount: 2
Fore
SplineSet
797 676 m 1
 633 36 l 1
 569 36 l 1
 427 515 l 1
 285 36 l 1
 221 36 l 1
 57 676 l 1
 130 676 l 1
 255 160 l 1
 396 642 l 1
 458 642 l 1
 599 160 l 1
 724 676 l 1
 797 676 l 1
EndSplineSet
Substitution2: "sous-table 'sups' Exposant dans Latin lookup 1" W.superior
Substitution2: "sous-table 'aalt' Activer toutes les variantes dans Latin lookup 0" W.superior
EndChar

StartChar: X
Encoding: 88 88 57
Width: 523
Flags: MW
HStem: 36 21G<41 118 41 41 431 510 431 431> 656 20G<54 133 133 133 417 496 496 496>
LayerCount: 2
Fore
SplineSet
510 36 m 1
 431 36 l 1
 275 305 l 1
 118 36 l 1
 41 36 l 1
 237 364 l 1
 54 676 l 1
 133 676 l 1
 275 424 l 1
 417 676 l 1
 496 676 l 1
 312 364 l 1
 510 36 l 1
EndSplineSet
Substitution2: "sous-table 'sups' Exposant dans Latin lookup 1" X.superior
Substitution2: "sous-table 'aalt' Activer toutes les variantes dans Latin lookup 0" X.superior
EndChar

StartChar: Y
Encoding: 89 89 58
Width: 488
Flags: MW
HStem: 36 21G<224 292 224 224> 656 20G<33 107 107 107 407 481 481 481>
VStem: 224 68<36 320 36 320>
LayerCount: 2
Fore
SplineSet
481 676 m 1
 292 320 l 1
 292 36 l 1
 224 36 l 1
 224 320 l 1
 33 676 l 1
 107 676 l 1
 258 390 l 1
 407 676 l 1
 481 676 l 1
EndSplineSet
Substitution2: "sous-table 'sups' Exposant dans Latin lookup 1" Y.superior
Substitution2: "sous-table 'aalt' Activer toutes les variantes dans Latin lookup 0" Y.superior
EndChar

StartChar: Z
Encoding: 90 90 59
Width: 528
Flags: MW
HStem: 36 61<154 477 154 477> 615 61<92 400 92 477>
LayerCount: 2
Fore
SplineSet
477 36 m 1
 79 36 l 1
 79 100 l 1
 400 615 l 1
 92 615 l 1
 92 676 l 1
 477 676 l 1
 477 619 l 1
 154 97 l 1
 477 97 l 1
 477 36 l 1
EndSplineSet
Substitution2: "sous-table 'sups' Exposant dans Latin lookup 1" Z.superior
Substitution2: "sous-table 'aalt' Activer toutes les variantes dans Latin lookup 0" Z.superior
EndChar

StartChar: bracketleft
Encoding: 91 91 60
Width: 299
Flags: MW
HStem: -31 58<166 260 166 260> 685 58<166 260 166 166>
VStem: 101 65<27 685 27 743 27 743> 101 159<-31 27 685 743>
LayerCount: 2
Fore
SplineSet
260 -31 m 1xd0
 101 -31 l 1
 101 743 l 1
 260 743 l 1
 260 685 l 1xd0
 166 685 l 1
 166 27 l 1xe0
 260 27 l 1
 260 -31 l 1xd0
EndSplineSet
Substitution2: "sous-table 'sups' Exposant dans Latin lookup 1" bracketleft.superior
Substitution2: "sous-table 'aalt' Activer toutes les variantes dans Latin lookup 0" bracketleft.superior
EndChar

StartChar: backslash
Encoding: 92 92 61
Width: 337
Flags: MW
VStem: 18 319
LayerCount: 2
Fore
SplineSet
337 -31 m 1
 273 -31 l 1
 18 740 l 1
 82 740 l 1
 337 -31 l 1
EndSplineSet
Substitution2: "sous-table 'sups' Exposant dans Latin lookup 1" backslash.superior
Substitution2: "sous-table 'aalt' Activer toutes les variantes dans Latin lookup 0" backslash.superior
EndChar

StartChar: bracketright
Encoding: 93 93 62
Width: 294
Flags: MW
HStem: -31 56<53 150 53 212 53 150> 687 56<53 150 53 212>
VStem: 53 159<-31 25 25 25 687 743> 150 62<25 687 687 687>
LayerCount: 2
Fore
SplineSet
212 -31 m 1xe0
 53 -31 l 1
 53 25 l 1xe0
 150 25 l 1
 150 687 l 1xd0
 53 687 l 1
 53 743 l 1
 212 743 l 1
 212 -31 l 1xe0
EndSplineSet
Substitution2: "sous-table 'sups' Exposant dans Latin lookup 1" bracketright.superior
Substitution2: "sous-table 'aalt' Activer toutes les variantes dans Latin lookup 0" bracketright.superior
EndChar

StartChar: asciicircum
Encoding: 94 94 63
Width: 510
Flags: MW
HStem: 428 275<71 299 71 299 239 458 239 392>
LayerCount: 2
Fore
SplineSet
458 428 m 1
 392 428 l 1
 269 642 l 1
 137 428 l 1
 71 428 l 1
 239 703 l 1
 299 703 l 1
 458 428 l 1
EndSplineSet
Substitution2: "sous-table 'sups' Exposant dans Latin lookup 1" asciicircum.superior
Substitution2: "sous-table 'aalt' Activer toutes les variantes dans Latin lookup 0" asciicircum.superior
EndChar

StartChar: underscore
Encoding: 95 95 64
Width: 510
Flags: MW
HStem: -162 45<27 510 27 510>
LayerCount: 2
Fore
SplineSet
510 -162 m 1
 27 -162 l 1
 27 -117 l 1
 510 -117 l 1
 510 -162 l 1
EndSplineSet
Substitution2: "sous-table 'sups' Exposant dans Latin lookup 1" underscore.superior
Substitution2: "sous-table 'aalt' Activer toutes les variantes dans Latin lookup 0" underscore.superior
EndChar

StartChar: quoteleft
Encoding: 8216 8216 65
Width: 249
Flags: MW
HStem: 636 147<92 171 92 171>
VStem: 92 79<636 712 712 712>
LayerCount: 2
Fore
SplineSet
171 636 m 1
 92 636 l 1
 92 712 l 1
 171 783 l 1
 171 636 l 1
EndSplineSet
Substitution2: "sous-table 'sups' Exposant dans Latin lookup 1" quoteleft.superior
Substitution2: "sous-table 'aalt' Activer toutes les variantes dans Latin lookup 0" quoteleft.superior
EndChar

StartChar: a
Encoding: 97 97 66
Width: 498
Flags: MW
HStem: 27 56 222 54<357 357> 425 56
VStem: 70 64 357 65<34 34 34 66 66 66 190 222 222 222>
LayerCount: 2
Fore
SplineSet
357 190 m 2
 357 222 l 1
 232 223 l 2
 167 224 134 203 134 160 c 0
 134 109 168 84 235 84 c 0
 281 84 314 94 334 114 c 0
 349 128 357 153 357 190 c 2
422 34 m 1
 357 33 l 1
 357 66 l 1
 335 39 294 26 234 26 c 0
 174 26 131 40 105 67 c 0
 82 90 71 121 71 159 c 0
 71 197 85 228 112 251 c 0
 131 268 169 276 226 276 c 2
 359 276 l 1
 359 328 l 2
 359 393 321 425 245 425 c 0
 196 425 159 408 135 375 c 1
 91 415 l 1
 110 440 131 457 154 467 c 0
 177 477 207 482 244 482 c 0
 363 482 422 433 422 334 c 2
 422 34 l 1
EndSplineSet
Substitution2: "sous-table 'sups' Exposant dans Latin lookup 1" a.superior
Substitution2: "sous-table 'aalt' Activer toutes les variantes dans Latin lookup 0" a.superior
EndChar

StartChar: b
Encoding: 98 98 67
Width: 519
Flags: MW
HStem: 30 58 426 58 656 20G
VStem: 110 64<36 69 436 677> 397 64<231 283>
LayerCount: 2
Fore
SplineSet
178 140 m 1
 178 141 l 1
 195 106 231 89 286 89 c 0
 330 89 361 106 378 141 c 0
 391 166 397 205 397 257 c 0
 397 309 391 348 378 374 c 0
 361 409 330 426 286 426 c 0
 228 426 192 409 178 374 c 1
 178 140 l 1
461 258 m 0
 461 169 443 106 407 70 c 0
 382 44 346 31 299 31 c 0
 236 31 194 44 174 69 c 1
 174 36 l 1
 110 36 l 1
 110 677 l 1
 174 677 l 1
 174 436 l 1
 196 469 238 485 299 485 c 0
 346 485 382 472 407 446 c 0
 443 410 461 347 461 258 c 0
EndSplineSet
Substitution2: "sous-table 'sups' Exposant dans Latin lookup 1" b.superior
Substitution2: "sous-table 'aalt' Activer toutes les variantes dans Latin lookup 0" b.superior
EndChar

StartChar: c
Encoding: 99 99 68
Width: 466
Flags: MW
HStem: 34 58 430 58
VStem: 82 65
LayerCount: 2
Fore
SplineSet
424 100 m 1
 421 100 l 1
 398 75 376 58 354 48 c 0
 332 38 306 33 275 33 c 0
 217 33 171 52 136 90 c 0
 98 130 79 187 79 260 c 0
 79 333 98 390 136 430 c 0
 171 468 217 487 275 487 c 0
 306 487 333 482 355 472 c 0
 377 462 399 445 422 420 c 1
 378 379 l 1
 348 412 313 428 272 428 c 0
 231 428 200 413 178 383 c 0
 156 353 145 312 145 260 c 0
 145 208 156 167 178 137 c 0
 200 107 231 92 272 92 c 0
 313 92 349 109 380 142 c 1
 424 100 l 1
EndSplineSet
Substitution2: "sous-table 'sups' Exposant dans Latin lookup 1" c.superior
Substitution2: "sous-table 'aalt' Activer toutes les variantes dans Latin lookup 0" c.superior
EndChar

StartChar: d
Encoding: 100 100 69
Width: 516
Flags: MW
HStem: 30 58 426 58
VStem: 110 64<231 283 231 302.5> 397 64<36 69 69 69 436 677 36 677>
LayerCount: 2
Fore
SplineSet
393 141 m 1
 393 140 l 1
 393 374 l 1
 379 409 343 426 285 426 c 0
 241 426 210 409 193 374 c 0
 180 348 174 309 174 257 c 0
 174 205 180 166 193 141 c 0
 210 106 241 89 285 89 c 0
 340 89 376 106 393 141 c 1
110 258 m 0
 110 347 128 410 164 446 c 0
 189 472 225 485 272 485 c 0
 333 485 375 469 397 436 c 1
 397 677 l 1
 461 677 l 1
 461 36 l 1
 397 36 l 1
 397 69 l 1
 377 44 335 31 272 31 c 0
 225 31 189 44 164 70 c 0
 128 106 110 169 110 258 c 0
EndSplineSet
Substitution2: "sous-table 'sups' Exposant dans Latin lookup 1" d.superior
Substitution2: "sous-table 'aalt' Activer toutes les variantes dans Latin lookup 0" d.superior
EndChar

StartChar: e
Encoding: 101 101 70
Width: 503
Flags: MW
HStem: 35 57 230 52<149 149 149 382 382 383 148 448> 434 55<238 290>
VStem: 83 65
LayerCount: 2
Fore
SplineSet
382 282 m 1
 383 282 l 1
 380 325 375 353 369 367 c 0
 351 412 316 434 264 434 c 0
 212 434 178 412 162 367 c 0
 155 349 150 321 148 282 c 1
 382 282 l 1
149 230 m 1
 148 227 l 1
 148 135 191 89 278 89 c 0
 322 89 361 106 395 139 c 1
 439 101 l 1
 415 77 391 60 367 49 c 0
 343 38 313 33 277 33 c 0
 216 33 169 52 135 90 c 0
 101 128 84 184 84 258 c 0
 84 332 100 389 132 429 c 0
 164 469 209 489 266 489 c 0
 323 489 368 467 400 424 c 0
 432 381 448 326 448 260 c 2
 448 230 l 1
 149 230 l 1
EndSplineSet
Substitution2: "sous-table 'sups' Exposant dans Latin lookup 1" e.superior
Substitution2: "sous-table 'aalt' Activer toutes les variantes dans Latin lookup 0" e.superior
EndChar

StartChar: f
Encoding: 102 102 71
Width: 298
Flags: MW
HStem: 445 50<55 112 55 112 176 271> 641 56<224 236 236 271>
VStem: 112 64<55 445 55 445 495 577>
LayerCount: 2
Fore
SplineSet
271 445 m 1
 176 445 l 1
 176 55 l 1
 112 55 l 1
 112 445 l 1
 55 445 l 1
 55 495 l 1
 112 495 l 1
 112 579 l 2
 112 614 122 642 141 664 c 0
 160 686 188 697 224 697 c 2
 271 697 l 1
 271 641 l 1
 236 641 l 2
 196 641 176 620 176 577 c 2
 176 495 l 1
 271 495 l 1
 271 445 l 1
EndSplineSet
Substitution2: "sous-table 'sups' Exposant dans Latin lookup 1" f.superior
Substitution2: "sous-table 'aalt' Activer toutes les variantes dans Latin lookup 0" f.superior
EndChar

StartChar: g
Encoding: 103 103 72
Width: 514
Flags: MW
HStem: -172 57 32 21G 421 58
VStem: 83 65<230 280 230 326.5> 370 64<147 375 375 375 418 470>
LayerCount: 2
Fore
SplineSet
370 375 m 1
 369 373 l 1
 342 406 305 421 259 419 c 0
 213 417 183 402 169 373 c 0
 155 344 148 305 148 255 c 0
 148 205 154 167 167 142 c 0
 187 102 218 85 259 90 c 0
 308 97 345 116 370 147 c 1
 370 375 l 1
244 30 m 1
 245 28 l 1
 137 28 83 103 83 252 c 0
 83 401 137 476 245 476 c 0
 299 476 341 457 370 418 c 1
 370 470 l 1
 434 470 l 1
 434 14 l 2
 434 -42 418 -88 385 -123 c 0
 352 -158 307 -176 250 -176 c 0
 217 -176 190 -171 168 -162 c 0
 146 -153 123 -137 99 -115 c 1
 141 -74 l 1
 159 -90 175 -101 189 -108 c 0
 203 -115 222 -118 246 -118 c 0
 287 -118 318 -105 338 -80 c 0
 358 -55 368 -22 368 19 c 2
 368 88 l 1
 338 49 297 30 244 30 c 1
EndSplineSet
Substitution2: "sous-table 'sups' Exposant dans Latin lookup 1" g.superior
Substitution2: "sous-table 'aalt' Activer toutes les variantes dans Latin lookup 0" g.superior
EndChar

StartChar: h
Encoding: 104 104 73
Width: 534
Flags: MW
HStem: 36 21G<458 458> 426 68 656 20G
VStem: 109 65 393 65
LayerCount: 2
Fore
SplineSet
458 36 m 1
 392 37 l 1
 392 310 l 2
 392 388 356 427 284 427 c 0
 250 427 223 417 203 397 c 0
 183 377 173 348 173 310 c 2
 173 37 l 1
 108 37 l 1
 108 677 l 1
 173 677 l 1
 175 443 l 1
 204 478 243 495 292 495 c 0
 341 495 381 479 412 446 c 0
 443 413 458 371 458 320 c 2
 458 36 l 1
EndSplineSet
Substitution2: "sous-table 'sups' Exposant dans Latin lookup 1" h.superior
Substitution2: "sous-table 'aalt' Activer toutes les variantes dans Latin lookup 0" h.superior
EndChar

StartChar: i
Encoding: 105 105 74
Width: 240
Flags: MW
HStem: 36 21G<94 158 94 94> 458 20G<94 158 158 158> 604 73<90 163 90 163>
VStem: 94 64<36 478>
LayerCount: 2
Fore
SplineSet
158 36 m 1
 94 36 l 1
 94 478 l 1
 158 478 l 1
 158 36 l 1
163 604 m 1
 90 604 l 1
 90 677 l 1
 163 677 l 1
 163 604 l 1
EndSplineSet
Substitution2: "sous-table 'sups' Exposant dans Latin lookup 1" i.superior
Substitution2: "sous-table 'aalt' Activer toutes les variantes dans Latin lookup 0" i.superior
EndChar

StartChar: j
Encoding: 106 106 75
Width: 235
Flags: MW
HStem: -174 56<-6 29 29 41 -6 29> 593 73<85 158 85 158>
VStem: 89 64<-53 465>
LayerCount: 2
Fore
SplineSet
153 -56 m 2
 153 -91 144 -119 125 -141 c 0
 106 -163 78 -174 41 -174 c 2
 -6 -174 l 1
 -6 -118 l 1
 29 -118 l 2
 69 -118 89 -96 89 -53 c 2
 89 465 l 1
 153 465 l 1
 153 -56 l 2
158 593 m 1
 85 593 l 1
 85 666 l 1
 158 666 l 1
 158 593 l 1
EndSplineSet
Substitution2: "sous-table 'sups' Exposant dans Latin lookup 1" j.superior
Substitution2: "sous-table 'aalt' Activer toutes les variantes dans Latin lookup 0" j.superior
EndChar

StartChar: k
Encoding: 107 107 76
Width: 512
Flags: MW
HStem: 36 21G<111 175 111 111 402 482 402 402> 656 20G<111 175 175 175>
VStem: 111 64<36 676>
LayerCount: 2
Fore
SplineSet
482 36 m 1
 402 36 l 1
 261 300 l 1
 176 211 l 1
 175 36 l 1
 111 36 l 1
 111 676 l 1
 175 676 l 1
 176 296 l 1
 377 508 l 1
 458 508 l 1
 308 350 l 1
 482 36 l 1
EndSplineSet
Substitution2: "sous-table 'sups' Exposant dans Latin lookup 1" k.superior
Substitution2: "sous-table 'aalt' Activer toutes les variantes dans Latin lookup 0" k.superior
EndChar

StartChar: l
Encoding: 108 108 77
Width: 284
Flags: MW
HStem: 36 55<190.5 256 221 256 221 256> 656 20G<97 162 162 162>
VStem: 97 65<154 156 156 676>
LayerCount: 2
Fore
SplineSet
256 36 m 1
 209 36 l 2
 172 36 144 47 125 68 c 0
 106 89 97 118 97 154 c 2
 97 676 l 1
 162 676 l 1
 162 156 l 2
 162 113 182 91 221 91 c 2
 256 91 l 1
 256 36 l 1
EndSplineSet
Substitution2: "sous-table 'sups' Exposant dans Latin lookup 1" l.superior
Substitution2: "sous-table 'aalt' Activer toutes les variantes dans Latin lookup 0" l.superior
EndChar

StartChar: m
Encoding: 109 109 78
Width: 835
Flags: MW
HStem: 35 21G<759 759> 426 57
VStem: 125 65<34 307 428 477> 410 64 694 65
CounterMasks: 1 38
LayerCount: 2
Fore
SplineSet
759 35 m 1
 696 34 l 1
 696 307 l 2
 696 386 660 425 587 425 c 0
 554 425 527 415 506 395 c 0
 485 375 475 348 475 314 c 2
 475 34 l 1
 411 34 l 1
 411 307 l 2
 411 386 375 425 302 425 c 0
 267 425 240 415 220 394 c 0
 200 373 190 344 190 307 c 2
 190 34 l 1
 125 34 l 1
 125 477 l 1
 190 477 l 1
 190 428 l 1
 222 464 264 482 315 482 c 0
 378 482 423 457 450 408 c 1
 485 457 534 482 597 482 c 0
 645 482 684 468 714 439 c 0
 744 410 759 370 759 318 c 2
 759 35 l 1
EndSplineSet
Substitution2: "sous-table 'sups' Exposant dans Latin lookup 1" m.superior
Substitution2: "sous-table 'aalt' Activer toutes les variantes dans Latin lookup 0" m.superior
EndChar

StartChar: n
Encoding: 110 110 79
Width: 534
Flags: MW
HStem: 35 21G<458 458> 426 57
VStem: 109 65 393 65<36 309 309 318>
LayerCount: 2
Fore
SplineSet
458 35 m 1
 393 36 l 1
 393 309 l 2
 393 388 357 427 284 427 c 0
 250 427 223 417 203 396 c 0
 183 375 173 346 173 309 c 2
 173 36 l 1
 108 36 l 1
 108 479 l 1
 173 479 l 1
 173 430 l 1
 205 466 246 484 295 484 c 0
 344 484 383 470 413 441 c 0
 443 412 458 371 458 318 c 2
 458 35 l 1
EndSplineSet
Substitution2: "sous-table 'sups' Exposant dans Latin lookup 1" n.superior
Substitution2: "sous-table 'aalt' Activer toutes les variantes dans Latin lookup 0" n.superior
EndChar

StartChar: o
Encoding: 111 111 80
Width: 503
Flags: MW
HStem: 27 58 439 58
VStem: 84 65 381 65
LayerCount: 2
Fore
SplineSet
381 262 m 1
 380 266 l 1
 380 339 369 387 347 409 c 0
 325 431 298 442 266 442 c 0
 234 442 207 431 184 408 c 0
 161 385 150 337 150 264 c 0
 150 191 161 143 184 120 c 0
 207 97 235 86 267 86 c 0
 299 86 326 97 348 119 c 0
 370 141 381 189 381 262 c 1
445 266 m 2
 445 264 l 2
 445 177 428 116 393 81 c 0
 358 46 315 29 264 29 c 0
 213 29 170 47 135 82 c 0
 100 117 83 178 83 265 c 0
 83 352 100 413 135 448 c 0
 170 483 213 501 264 501 c 0
 315 501 358 484 393 449 c 0
 428 414 445 353 445 266 c 2
EndSplineSet
Substitution2: "sous-table 'sups' Exposant dans Latin lookup 1" o.superior
Substitution2: "sous-table 'aalt' Activer toutes les variantes dans Latin lookup 0" o.superior
EndChar

StartChar: p
Encoding: 112 112 81
Width: 519
Flags: MW
HStem: 31 58 427 58
VStem: 110 64 397 64
LayerCount: 2
Fore
SplineSet
194 141 m 1
 195 142 l 1
 212 107 243 90 287 90 c 0
 331 90 362 107 379 142 c 0
 392 168 398 207 398 259 c 0
 398 311 392 350 379 375 c 0
 362 410 331 427 287 427 c 0
 216 428 180 399 180 341 c 0
 180 315 180 280 180 236 c 0
 180 192 185 160 194 141 c 1
462 259 m 1
 463 259 l 1
 463 170 445 107 409 71 c 0
 384 45 346 32 296 32 c 0
 246 32 206 51 176 90 c 1
 176 -160 l 1
 112 -160 l 1
 112 481 l 1
 176 481 l 1
 176 428 l 1
 205 467 245 486 295 486 c 0
 345 486 383 473 408 447 c 0
 444 411 462 348 462 259 c 1
EndSplineSet
Substitution2: "sous-table 'sups' Exposant dans Latin lookup 1" p.superior
Substitution2: "sous-table 'aalt' Activer toutes les variantes dans Latin lookup 0" p.superior
EndChar

StartChar: q
Encoding: 113 113 82
Width: 519
Flags: MW
HStem: 30 58 426 58
VStem: 110 64 397 64
LayerCount: 2
Fore
SplineSet
376 141 m 1
 377 140 l 1
 386 159 391 191 391 235 c 0
 391 279 391 314 391 340 c 0
 391 397 355 426 284 426 c 0
 240 426 209 409 192 374 c 0
 179 349 173 310 173 258 c 0
 173 206 179 167 192 141 c 0
 209 106 240 89 284 89 c 0
 328 89 359 106 376 141 c 1
108 258 m 1
 109 258 l 1
 109 347 127 410 163 446 c 0
 188 472 226 485 276 485 c 0
 326 485 366 466 395 427 c 1
 395 480 l 1
 459 480 l 1
 459 -161 l 1
 395 -161 l 1
 395 89 l 1
 365 50 325 31 275 31 c 0
 225 31 187 44 162 70 c 0
 126 106 108 169 108 258 c 1
EndSplineSet
Substitution2: "sous-table 'sups' Exposant dans Latin lookup 1" q.superior
Substitution2: "sous-table 'aalt' Activer toutes les variantes dans Latin lookup 0" q.superior
EndChar

StartChar: r
Encoding: 114 114 83
Width: 404
Flags: MW
HStem: 35 21G<106 171 106 106> 425 57
VStem: 106 65<35 283 424 478>
LayerCount: 2
Fore
SplineSet
402 442 m 1
 353 392 l 1
 332 414 306 425 275 425 c 0
 244 425 219 414 200 391 c 1
 181 370 171 334 171 283 c 2
 171 35 l 1
 106 35 l 1
 106 478 l 1
 171 478 l 1
 171 424 l 1
 197 463 238 483 295 483 c 0
 338 483 374 469 402 442 c 1
EndSplineSet
Substitution2: "sous-table 'sups' Exposant dans Latin lookup 1" r.superior
Substitution2: "sous-table 'aalt' Activer toutes les variantes dans Latin lookup 0" r.superior
EndChar

StartChar: s
Encoding: 115 115 84
Width: 470
Flags: MW
HStem: 33 56 432 55
VStem: 83 63 362 63
LayerCount: 2
Fore
SplineSet
425 168 m 1
 428 169 l 1
 428 127 412 94 379 70 c 0
 346 46 302 34 247 34 c 0
 170 34 109 55 64 98 c 1
 107 141 l 1
 140 107 186 90 245 90 c 0
 324 90 363 116 363 168 c 0
 363 207 338 229 289 233 c 2
 216 239 l 2
 128 247 84 287 84 358 c 0
 84 398 99 430 129 453 c 0
 159 476 198 488 246 488 c 0
 313 488 366 472 405 440 c 1
 363 398 l 1
 332 421 293 433 245 433 c 0
 179 433 146 409 146 360 c 0
 146 321 172 299 223 294 c 2
 294 288 l 2
 381 280 425 240 425 168 c 1
EndSplineSet
Substitution2: "sous-table 'sups' Exposant dans Latin lookup 1" s.superior
Substitution2: "sous-table 'aalt' Activer toutes les variantes dans Latin lookup 0" s.superior
EndChar

StartChar: t
Encoding: 116 116 85
Width: 314
Flags: MW
HStem: 32 56<202.5 267 233 267 233 267> 406 66<52 108 52 108 52 173 173 267>
VStem: 108 65<151 153 153 406 472 611>
LayerCount: 2
Fore
SplineSet
267 32 m 1
 221 32 l 2
 184 32 156 44 137 67 c 1
 118 88 108 116 108 151 c 2
 108 406 l 1
 52 406 l 1
 52 472 l 1
 108 472 l 1
 108 611 l 1
 173 611 l 1
 173 472 l 1
 267 472 l 1
 267 406 l 1
 173 406 l 1
 173 153 l 2
 173 110 193 88 233 88 c 2
 267 88 l 1
 267 32 l 1
EndSplineSet
Substitution2: "sous-table 'sups' Exposant dans Latin lookup 1" t.superior
Substitution2: "sous-table 'aalt' Activer toutes les variantes dans Latin lookup 0" t.superior
EndChar

StartChar: u
Encoding: 117 117 86
Width: 533
Flags: MW
HStem: 29 57 457 20G<104 169 169 169 388 453 453 453>
VStem: 104 65<194 204 204 477> 388 65<204 477>
LayerCount: 2
Fore
SplineSet
453 34 m 1
 389 35 l 1
 389 85 l 1
 357 48 316 30 266 30 c 0
 216 30 177 44 148 72 c 0
 119 100 104 141 104 194 c 2
 104 477 l 1
 169 477 l 1
 169 204 l 2
 169 125 205 86 277 86 c 0
 311 86 338 96 358 117 c 0
 378 138 388 167 388 204 c 2
 388 477 l 1
 453 477 l 1
 453 34 l 1
EndSplineSet
Substitution2: "sous-table 'sups' Exposant dans Latin lookup 1" u.superior
Substitution2: "sous-table 'aalt' Activer toutes les variantes dans Latin lookup 0" u.superior
EndChar

StartChar: v
Encoding: 118 118 87
Width: 424
Flags: MW
HStem: 33 21G<194 252 194 194> 455 20G<32 102 102 102 345 415 415 415>
LayerCount: 2
Fore
SplineSet
415 475 m 1
 252 33 l 1
 194 33 l 1
 32 475 l 1
 102 475 l 1
 223 138 l 1
 345 475 l 1
 415 475 l 1
EndSplineSet
Substitution2: "sous-table 'sups' Exposant dans Latin lookup 1" v.superior
Substitution2: "sous-table 'aalt' Activer toutes les variantes dans Latin lookup 0" v.superior
EndChar

StartChar: w
Encoding: 119 119 88
Width: 687
Flags: MW
HStem: 35 21G<186 247 186 186 478 538 478 478> 457 20G<46 116 116 116 608 678 678 678>
LayerCount: 2
Fore
SplineSet
678 477 m 1
 538 35 l 1
 478 35 l 1
 362 357 l 1
 247 35 l 1
 186 35 l 1
 46 477 l 1
 116 477 l 1
 218 136 l 1
 334 447 l 1
 390 447 l 1
 507 136 l 1
 608 477 l 1
 678 477 l 1
EndSplineSet
Substitution2: "sous-table 'sups' Exposant dans Latin lookup 1" w.superior
Substitution2: "sous-table 'aalt' Activer toutes les variantes dans Latin lookup 0" w.superior
EndChar

StartChar: x
Encoding: 120 120 89
Width: 454
Flags: MW
HStem: 35 21G<54 132 54 54 346 424 346 346> 457 20G<60 138 138 138 340 418 418 418>
LayerCount: 2
Fore
SplineSet
424 35 m 1
 346 35 l 1
 240 206 l 1
 132 35 l 1
 54 35 l 1
 204 260 l 1
 60 477 l 1
 138 477 l 1
 240 314 l 1
 340 477 l 1
 418 477 l 1
 274 260 l 1
 424 35 l 1
EndSplineSet
Substitution2: "sous-table 'sups' Exposant dans Latin lookup 1" x.superior
Substitution2: "sous-table 'aalt' Activer toutes les variantes dans Latin lookup 0" x.superior
EndChar

StartChar: y
Encoding: 121 121 90
Width: 424
Flags: MW
HStem: -176 58<66 86 86 94 66 86>
LayerCount: 2
Fore
SplineSet
415 457 m 1
 212 -93 l 2
 192 -148 153 -176 94 -176 c 2
 66 -176 l 1
 66 -118 l 1
 86 -118 l 2
 108 -118 124 -114 134 -106 c 0
 144 -98 153 -84 160 -63 c 2
 215 90 l 1
 32 457 l 1
 102 457 l 1
 247 168 l 1
 345 457 l 1
 415 457 l 1
EndSplineSet
Substitution2: "sous-table 'sups' Exposant dans Latin lookup 1" y.superior
Substitution2: "sous-table 'aalt' Activer toutes les variantes dans Latin lookup 0" y.superior
EndChar

StartChar: z
Encoding: 122 122 91
Width: 435
Flags: MW
HStem: 34 57<142 389 142 389> 419 57<81 314 81 389>
VStem: 68 321<34 89 89 89>
LayerCount: 2
Fore
SplineSet
389 34 m 1
 68 34 l 1
 68 89 l 1
 314 419 l 1
 81 419 l 1
 81 476 l 1
 389 476 l 1
 389 421 l 1
 142 91 l 1
 389 91 l 1
 389 34 l 1
EndSplineSet
Substitution2: "sous-table 'sups' Exposant dans Latin lookup 1" z.superior
Substitution2: "sous-table 'aalt' Activer toutes les variantes dans Latin lookup 0" z.superior
EndChar

StartChar: braceleft
Encoding: 123 123 92
Width: 336
Flags: MW
HStem: -31 58<271 292> 327 58 685 58
VStem: 141 65
CounterMasks: 1 e0
LayerCount: 2
Fore
SplineSet
292 -31 m 1
 258 -32 l 1
 215 -32 185 -23 167 -5 c 0
 149 13 140 43 140 84 c 2
 140 256 l 2
 140 281 135 299 124 310 c 0
 113 321 99 326 82 326 c 2
 59 326 l 1
 59 384 l 1
 82 384 l 2
 99 384 113 389 124 400 c 0
 135 411 140 429 140 454 c 2
 140 626 l 2
 140 667 149 697 167 715 c 0
 185 733 215 742 258 742 c 2
 291 742 l 1
 291 684 l 1
 270 684 l 2
 236 684 216 676 210 661 c 0
 207 652 205 636 205 614 c 2
 205 445 l 2
 205 403 186 373 148 355 c 1
 186 337 205 307 205 265 c 2
 205 96 l 2
 205 62 210 42 220 36 c 0
 230 30 247 27 271 27 c 2
 292 27 l 1
 292 -31 l 1
EndSplineSet
Substitution2: "sous-table 'sups' Exposant dans Latin lookup 1" braceleft.superior
Substitution2: "sous-table 'aalt' Activer toutes les variantes dans Latin lookup 0" braceleft.superior
EndChar

StartChar: bar
Encoding: 124 124 93
Width: 309
Flags: MW
VStem: 131 64<-31 743>
LayerCount: 2
Fore
SplineSet
195 -31 m 1
 131 -31 l 1
 131 743 l 1
 195 743 l 1
 195 -31 l 1
EndSplineSet
Substitution2: "sous-table 'sups' Exposant dans Latin lookup 1" bar.superior
Substitution2: "sous-table 'aalt' Activer toutes les variantes dans Latin lookup 0" bar.superior
EndChar

StartChar: braceright
Encoding: 125 125 94
Width: 336
Flags: MW
HStem: -31 58 327 58<270 292> 685 58<60 81 60 94>
VStem: 148 65
CounterMasks: 1 e0
LayerCount: 2
Fore
SplineSet
292 327 m 1
 271 328 l 2
 254 328 240 323 229 312 c 0
 218 301 213 283 213 258 c 2
 213 86 l 2
 213 45 204 15 186 -3 c 0
 168 -21 138 -30 95 -30 c 2
 61 -30 l 1
 61 28 l 1
 82 28 l 2
 109 28 127 32 135 40 c 0
 143 48 147 67 147 97 c 2
 147 266 l 2
 147 308 166 338 204 356 c 1
 166 374 147 404 147 446 c 2
 147 615 l 2
 147 648 141 669 129 677 c 0
 121 682 105 685 81 685 c 2
 60 685 l 1
 60 743 l 1
 94 743 l 2
 137 743 167 734 185 716 c 0
 203 698 212 668 212 627 c 2
 212 455 l 2
 212 430 217 412 228 401 c 0
 239 390 253 385 270 385 c 2
 292 385 l 1
 292 327 l 1
EndSplineSet
Substitution2: "sous-table 'sups' Exposant dans Latin lookup 1" braceright.superior
Substitution2: "sous-table 'aalt' Activer toutes les variantes dans Latin lookup 0" braceright.superior
EndChar

StartChar: asciitilde
Encoding: 126 126 95
Width: 512
Flags: MW
HStem: 216 61<344.5 362> 266 61<178.5 194.5>
LayerCount: 2
Fore
SplineSet
468 277 m 1x80
 469 277 l 1
 444 252 424 236 408 228 c 0
 392 220 373 216 351 216 c 0x80
 329 216 300 224 264 241 c 0
 228 258 202 266 187 266 c 0
 164 266 139 252 112 225 c 1
 72 266 l 1
 97 291 117 307 133 315 c 0
 149 323 168 327 189 327 c 0x40
 210 327 239 319 275 302 c 0
 311 285 337 277 352 277 c 0
 375 277 400 291 427 318 c 1
 468 277 l 1x80
EndSplineSet
Substitution2: "sous-table 'sups' Exposant dans Latin lookup 1" asciitilde.superior
Substitution2: "sous-table 'aalt' Activer toutes les variantes dans Latin lookup 0" asciitilde.superior
EndChar

StartChar: exclamdown
Encoding: 161 161 96
Width: 298
Flags: MW
HStem: 381 75<103 181 103 181>
VStem: 103 78<381 456 381 456> 114 56<276 276>
LayerCount: 2
Fore
SplineSet
180 -184 m 1xa0
 105 -184 l 1
 114 276 l 1
 170 276 l 1
 180 -184 l 1xa0
181 381 m 1xc0
 103 381 l 1
 103 456 l 1
 181 456 l 1
 181 381 l 1xc0
EndSplineSet
Substitution2: "sous-table 'sups' Exposant dans Latin lookup 1" exclamdown.superior
Substitution2: "sous-table 'aalt' Activer toutes les variantes dans Latin lookup 0" exclamdown.superior
EndChar

StartChar: cent
Encoding: 162 162 97
Width: 473
Flags: MW
HStem: 36 21G 139 59 483 21G<385 385> 532 59 656 20G
VStem: 82 65 245 53<37 140 37 142 37 142 590 675>
LayerCount: 2
Fore
SplineSet
249 199 m 1
 249 531 l 1
 220 525 196 509 177 482 c 0
 158 455 148 416 148 365 c 0
 148 314 158 275 177 248 c 0
 196 221 220 205 249 199 c 1
429 206 m 1
 391 165 347 143 298 140 c 1
 298 37 l 1
 245 37 l 1
 245 142 l 1
 195 149 155 172 126 211 c 0
 97 250 82 301 82 364 c 0
 82 427 97 479 126 520 c 1
 155 558 195 581 245 588 c 1
 245 675 l 1
 298 675 l 1
 298 590 l 1
 347 587 391 565 429 524 c 1
 385 483 l 1
 358 514 328 530 295 532 c 1
 295 198 l 1
 328 200 358 216 385 247 c 1
 429 206 l 1
EndSplineSet
Substitution2: "sous-table 'sups' Exposant dans Latin lookup 1" cent.superior
Substitution2: "sous-table 'aalt' Activer toutes les variantes dans Latin lookup 0" cent.superior
EndChar

StartChar: sterling
Encoding: 163 163 98
Width: 520
Flags: MW
HStem: 36 61<195 474 195 474> 333 49<69 126 69 126 195 327> 621 61<303 343>
VStem: 126 69<97 333 97 333 97 333 382 473>
LayerCount: 2
Fore
SplineSet
474 36 m 1
 126 36 l 1
 126 333 l 1
 69 333 l 1
 69 382 l 1
 126 382 l 1
 126 482 l 2
 126 543 145 592 182 628 c 0
 219 664 267 682 326 682 c 0
 385 682 434 663 473 624 c 1
 426 579 l 1
 397 607 363 621 323 621 c 0
 283 621 252 608 229 582 c 0
 206 556 195 520 195 473 c 2
 195 382 l 1
 327 382 l 1
 327 333 l 1
 195 333 l 1
 195 97 l 1
 474 97 l 1
 474 36 l 1
EndSplineSet
Substitution2: "sous-table 'sups' Exposant dans Latin lookup 1" sterling.superior
Substitution2: "sous-table 'aalt' Activer toutes les variantes dans Latin lookup 0" sterling.superior
EndChar

StartChar: fraction
Encoding: 8260 8260 99
Width: 175
Flags: MW
HStem: 36 21G<-84 -30 -84 -84> 656 20G<215 269 269 269>
LayerCount: 2
Fore
SplineSet
269 676 m 1
 -30 36 l 1
 -84 36 l 1
 215 676 l 1
 269 676 l 1
EndSplineSet
Substitution2: "sous-table 'sups' Exposant dans Latin lookup 1" fraction.superior
Substitution2: "sous-table 'aalt' Activer toutes les variantes dans Latin lookup 0" fraction.superior
EndChar

StartChar: yen
Encoding: 165 165 100
Width: 488
Flags: MW
HStem: 36 21G<223 292 223 223> 215 49<84 223 84 223 292 430> 326 48<84 174 84 199 84 174 340 430> 656 20G<33 107 107 107 408 481 481 481>
VStem: 223 69<36 215 36 215 264 278 36 278>
LayerCount: 2
Fore
SplineSet
481 676 m 1
 340 374 l 1
 430 374 l 1
 430 326 l 1
 316 326 l 1
 292 278 l 1
 292 264 l 1
 430 264 l 1
 430 215 l 1
 292 215 l 1
 292 36 l 1
 223 36 l 1
 223 215 l 1
 84 215 l 1
 84 264 l 1
 223 264 l 1
 223 278 l 1
 199 326 l 1
 84 326 l 1
 84 374 l 1
 174 374 l 1
 33 676 l 1
 107 676 l 1
 258 348 l 1
 408 676 l 1
 481 676 l 1
EndSplineSet
Substitution2: "sous-table 'sups' Exposant dans Latin lookup 1" yen.superior
Substitution2: "sous-table 'aalt' Activer toutes les variantes dans Latin lookup 0" yen.superior
EndChar

StartChar: florin
Encoding: 402 402 101
Width: 382
Flags: MW
HStem: 322 48<47 135 47 144 209 304> 612 55<309 311 311 356>
VStem: 43 313
LayerCount: 2
Fore
SplineSet
356 612 m 1
 311 612 l 2
 271 612 247 590 240 547 c 2
 209 370 l 1
 304 370 l 1
 304 322 l 1
 200 322 l 1
 108 -198 l 1
 43 -198 l 1
 135 322 l 1
 47 322 l 1
 47 370 l 1
 144 370 l 1
 175 548 l 2
 181 583 195 611 218 632 c 0
 242 655 272 667 309 667 c 2
 356 667 l 1
 356 612 l 1
EndSplineSet
Substitution2: "sous-table 'sups' Exposant dans Latin lookup 1" florin.superior
Substitution2: "sous-table 'aalt' Activer toutes les variantes dans Latin lookup 0" florin.superior
EndChar

StartChar: section
Encoding: 167 167 102
Width: 529
Flags: MW
HStem: -179 60 613 58
VStem: 106 66 117 65 378 65<-34 4> 379 66
LayerCount: 2
Fore
SplineSet
356 169 m 1xe0
 355 172 l 1
 374 193 384 221 384 256 c 0
 384 291 374 319 354 340 c 0
 334 361 308 371 277 371 c 0
 246 371 221 360 201 338 c 0
 181 316 171 288 171 254 c 0
 171 220 181 192 201 170 c 0
 221 148 247 137 279 137 c 0
 311 137 337 148 356 169 c 1xe0
417 361 m 1
 416 364 l 1
 438 335 449 302 449 265 c 0
 449 228 440 197 422 171 c 0
 404 145 382 126 355 113 c 1
 414 91 443 48 443 -17 c 0
 443 -63 427 -100 395 -129 c 0
 363 -158 324 -172 277 -172 c 0
 230 -172 190 -159 158 -134 c 0
 126 -109 109 -73 107 -27 c 1
 173 -27 l 1
 178 -84 213 -112 277 -112 c 0
 308 -112 333 -104 351 -88 c 0
 369 -72 378 -49 378 -19 c 0
 378 27 352 58 299 73 c 2
 228 93 l 2
 146 116 105 171 105 257 c 0xe4
 105 292 114 322 132 347 c 0
 150 372 173 391 200 404 c 1
 144 429 116 470 116 527 c 0
 116 571 131 607 161 634 c 0
 191 661 230 675 277 675 c 0
 324 675 363 662 393 636 c 0
 423 610 439 576 441 533 c 1
 376 533 l 1
 372 588 338 616 275 616 c 0
 212 616 180 586 180 527 c 0xd8
 180 484 205 455 255 441 c 2
 326 421 l 2
 365 410 395 390 417 361 c 1
EndSplineSet
Substitution2: "sous-table 'sups' Exposant dans Latin lookup 1" section.superior
Substitution2: "sous-table 'aalt' Activer toutes les variantes dans Latin lookup 0" section.superior
EndChar

StartChar: currency
Encoding: 164 164 103
Width: 627
Flags: MW
HStem: 71 60 410 60 477 20G
VStem: 130 60 470 60<249.5 288.5>
LayerCount: 2
Fore
SplineSet
429 171 m 1
 429 170 l 1
 456 197 470 230 470 269 c 0
 470 308 456 341 429 368 c 0
 402 395 369 409 330 409 c 0
 291 409 258 396 231 369 c 0
 204 342 190 309 190 270 c 0
 190 231 204 198 231 171 c 0
 258 144 291 130 330 130 c 0
 369 130 402 144 429 171 c 1
557 84 m 1
 513 42 l 1
 446 109 l 1
 411 82 372 69 328 69 c 0
 284 69 245 82 210 109 c 1
 144 42 l 1
 102 84 l 1
 169 150 l 1
 142 185 129 225 129 269 c 0
 129 313 142 353 169 388 c 1
 102 453 l 1
 144 495 l 1
 210 429 l 1
 244 455 284 468 329 468 c 0
 374 468 414 455 448 429 c 1
 515 495 l 1
 557 453 l 1
 490 388 l 1
 517 353 530 313 530 269 c 0
 530 225 517 185 490 150 c 1
 557 84 l 1
EndSplineSet
Substitution2: "sous-table 'sups' Exposant dans Latin lookup 1" currency.superior
Substitution2: "sous-table 'aalt' Activer toutes les variantes dans Latin lookup 0" currency.superior
EndChar

StartChar: quotesingle
Encoding: 39 39 104
Width: 242
Flags: MW
HStem: 550 154<92 163 92 163>
VStem: 92 71<550 704>
LayerCount: 2
Fore
SplineSet
163 550 m 1
 92 550 l 1
 92 704 l 1
 163 704 l 1
 163 550 l 1
EndSplineSet
Substitution2: "sous-table 'sups' Exposant dans Latin lookup 1" quotesingle.superior
Substitution2: "sous-table 'aalt' Activer toutes les variantes dans Latin lookup 0" quotesingle.superior
EndChar

StartChar: quotedblleft
Encoding: 8220 8220 105
Width: 412
Flags: MW
HStem: 636 147<101 179 101 179 179 254 179 333>
VStem: 101 78<636 712 712 712> 254 79<636 712 712 712>
LayerCount: 2
Fore
SplineSet
179 636 m 1
 101 636 l 1
 101 712 l 1
 179 783 l 1
 179 636 l 1
333 636 m 1
 254 636 l 1
 254 712 l 1
 333 783 l 1
 333 636 l 1
EndSplineSet
Substitution2: "sous-table 'sups' Exposant dans Latin lookup 1" quotedblleft.superior
Substitution2: "sous-table 'aalt' Activer toutes les variantes dans Latin lookup 0" quotedblleft.superior
EndChar

StartChar: guillemotleft
Encoding: 171 171 106
Width: 524
Flags: MW
HStem: 79 21G<251 251 454 454> 437 20G<251 251 454 454>
LayerCount: 2
Fore
SplineSet
251 79 m 1
 62 268 l 1
 251 457 l 1
 251 376 l 1
 143 268 l 1
 251 159 l 1
 251 79 l 1
454 79 m 1
 265 268 l 1
 454 457 l 1
 454 376 l 1
 345 268 l 1
 454 159 l 1
 454 79 l 1
EndSplineSet
Substitution2: "sous-table 'sups' Exposant dans Latin lookup 1" guillemotleft.superior
Substitution2: "sous-table 'aalt' Activer toutes les variantes dans Latin lookup 0" guillemotleft.superior
EndChar

StartChar: guilsinglleft
Encoding: 8249 8249 107
Width: 309
Flags: MW
VStem: 50 190<79 268>
LayerCount: 2
Fore
SplineSet
240 79 m 1
 50 268 l 1
 240 457 l 1
 240 376 l 1
 132 268 l 1
 240 159 l 1
 240 79 l 1
EndSplineSet
Substitution2: "sous-table 'sups' Exposant dans Latin lookup 1" guilsinglleft.superior
Substitution2: "sous-table 'aalt' Activer toutes les variantes dans Latin lookup 0" guilsinglleft.superior
EndChar

StartChar: guilsinglright
Encoding: 8250 8250 108
Width: 313
Flags: MW
VStem: 88 190<79 268 159 268 268 457 268 457>
LayerCount: 2
Fore
SplineSet
278 268 m 1
 88 79 l 1
 88 159 l 1
 197 268 l 1
 88 376 l 1
 88 457 l 1
 278 268 l 1
EndSplineSet
Substitution2: "sous-table 'sups' Exposant dans Latin lookup 1" guilsinglright.superior
Substitution2: "sous-table 'aalt' Activer toutes les variantes dans Latin lookup 0" guilsinglright.superior
EndChar

StartChar: fi
Encoding: 61441 61441 109
Width: 531
Flags: MW
HStem: 36 21G<119 184 119 119 384 384 384 449> 426 50<63 119 63 119 185 280> 611 66<379 453 379 453> 622 56<233 245 245 280>
VStem: 120 65 385 65
LayerCount: 2
Fore
SplineSet
280 426 m 1xdc
 184 426 l 1
 184 36 l 1
 119 36 l 1
 119 426 l 1
 63 426 l 1
 63 476 l 1
 119 476 l 1
 119 560 l 2
 119 595 129 623 149 645 c 0
 169 667 197 678 233 678 c 2
 280 678 l 1
 280 622 l 1
 245 622 l 2
 205 622 185 601 185 558 c 2
 185 476 l 1
 280 476 l 1
 280 426 l 1xdc
449 36 m 1
 384 36 l 1
 384 476 l 1
 449 476 l 1
 449 36 l 1
453 611 m 1xec
 379 611 l 1
 379 677 l 1
 453 677 l 1
 453 611 l 1xec
EndSplineSet
Substitution2: "sous-table 'sups' Exposant dans Latin lookup 1" fi.superior
Substitution2: "sous-table 'aalt' Activer toutes les variantes dans Latin lookup 0" fi.superior
EndChar

StartChar: fl
Encoding: 61442 61442 110
Width: 572
Flags: MW
HStem: 36 56<479.5 545 509 545 509 545> 426 50<68 124 68 124 190 285> 622 56<238 249 249 285>
VStem: 125 65 386 65
LayerCount: 2
Fore
SplineSet
285 426 m 1
 189 426 l 1
 189 36 l 1
 124 36 l 1
 124 426 l 1
 68 426 l 1
 68 476 l 1
 124 476 l 1
 124 560 l 2
 124 595 134 623 154 645 c 0
 174 667 202 678 238 678 c 2
 285 678 l 1
 285 622 l 1
 249 622 l 2
 210 622 190 601 190 558 c 2
 190 476 l 1
 285 476 l 1
 285 426 l 1
545 36 m 1
 498 36 l 2
 461 36 433 47 414 68 c 0
 395 89 385 118 385 154 c 2
 385 676 l 1
 450 676 l 1
 450 156 l 2
 450 113 470 92 509 92 c 2
 545 92 l 1
 545 36 l 1
EndSplineSet
Substitution2: "sous-table 'sups' Exposant dans Latin lookup 1" fl.superior
Substitution2: "sous-table 'aalt' Activer toutes les variantes dans Latin lookup 0" fl.superior
EndChar

StartChar: endash
Encoding: 8211 8211 111
Width: 495
Flags: MW
HStem: 239 61<73 449 73 449>
LayerCount: 2
Fore
SplineSet
449 239 m 1
 73 239 l 1
 73 300 l 1
 449 300 l 1
 449 239 l 1
EndSplineSet
Substitution2: "sous-table 'sups' Exposant dans Latin lookup 1" endash.superior
Substitution2: "sous-table 'aalt' Activer toutes les variantes dans Latin lookup 0" endash.superior
EndChar

StartChar: dagger
Encoding: 8224 8224 112
Width: 574
Flags: MW
HStem: 36 21G<269 334 269 269> 436 58<97 269 97 269 334 508> 656 20G<269 334 334 334>
VStem: 269 65<36 436 36 436 494 676>
LayerCount: 2
Fore
SplineSet
508 436 m 1
 334 436 l 1
 334 36 l 1
 269 36 l 1
 269 436 l 1
 97 436 l 1
 97 494 l 1
 269 494 l 1
 269 676 l 1
 334 676 l 1
 334 494 l 1
 508 494 l 1
 508 436 l 1
EndSplineSet
Substitution2: "sous-table 'sups' Exposant dans Latin lookup 1" dagger.superior
Substitution2: "sous-table 'aalt' Activer toutes les variantes dans Latin lookup 0" dagger.superior
EndChar

StartChar: daggerdbl
Encoding: 8225 8225 113
Width: 574
Flags: MW
HStem: -173 21G<269 334 269 269> 10 58<97 269 97 269 334 508> 425 58<97 269 97 269 334 508>
VStem: 269 65<-173 10 -173 10 68 425 483 665>
LayerCount: 2
Fore
SplineSet
508 10 m 1
 334 10 l 1
 334 -173 l 1
 269 -173 l 1
 269 10 l 1
 97 10 l 1
 97 68 l 1
 269 68 l 1
 269 425 l 1
 97 425 l 1
 97 483 l 1
 269 483 l 1
 269 665 l 1
 334 665 l 1
 334 483 l 1
 508 483 l 1
 508 425 l 1
 334 425 l 1
 334 68 l 1
 508 68 l 1
 508 10 l 1
EndSplineSet
Substitution2: "sous-table 'sups' Exposant dans Latin lookup 1" daggerdbl.superior
Substitution2: "sous-table 'aalt' Activer toutes les variantes dans Latin lookup 0" daggerdbl.superior
EndChar

StartChar: periodcentered
Encoding: 183 183 114
AltUni2: 002219.ffffffff.0
Width: 256
Flags: MW
HStem: 228 84<165 230 146 249>
VStem: 146 103<228 312>
LayerCount: 2
Fore
SplineSet
230 228 m 1
 146 228 l 1
 165 312 l 1
 249 312 l 1
 230 228 l 1
EndSplineSet
Substitution2: "sous-table 'sups' Exposant dans Latin lookup 1" periodcentered.superior
Substitution2: "sous-table 'aalt' Activer toutes les variantes dans Latin lookup 0" periodcentered.superior
EndChar

StartChar: paragraph
Encoding: 182 182 115
Width: 569
Flags: MW
HStem: -173 21G<477 477> 604 61
VStem: 65 242 242 65 412 65
LayerCount: 2
Fore
SplineSet
477 -173 m 1xe8
 410 -174 l 1
 410 603 l 1
 305 603 l 1
 305 -174 l 1
 240 -174 l 1
 240 317 l 1xd8
 188 317 146 334 113 369 c 0
 80 404 64 445 64 493 c 0
 64 541 82 582 117 615 c 0
 152 648 200 665 260 665 c 2
 477 665 l 1
 477 -173 l 1xe8
EndSplineSet
Substitution2: "sous-table 'sups' Exposant dans Latin lookup 1" paragraph.superior
Substitution2: "sous-table 'aalt' Activer toutes les variantes dans Latin lookup 0" paragraph.superior
EndChar

StartChar: bullet
Encoding: 8226 8226 116
Width: 505
Flags: MW
HStem: 187 294
VStem: 119 294
LayerCount: 2
Fore
SplineSet
370 438 m 1
 368 436 l 1
 397 407 411 373 411 333 c 0
 411 293 397 258 368 229 c 0
 339 200 305 186 265 186 c 0
 225 186 190 201 161 230 c 0
 132 259 118 294 118 334 c 0
 118 374 133 409 162 438 c 0
 191 467 226 481 266 481 c 0
 306 481 341 467 370 438 c 1
EndSplineSet
Substitution2: "sous-table 'sups' Exposant dans Latin lookup 1" bullet.superior
Substitution2: "sous-table 'aalt' Activer toutes les variantes dans Latin lookup 0" bullet.superior
EndChar

StartChar: quotesinglbase
Encoding: 8218 8218 117
Width: 249
Flags: MW
HStem: -71 147<92 171>
VStem: 92 79<0 0 0 76 0 76>
LayerCount: 2
Fore
SplineSet
171 0 m 1
 92 -71 l 1
 92 76 l 1
 171 76 l 1
 171 0 l 1
EndSplineSet
Substitution2: "sous-table 'sups' Exposant dans Latin lookup 1" quotesinglbase.superior
Substitution2: "sous-table 'aalt' Activer toutes les variantes dans Latin lookup 0" quotesinglbase.superior
EndChar

StartChar: quotedblbase
Encoding: 8222 8222 118
Width: 412
Flags: MW
HStem: -71 147<101 179 101 254>
VStem: 101 78<0 0 0 76 0 76> 254 79<0 0 0 76 0 76>
LayerCount: 2
Fore
SplineSet
179 0 m 1
 101 -71 l 1
 101 76 l 1
 179 76 l 1
 179 0 l 1
333 0 m 1
 254 -71 l 1
 254 76 l 1
 333 76 l 1
 333 0 l 1
EndSplineSet
Substitution2: "sous-table 'sups' Exposant dans Latin lookup 1" quotedblbase.superior
Substitution2: "sous-table 'aalt' Activer toutes les variantes dans Latin lookup 0" quotedblbase.superior
EndChar

StartChar: quotedblright
Encoding: 8221 8221 119
Width: 412
Flags: MW
HStem: 557 147<101 179 101 254>
VStem: 101 78<628 628 628 704 628 704> 254 79<628 628 628 704 628 704>
LayerCount: 2
Fore
SplineSet
179 628 m 1
 101 557 l 1
 101 704 l 1
 179 704 l 1
 179 628 l 1
333 628 m 1
 254 557 l 1
 254 704 l 1
 333 704 l 1
 333 628 l 1
EndSplineSet
Substitution2: "sous-table 'sups' Exposant dans Latin lookup 1" quotedblright.superior
Substitution2: "sous-table 'aalt' Activer toutes les variantes dans Latin lookup 0" quotedblright.superior
EndChar

StartChar: guillemotright
Encoding: 187 187 120
Width: 528
Flags: MW
HStem: 79 21G<100 100 303 303> 437 20G<100 100 303 303>
LayerCount: 2
Fore
SplineSet
289 268 m 1
 100 79 l 1
 100 159 l 1
 209 268 l 1
 100 376 l 1
 100 457 l 1
 289 268 l 1
492 268 m 1
 303 79 l 1
 303 159 l 1
 411 268 l 1
 303 376 l 1
 303 457 l 1
 492 268 l 1
EndSplineSet
Substitution2: "sous-table 'sups' Exposant dans Latin lookup 1" guillemotright.superior
Substitution2: "sous-table 'aalt' Activer toutes les variantes dans Latin lookup 0" guillemotright.superior
EndChar

StartChar: ellipsis
Encoding: 8230 8230 121
Width: 719
Flags: MW
HStem: 5 82<117 200 117 200 337 419 557 640>
VStem: 117 83<5 87 5 87> 337 82<5 87> 557 83<5 87 5 87>
LayerCount: 2
Fore
SplineSet
200 5 m 1
 117 5 l 1
 117 87 l 1
 200 87 l 1
 200 5 l 1
419 5 m 1
 337 5 l 1
 337 87 l 1
 419 87 l 1
 419 5 l 1
640 5 m 1
 557 5 l 1
 557 87 l 1
 640 87 l 1
 640 5 l 1
EndSplineSet
Substitution2: "sous-table 'sups' Exposant dans Latin lookup 1" ellipsis.superior
Substitution2: "sous-table 'aalt' Activer toutes les variantes dans Latin lookup 0" ellipsis.superior
EndChar

StartChar: perthousand
Encoding: 8240 8240 122
Width: 1120
Flags: MW
HStem: 29 45 36 21G 322 45 346 45<219.5 254.5> 638 45 656 20G
VStem: 118 51 309 51 508 51 700 51 820 51 1011 51
LayerCount: 2
Fore
SplineSet
309 468 m 2x1bf0
 309 559 l 2
 309 612 286 638 239 638 c 0
 192 638 169 612 169 559 c 2
 169 468 l 2
 169 417 192 391 239 391 c 0
 286 391 309 417 309 468 c 2x1bf0
700 153 m 1
 698 244 l 1
 698 296 675 322 628 322 c 0
 581 322 558 296 558 244 c 2
 558 153 l 2
 558 100 582 74 629 74 c 0xa3f0
 676 74 700 100 700 153 c 1
1009 153 m 2
 1009 244 l 2
 1009 296 986 322 939 322 c 0
 892 322 869 296 869 244 c 2
 869 153 l 2
 869 100 892 74 939 74 c 0
 986 74 1009 100 1009 153 c 2
358 467 m 1
 358 466 l 2
 358 430 347 401 324 379 c 0
 301 357 272 346 237 346 c 0
 202 346 173 357 150 379 c 0
 127 401 116 430 116 466 c 2
 116 560 l 2
 116 597 127 627 150 649 c 0
 173 671 202 682 237 682 c 0x1bf0
 272 682 301 671 324 649 c 0
 347 627 358 598 358 561 c 2
 358 467 l 1
610 675 m 1x47f0
 309 35 l 1
 255 35 l 1
 556 675 l 1
 610 675 l 1x47f0
749 150 m 1
 749 148 l 2
 749 111 738 82 715 60 c 0
 692 38 663 27 627 27 c 0
 591 27 562 38 539 60 c 0
 516 82 505 112 505 149 c 2
 505 243 l 2
 505 280 516 310 539 332 c 0
 562 354 591 365 627 365 c 0xa3f0
 663 365 692 354 715 332 c 0
 738 310 749 281 749 244 c 2
 749 150 l 1
1060 148 m 1
 1060 146 l 2
 1060 109 1049 80 1026 58 c 0
 1003 36 974 25 939 25 c 0
 904 25 875 36 852 58 c 0
 829 80 818 110 818 147 c 2
 818 241 l 2
 818 278 829 308 852 330 c 0
 875 352 904 363 939 363 c 0
 974 363 1003 352 1026 330 c 0
 1049 308 1060 279 1060 242 c 2
 1060 148 l 1
EndSplineSet
Substitution2: "sous-table 'sups' Exposant dans Latin lookup 1" perthousand.superior
Substitution2: "sous-table 'aalt' Activer toutes les variantes dans Latin lookup 0" perthousand.superior
EndChar

StartChar: questiondown
Encoding: 191 191 123
Width: 470
Flags: MW
HStem: -190 58 380 76
VStem: 65 65 190 76 337 65<-40 -25>
LayerCount: 2
Fore
SplineSet
402 -25 m 1
 399 -23 l 1
 399 -70 383 -109 351 -141 c 0
 319 -173 279 -189 231 -189 c 0
 183 -189 143 -173 111 -142 c 0
 79 -111 63 -72 63 -25 c 0
 63 7 77 43 104 83 c 2
 178 189 l 2
 189 204 194 221 194 240 c 2
 194 276 l 1
 259 276 l 1
 259 239 l 2
 259 210 249 182 230 155 c 2
 157 50 l 2
 138 22 128 -5 128 -31 c 0
 128 -57 138 -80 158 -101 c 0
 178 -122 203 -132 234 -132 c 0
 265 -132 290 -122 309 -101 c 0
 328 -80 337 -55 337 -25 c 1
 402 -25 l 1
263 382 m 1
 187 382 l 1
 187 458 l 1
 263 458 l 1
 263 382 l 1
EndSplineSet
Substitution2: "sous-table 'sups' Exposant dans Latin lookup 1" questiondown.superior
Substitution2: "sous-table 'aalt' Activer toutes les variantes dans Latin lookup 0" questiondown.superior
EndChar

StartChar: grave
Encoding: 96 96 124
Width: 471
Flags: MW
HStem: 602 137<210 211 134 290 210 210>
VStem: 134 156<602 739>
LayerCount: 2
Fore
SplineSet
290 602 m 1
 210 602 l 1
 134 739 l 1
 211 739 l 1
 290 602 l 1
EndSplineSet
Substitution2: "sous-table 'sups' Exposant dans Latin lookup 1" grave.superior
Substitution2: "sous-table 'aalt' Activer toutes les variantes dans Latin lookup 0" grave.superior
EndChar

StartChar: acute
Encoding: 180 180 125
Width: 478
Flags: MW
HStem: 602 137<210 366 210 366>
VStem: 210 156<602 739>
LayerCount: 2
Fore
SplineSet
366 739 m 1
 269 602 l 1
 210 602 l 1
 289 739 l 1
 366 739 l 1
EndSplineSet
Substitution2: "sous-table 'sups' Exposant dans Latin lookup 1" acute.superior
Substitution2: "sous-table 'aalt' Activer toutes les variantes dans Latin lookup 0" acute.superior
EndChar

StartChar: circumflex
Encoding: 710 710 126
Width: 475
Flags: MW
HStem: 602 137<107 281 107 281 219 393 219 331>
VStem: 107 286<602 602>
LayerCount: 2
Fore
SplineSet
393 602 m 1
 331 602 l 1
 250 695 l 1
 169 602 l 1
 107 602 l 1
 219 739 l 1
 281 739 l 1
 393 602 l 1
EndSplineSet
Substitution2: "sous-table 'sups' Exposant dans Latin lookup 1" circumflex.superior
Substitution2: "sous-table 'aalt' Activer toutes les variantes dans Latin lookup 0" circumflex.superior
EndChar

StartChar: tilde
Encoding: 732 732 127
Width: 474
Flags: MW
HStem: 613 49<299.5 314.5 299.5 321> 653 49<180 194>
VStem: 105 286
LayerCount: 2
Fore
SplineSet
391 659 m 1xa0
 390 659 l 1
 359 628 332 613 310 613 c 0xa0
 288 613 265 620 242 633 c 0
 219 646 201 653 187 653 c 0
 173 653 156 643 137 624 c 1
 104 656 l 1
 135 687 162 702 185 702 c 0x60
 208 702 230 695 252 682 c 0
 274 669 292 662 307 662 c 0
 322 662 339 672 358 691 c 1
 391 659 l 1xa0
EndSplineSet
Substitution2: "sous-table 'sups' Exposant dans Latin lookup 1" tilde.superior
Substitution2: "sous-table 'aalt' Activer toutes les variantes dans Latin lookup 0" tilde.superior
EndChar

StartChar: macron
Encoding: 175 175 128
AltUni2: 0002c9.ffffffff.0
Width: 475
Flags: MW
HStem: 617 51<268 528 256 540>
VStem: 256 284<617 668>
LayerCount: 2
Fore
SplineSet
528 617 m 1
 256 617 l 1
 268 668 l 1
 540 668 l 1
 528 617 l 1
EndSplineSet
Substitution2: "sous-table 'sups' Exposant dans Latin lookup 1" macron.superior
Substitution2: "sous-table 'aalt' Activer toutes les variantes dans Latin lookup 0" macron.superior
EndChar

StartChar: breve
Encoding: 728 728 129
Width: 475
Flags: MW
HStem: 595 51<222 280 222 295>
VStem: 102 52 349 49<720 720>
LayerCount: 2
Fore
SplineSet
398 720 m 1
 397 720 l 1
 390 637 341 595 249 595 c 0
 157 595 108 637 101 720 c 1
 153 720 l 1
 160 671 193 646 251 646 c 0
 309 646 342 671 349 720 c 1
 398 720 l 1
EndSplineSet
Substitution2: "sous-table 'sups' Exposant dans Latin lookup 1" breve.superior
Substitution2: "sous-table 'aalt' Activer toutes les variantes dans Latin lookup 0" breve.superior
EndChar

StartChar: dotaccent
Encoding: 729 729 130
Width: 475
Flags: MW
HStem: 638 66<214 286 214 286>
VStem: 214 72<638 704 638 704>
LayerCount: 2
Fore
SplineSet
286 638 m 1
 214 638 l 1
 214 704 l 1
 286 704 l 1
 286 638 l 1
EndSplineSet
Substitution2: "sous-table 'sups' Exposant dans Latin lookup 1" dotaccent.superior
Substitution2: "sous-table 'aalt' Activer toutes les variantes dans Latin lookup 0" dotaccent.superior
EndChar

StartChar: dieresis
Encoding: 168 168 131
Width: 475
Flags: MW
HStem: 606 81<122 187 122 187 313 378>
VStem: 122 65<606 687> 313 65<606 687>
LayerCount: 2
Fore
SplineSet
187 606 m 1
 122 606 l 1
 122 687 l 1
 187 687 l 1
 187 606 l 1
378 606 m 1
 313 606 l 1
 313 687 l 1
 378 687 l 1
 378 606 l 1
EndSplineSet
Substitution2: "sous-table 'sups' Exposant dans Latin lookup 1" dieresis.superior
Substitution2: "sous-table 'aalt' Activer toutes les variantes dans Latin lookup 0" dieresis.superior
EndChar

StartChar: ring
Encoding: 730 730 132
Width: 475
Flags: MW
HStem: 580 45 748 45
VStem: 144 44<677.5 694.5 677.5 700.5> 312 44<670.5 687 670.5 694.5>
LayerCount: 2
Fore
SplineSet
312 687 m 2
 312 686 l 2
 312 703 306 717 294 729 c 0
 282 741 267 747 250 747 c 0
 233 747 218 741 206 729 c 0
 194 717 188 703 188 686 c 0
 188 669 194 655 206 643 c 0
 218 631 233 625 250 625 c 0
 267 625 282 631 294 643 c 0
 306 655 312 670 312 687 c 2
356 686 m 2
 356 685 l 2
 356 656 346 631 325 610 c 0
 304 589 279 579 250 579 c 0
 221 579 196 590 175 611 c 0
 154 632 144 657 144 686 c 0
 144 715 154 740 175 761 c 0
 196 782 221 792 250 792 c 0
 279 792 304 782 325 761 c 0
 346 740 356 715 356 686 c 2
EndSplineSet
Substitution2: "sous-table 'sups' Exposant dans Latin lookup 1" ring.superior
Substitution2: "sous-table 'aalt' Activer toutes les variantes dans Latin lookup 0" ring.superior
EndChar

StartChar: cedilla
Encoding: 184 184 133
Width: 474
Flags: MW
HStem: -209 135<246 253 182 306>
VStem: 182 124
LayerCount: 2
Fore
SplineSet
306 -74 m 1
 253 -209 l 1
 182 -209 l 1
 246 -74 l 1
 306 -74 l 1
EndSplineSet
Substitution2: "sous-table 'sups' Exposant dans Latin lookup 1" cedilla.superior
Substitution2: "sous-table 'aalt' Activer toutes les variantes dans Latin lookup 0" cedilla.superior
EndChar

StartChar: hungarumlaut
Encoding: 733 733 134
Width: 477
Flags: MW
HStem: 602 137<127 283 127 283 274 274 274 283 207 332>
VStem: 127 303<602 739>
LayerCount: 2
Fore
SplineSet
283 739 m 1
 186 602 l 1
 127 602 l 1
 207 739 l 1
 283 739 l 1
430 739 m 1
 332 602 l 1
 274 602 l 1
 354 739 l 1
 430 739 l 1
EndSplineSet
Substitution2: "sous-table 'sups' Exposant dans Latin lookup 1" hungarumlaut.superior
Substitution2: "sous-table 'aalt' Activer toutes les variantes dans Latin lookup 0" hungarumlaut.superior
EndChar

StartChar: ogonek
Encoding: 731 731 135
Width: 475
Flags: MW
HStem: -209 135<246 252 193 316 246 246>
VStem: 193 123
LayerCount: 2
Fore
SplineSet
316 -209 m 1
 246 -209 l 1
 193 -74 l 1
 252 -74 l 1
 316 -209 l 1
EndSplineSet
Substitution2: "sous-table 'sups' Exposant dans Latin lookup 1" ogonek.superior
Substitution2: "sous-table 'aalt' Activer toutes les variantes dans Latin lookup 0" ogonek.superior
EndChar

StartChar: caron
Encoding: 711 711 136
Width: 475
Flags: MW
HStem: 602 137<107 281 107 219>
VStem: 107 286<739 739>
LayerCount: 2
Fore
SplineSet
393 739 m 1
 281 602 l 1
 219 602 l 1
 107 739 l 1
 169 739 l 1
 250 645 l 1
 331 739 l 1
 393 739 l 1
EndSplineSet
Substitution2: "sous-table 'sups' Exposant dans Latin lookup 1" caron.superior
Substitution2: "sous-table 'aalt' Activer toutes les variantes dans Latin lookup 0" caron.superior
EndChar

StartChar: emdash
Encoding: 8212 8212 137
Width: 868
Flags: MW
HStem: 239 62<114 800 114 800>
LayerCount: 2
Fore
SplineSet
800 239 m 1
 114 239 l 1
 114 301 l 1
 800 301 l 1
 800 239 l 1
EndSplineSet
Substitution2: "sous-table 'sups' Exposant dans Latin lookup 1" emdash.superior
Substitution2: "sous-table 'aalt' Activer toutes les variantes dans Latin lookup 0" emdash.superior
EndChar

StartChar: AE
Encoding: 198 198 138
Width: 873
Flags: MW
HStem: 36 61<495 824 495 824> 207 59<242 427 242 427 212 427> 320 62<495 775 495 775> 615 61<427 427 495 495 495 824>
VStem: 427 68<97 207 207 207 266 320 382 615>
LayerCount: 2
Fore
SplineSet
427 266 m 1
 427 615 l 1
 242 266 l 1
 427 266 l 1
824 36 m 1
 427 36 l 1
 427 207 l 1
 212 207 l 1
 126 36 l 1
 51 36 l 1
 389 676 l 1
 824 676 l 1
 824 615 l 1
 495 615 l 1
 495 382 l 1
 775 382 l 1
 775 320 l 1
 495 320 l 1
 495 97 l 1
 824 97 l 1
 824 36 l 1
EndSplineSet
Substitution2: "sous-table 'sups' Exposant dans Latin lookup 1" AE.superior
Substitution2: "sous-table 'aalt' Activer toutes les variantes dans Latin lookup 0" AE.superior
EndChar

StartChar: ordfeminine
Encoding: 170 170 139
Width: 425
Flags: MW
HStem: 334 47 500 40<192 200 200 295 192 296> 648 48<188.5 237>
VStem: 71 54 296 54<341 373 373 373 464 500 500 500>
LayerCount: 2
Fore
SplineSet
296 464 m 2
 296 500 l 1
 200 500 l 2
 150 500 125 480 125 439 c 0
 125 400 151 381 202 381 c 0
 238 381 263 388 276 401 c 0
 289 414 296 435 296 464 c 2
350 339 m 1
 296 341 l 1
 296 373 l 1
 271 348 237 336 194 336 c 0
 151 336 120 346 100 366 c 0
 80 386 70 411 70 441 c 0
 70 471 81 495 102 513 c 0
 123 531 153 540 192 540 c 2
 295 540 l 1
 295 573 l 2
 295 623 266 648 208 648 c 0
 169 648 140 635 121 609 c 1
 84 642 l 1
 112 678 154 696 210 696 c 0
 303 696 350 656 350 577 c 2
 350 339 l 1
EndSplineSet
Substitution2: "sous-table 'sups' Exposant dans Latin lookup 1" ordfeminine.superior
Substitution2: "sous-table 'aalt' Activer toutes les variantes dans Latin lookup 0" ordfeminine.superior
EndChar

StartChar: Lslash
Encoding: 321 321 140
Width: 553
Flags: MW
HStem: 36 61<200 526 200 526> 467 20G<338 338> 656 20G<130 200 200 200>
VStem: 130 70<97 296 296 296 399 676>
LayerCount: 2
Fore
SplineSet
526 36 m 1
 130 36 l 1
 130 296 l 1
 65 254 l 1
 65 315 l 1
 130 356 l 1
 130 676 l 1
 200 676 l 1
 200 399 l 1
 338 487 l 1
 338 428 l 1
 200 340 l 1
 200 97 l 1
 526 97 l 1
 526 36 l 1
EndSplineSet
Substitution2: "sous-table 'sups' Exposant dans Latin lookup 1" Lslash.superior
Substitution2: "sous-table 'aalt' Activer toutes les variantes dans Latin lookup 0" Lslash.superior
EndChar

StartChar: Oslash
Encoding: 216 216 141
Width: 619
Flags: MW
HStem: 30 61 621 61
VStem: 101 68 480 69
LayerCount: 2
Fore
SplineSet
411 594 m 1
 413 592 l 1
 386 610 357 619 326 619 c 0
 282 619 245 604 215 573 c 0
 196 553 184 529 178 501 c 0
 172 473 169 426 169 360 c 0
 169 294 171 247 175 220 c 0
 179 193 188 171 201 154 c 1
 411 594 l 1
438 135 m 1
 437 135 l 1
 456 155 468 179 473 207 c 0
 478 235 481 282 481 349 c 0
 481 416 479 463 475 490 c 0
 471 517 463 539 450 556 c 1
 240 116 l 1
 267 98 296 89 327 89 c 0
 371 89 408 104 438 135 c 1
550 354 m 0
 550 275 547 219 541 186 c 0
 535 153 518 123 491 96 c 0
 446 51 391 29 326 29 c 0
 284 29 246 39 213 58 c 1
 183 -5 l 1
 124 -5 l 1
 169 89 l 1
 162 96 l 2
 135 123 118 153 112 186 c 0
 106 219 103 275 103 354 c 0
 103 433 106 489 112 522 c 0
 118 555 135 585 162 612 c 0
 207 657 262 679 327 679 c 0
 369 679 407 670 440 651 c 1
 470 713 l 1
 529 713 l 1
 484 619 l 1
 491 612 l 2
 518 585 535 555 541 522 c 0
 547 489 550 433 550 354 c 0
EndSplineSet
Substitution2: "sous-table 'sups' Exposant dans Latin lookup 1" Oslash.superior
Substitution2: "sous-table 'aalt' Activer toutes les variantes dans Latin lookup 0" Oslash.superior
EndChar

StartChar: OE
Encoding: 338 338 142
Width: 940
Flags: MW
HStem: 30 61 330 58 621 61
VStem: 119 68 498 69<211 356 386 389.5>
LayerCount: 2
Fore
SplineSet
498 356 m 2
 498 354 l 2
 498 425 495 474 490 502 c 0
 485 530 473 554 454 574 c 0
 424 605 387 620 343 620 c 0
 299 620 262 605 232 574 c 0
 213 554 201 530 196 502 c 0
 191 474 188 425 188 355 c 0
 188 285 191 236 196 208 c 0
 201 180 213 156 232 136 c 0
 262 105 299 90 343 90 c 0
 387 90 424 105 454 136 c 0
 473 156 485 180 490 208 c 0
 495 236 498 285 498 356 c 2
890 34 m 1
 498 34 l 1
 498 100 l 1
 459 52 407 28 343 28 c 0
 279 28 225 50 180 95 c 0
 153 122 136 156 129 196 c 0
 124 223 121 276 121 354 c 0
 121 432 124 485 129 512 c 0
 136 552 153 586 180 613 c 0
 225 658 280 680 344 680 c 0
 408 680 460 656 499 608 c 1
 499 674 l 1
 889 674 l 1
 889 614 l 1
 567 614 l 1
 567 591 567 553 567 500 c 0
 567 447 567 409 567 386 c 1
 841 386 l 1
 841 328 l 1
 567 328 l 1
 567 211 l 1
 566 157 566 118 566 94 c 1
 890 94 l 1
 890 34 l 1
EndSplineSet
Substitution2: "sous-table 'sups' Exposant dans Latin lookup 1" OE.superior
Substitution2: "sous-table 'aalt' Activer toutes les variantes dans Latin lookup 0" OE.superior
EndChar

StartChar: ordmasculine
Encoding: 186 186 143
Width: 432
Flags: MW
HStem: 335 48<214.5 239.5 214.5 242.5> 647 49
VStem: 83 54 318 53
LayerCount: 2
Fore
SplineSet
291 410 m 1
 289 410 l 1
 307 428 316 463 316 515 c 0
 316 567 307 602 289 620 c 0
 271 638 250 647 225 647 c 0
 200 647 179 638 162 621 c 0
 145 604 136 569 136 516 c 0
 136 463 145 428 163 410 c 0
 181 392 202 383 227 383 c 0
 252 383 273 392 291 410 c 1
369 515 m 1
 365 515 l 1
 365 451 351 405 324 377 c 0
 297 349 263 335 222 335 c 0
 181 335 147 349 120 377 c 0
 93 405 79 451 79 515 c 0
 79 579 93 625 121 653 c 0
 149 681 183 695 224 695 c 0
 265 695 299 681 327 653 c 0
 355 625 369 579 369 515 c 1
EndSplineSet
Substitution2: "sous-table 'sups' Exposant dans Latin lookup 1" ordmasculine.superior
Substitution2: "sous-table 'aalt' Activer toutes les variantes dans Latin lookup 0" ordmasculine.superior
EndChar

StartChar: ae
Encoding: 230 230 144
Width: 792
Flags: MW
HStem: 36 56 246 49 434 56
VStem: 87 63 373 64<198 295 246 295 295 295 295 334 295 366.5>
LayerCount: 2
Fore
SplineSet
373 198 m 2
 373 246 l 1
 249 246 l 2
 183 246 150 220 150 168 c 0
 150 117 184 92 252 92 c 0
 297 92 330 102 351 122 c 0
 366 136 373 161 373 198 c 2
672 295 m 1
 671 294 l 1
 669 325 665 349 658 367 c 0
 639 412 605 434 555 434 c 0
 505 434 471 412 452 367 c 0
 443 348 438 324 437 295 c 1
 672 295 l 1
736 245 m 1
 435 243 l 1
 435 194 447 156 470 129 c 0
 493 102 526 89 568 89 c 0
 610 89 648 106 682 139 c 1
 727 101 l 1
 681 55 626 32 563 32 c 0
 490 32 438 58 407 109 c 1
 387 80 365 60 340 49 c 0
 315 38 283 32 244 32 c 0
 187 32 146 45 122 70 c 0
 98 95 86 127 86 165 c 0
 86 203 99 234 126 257 c 0
 153 280 191 292 240 292 c 2
 373 292 l 1
 373 334 l 2
 373 399 335 431 260 431 c 0
 209 431 172 414 148 381 c 1
 104 421 l 1
 123 446 145 463 169 473 c 0
 193 483 224 488 261 488 c 0
 340 488 392 465 416 419 c 1
 447 465 492 488 551 488 c 0
 610 488 656 469 688 431 c 0
 720 393 736 341 736 275 c 2
 736 245 l 1
EndSplineSet
Substitution2: "sous-table 'sups' Exposant dans Latin lookup 1" ae.superior
Substitution2: "sous-table 'aalt' Activer toutes les variantes dans Latin lookup 0" ae.superior
EndChar

StartChar: dotlessi
Encoding: 305 305 145
Width: 240
Flags: MW
HStem: 25 21G<94 158 94 94>
VStem: 94 64<25 467>
LayerCount: 2
Fore
SplineSet
158 25 m 1
 94 25 l 1
 94 467 l 1
 158 467 l 1
 158 25 l 1
EndSplineSet
Substitution2: "sous-table 'sups' Exposant dans Latin lookup 1" dotlessi.superior
Substitution2: "sous-table 'aalt' Activer toutes les variantes dans Latin lookup 0" dotlessi.superior
EndChar

StartChar: lslash
Encoding: 322 322 146
Width: 299
Flags: MW
HStem: 36 55<199.5 266 230 266 230 266> 464 20G<243 243> 656 20G<106 171 171 171>
VStem: 106 65<154 156 156 343 343 343 439 676>
LayerCount: 2
Fore
SplineSet
266 36 m 1
 218 36 l 2
 181 36 153 47 134 68 c 0
 115 89 106 118 106 154 c 2
 106 343 l 1
 49 308 l 1
 49 364 l 1
 106 399 l 1
 106 676 l 1
 171 676 l 1
 171 439 l 1
 243 484 l 1
 243 428 l 1
 171 383 l 1
 171 156 l 2
 171 113 191 91 230 91 c 2
 266 91 l 1
 266 36 l 1
EndSplineSet
Substitution2: "sous-table 'sups' Exposant dans Latin lookup 1" lslash.superior
Substitution2: "sous-table 'aalt' Activer toutes les variantes dans Latin lookup 0" lslash.superior
EndChar

StartChar: oslash
Encoding: 248 248 147
Width: 503
Flags: MW
HStem: 33 58 429 58
VStem: 84 65<238.5 299.5 238.5 302.5> 381 65<221 283>
LayerCount: 2
Fore
SplineSet
330 410 m 1
 331 410 l 1
 313 423 290 429 261 429 c 0
 232 429 206 418 183 395 c 0
 160 372 149 330 149 269 c 0
 149 208 156 165 171 140 c 1
 330 410 l 1
349 124 m 1
 348 126 l 1
 370 148 381 190 381 252 c 0
 381 314 374 357 360 380 c 1
 200 111 l 1
 219 98 243 91 272 91 c 0
 301 91 327 102 349 124 c 1
394 437 m 1
 394 435 l 1
 429 399 446 341 446 260 c 0
 446 179 429 121 394 86 c 0
 359 51 316 34 265 34 c 0
 230 34 198 42 170 59 c 1
 136 0 l 1
 85 0 l 1
 136 86 l 1
 101 122 84 181 84 262 c 0
 84 343 101 401 136 436 c 0
 171 471 214 489 265 489 c 0
 300 489 332 481 360 464 c 1
 395 523 l 1
 445 523 l 1
 394 437 l 1
EndSplineSet
Substitution2: "sous-table 'sups' Exposant dans Latin lookup 1" oslash.superior
Substitution2: "sous-table 'aalt' Activer toutes les variantes dans Latin lookup 0" oslash.superior
EndChar

StartChar: oe
Encoding: 339 339 148
Width: 818
Flags: MW
HStem: 27 58 237 49 423 58
VStem: 101 65 398 64<254 288 288 288 288 290> 697 64<240 289 240 289>
LayerCount: 2
Fore
SplineSet
398 254 m 2
 398 256 l 2
 398 324 387 369 364 391 c 0
 341 413 314 424 282 424 c 0
 250 424 223 413 200 390 c 0
 177 367 166 322 166 255 c 0
 166 188 177 143 200 120 c 0
 223 97 250 86 282 86 c 0
 314 86 341 97 364 119 c 0
 387 141 398 186 398 254 c 2
697 288 m 1
 697 289 l 1
 696 318 691 342 682 361 c 0
 663 406 629 428 579 428 c 0
 529 428 495 406 476 361 c 0
 469 343 464 319 462 288 c 1
 697 288 l 1
761 240 m 1
 463 239 l 1
 463 190 474 152 497 125 c 0
 520 98 553 85 596 85 c 0
 639 85 677 102 710 135 c 1
 754 97 l 1
 730 73 706 56 682 45 c 0
 658 34 628 29 592 29 c 0
 518 29 465 58 433 115 c 1
 404 58 354 29 283 29 c 0
 231 29 189 46 156 80 c 0
 120 116 102 175 102 256 c 0
 102 337 120 396 156 432 c 0
 189 466 231 483 283 483 c 0
 354 483 404 454 433 397 c 1
 464 454 513 483 580 483 c 0
 637 483 681 464 713 426 c 0
 745 388 761 336 761 270 c 2
 761 240 l 1
EndSplineSet
Substitution2: "sous-table 'sups' Exposant dans Latin lookup 1" oe.superior
Substitution2: "sous-table 'aalt' Activer toutes les variantes dans Latin lookup 0" oe.superior
EndChar

StartChar: germandbls
Encoding: 223 223 149
Width: 529
Flags: MW
HStem: 36 56<290 326 326 336.5 290 338 290 326> 397 54 626 57
VStem: 110 65 400 64
LayerCount: 2
Fore
SplineSet
464 163 m 1
 466 163 l 1
 466 122 454 91 431 69 c 0
 408 47 377 36 338 36 c 2
 290 36 l 1
 290 92 l 1
 326 92 l 2
 347 92 365 98 380 110 c 0
 395 122 403 142 403 170 c 2
 403 322 l 2
 403 347 397 366 384 379 c 0
 371 392 353 398 330 398 c 2
 290 398 l 1
 290 452 l 1
 322 452 l 2
 345 452 364 459 379 474 c 0
 394 489 402 510 402 536 c 0
 402 562 393 584 374 601 c 0
 355 618 327 627 289 627 c 0
 214 627 177 587 177 506 c 2
 177 37 l 1
 112 37 l 1
 112 509 l 2
 112 564 128 607 160 638 c 0
 192 669 235 684 288 684 c 0
 341 684 384 671 416 646 c 0
 448 621 464 584 464 536 c 0
 464 488 445 452 408 428 c 1
 429 416 444 402 452 386 c 0
 460 370 464 348 464 319 c 2
 464 163 l 1
EndSplineSet
Substitution2: "sous-table 'sups' Exposant dans Latin lookup 1" germandbls.superior
Substitution2: "sous-table 'aalt' Activer toutes les variantes dans Latin lookup 0" germandbls.superior
EndChar

StartChar: brokenbar
Encoding: 166 166 151
Width: 317
Flags: MW
VStem: 131 64<-31 284 428 743>
LayerCount: 2
Fore
SplineSet
195 -31 m 1
 131 -31 l 1
 131 284 l 1
 195 284 l 1
 195 -31 l 1
195 428 m 1
 131 428 l 1
 131 743 l 1
 195 743 l 1
 195 428 l 1
EndSplineSet
Substitution2: "sous-table 'sups' Exposant dans Latin lookup 1" brokenbar.superior
Substitution2: "sous-table 'aalt' Activer toutes les variantes dans Latin lookup 0" brokenbar.superior
EndChar

StartChar: copyright
Encoding: 169 169 152
Width: 836
Flags: HMW
HStem: 30 49 173 45 495 45 633 49
VStem: 114 53 284 51 714 52<355 393>
LayerCount: 2
Fore
SplineSet
319 220 m 1
 318 219 l 1
 353 188 394 172 441 172 c 0
 488 172 526 190 554 225 c 1
 582 257 596 300 596 355 c 0
 596 410 582 454 554 488 c 1
 526 519.419 489 529.322 442 539 c 1
 395 539 354 523 318 491 c 1
 350 459 l 1
 377 482 406 494 437 494 c 0
 510 494 546 448 546 356 c 0
 546 264 510 218 437 218 c 0
 406 218 377 229 351 252 c 1
 319 220 l 1
715 355 m 1
 714 355 l 1
 714 431 687 496 633 550 c 0
 579 604 515 631 440 631 c 0
 365 631 301 604 248 550 c 0
 195 496 168 431 168 355 c 0
 168 279 195 214 248 160 c 0
 301 106 365 79 440 79 c 0
 515 79 580 106 634 160 c 0
 688 214 715 279 715 355 c 1
766 355 m 0
 766 265 734 188 670 124 c 0
 606 60 529 28 439 28 c 0
 349 28 272 60 208 124 c 0
 144 188 112 265 112 355 c 0
 112 445 144 522 208 586 c 0
 272 650 349 682 439 682 c 0
 529 682 606 650 670 586 c 0
 734 522 766 445 766 355 c 0
EndSplineSet
Substitution2: "sous-table 'sups' Exposant dans Latin lookup 1" copyright.superior
Substitution2: "sous-table 'aalt' Activer toutes les variantes dans Latin lookup 0" copyright.superior
EndChar

StartChar: logicalnot
Encoding: 172 172 153
Width: 495
Flags: MW
HStem: 236 61<72 390 72 450>
VStem: 390 60<113 236 236 236>
LayerCount: 2
Fore
SplineSet
450 113 m 1
 390 113 l 1
 390 236 l 1
 72 236 l 1
 72 297 l 1
 450 297 l 1
 450 113 l 1
EndSplineSet
Substitution2: "sous-table 'sups' Exposant dans Latin lookup 1" logicalnot.superior
Substitution2: "sous-table 'aalt' Activer toutes les variantes dans Latin lookup 0" logicalnot.superior
EndChar

StartChar: minus
Encoding: 173 173 154
AltUni2: 002212.ffffffff.0
Width: 495
Flags: MW
HStem: 239 61<142 504 128 518>
LayerCount: 2
Fore
SplineSet
504 239 m 1
 128 239 l 1
 142 300 l 1
 518 300 l 1
 504 239 l 1
EndSplineSet
Substitution2: "sous-table 'sups' Exposant dans Latin lookup 1" minus.superior
Substitution2: "sous-table 'aalt' Activer toutes les variantes dans Latin lookup 0" minus.superior
EndChar

StartChar: registered
Encoding: 174 174 155
Width: 836
Flags: MW
HStem: 30 48 324 42 491 44 634 48
VStem: 114 52 334 49<177 323 177 534> 517 51<427 428 427 436> 714 52
LayerCount: 2
Fore
SplineSet
517 428 m 2
 517 427 l 2
 517 445 511 460 499 472 c 0
 487 484 471 490 451 490 c 2
 384 490 l 1
 384 365 l 1
 451 365 l 2
 471 365 487 371 499 383 c 0
 511 395 517 410 517 428 c 2
577 177 m 1
 519 177 l 1
 437 323 l 1
 383 323 l 1
 383 177 l 1
 334 177 l 1
 334 534 l 1
 455 534 l 2
 486 534 513 524 535 503 c 0
 557 482 568 457 568 427 c 0
 568 377 542 344 491 329 c 1
 577 177 l 1
714 355 m 1
 712 353 l 1
 712 430 685 496 631 550 c 0
 577 604 513 631 438 631 c 0
 363 631 299 604 245 550 c 0
 191 496 164 431 164 354 c 0
 164 277 191 212 245 158 c 0
 299 104 364 77 439 77 c 0
 514 77 579 104 633 158 c 0
 687 212 714 278 714 355 c 1
764 353 m 0
 764 263 732 186 668 122 c 0
 604 58 527 26 437 26 c 0
 347 26 270 58 206 122 c 0
 142 186 110 263 110 353 c 0
 110 443 142 520 206 584 c 0
 270 648 347 680 437 680 c 0
 527 680 604 648 668 584 c 0
 732 520 764 443 764 353 c 0
EndSplineSet
Substitution2: "sous-table 'sups' Exposant dans Latin lookup 1" registered.superior
Substitution2: "sous-table 'aalt' Activer toutes les variantes dans Latin lookup 0" registered.superior
EndChar

StartChar: degree
Encoding: 176 176 156
Width: 439
Flags: MW
HStem: 409 53 652 53<217.5 244.5>
VStem: 83 55 325 55<557 570.5>
LayerCount: 2
Fore
SplineSet
325 557 m 0
 325 584 316 607 298 625 c 0
 280 643 258 652 231 652 c 0
 204 652 182 643 164 625 c 0
 146 607 137 584 137 557 c 0
 137 530 146 507 164 489 c 0
 182 471 204 462 231 462 c 0
 258 462 280 471 298 489 c 0
 316 507 325 530 325 557 c 0
380 557 m 1
 379 555 l 1
 379 514 365 479 336 450 c 0
 307 421 272 407 231 407 c 0
 190 407 155 422 126 451 c 0
 97 480 82 515 82 556 c 0
 82 597 97 632 126 661 c 0
 155 690 190 705 231 705 c 0
 272 705 307 691 336 662 c 0
 365 633 380 598 380 557 c 1
EndSplineSet
Substitution2: "sous-table 'sups' Exposant dans Latin lookup 1" degree.superior
Substitution2: "sous-table 'aalt' Activer toutes les variantes dans Latin lookup 0" degree.superior
EndChar

StartChar: plusminus
Encoding: 177 177 157
Width: 495
Flags: MW
HStem: 27 60<73 449 73 449> 287 60<73 231 73 231 292 449>
VStem: 231 61<127 287 127 287 347 504>
LayerCount: 2
Fore
SplineSet
449 27 m 1
 73 27 l 1
 73 87 l 1
 449 87 l 1
 449 27 l 1
449 287 m 1
 292 287 l 1
 292 127 l 1
 231 127 l 1
 231 287 l 1
 73 287 l 1
 73 347 l 1
 231 347 l 1
 231 504 l 1
 292 504 l 1
 292 347 l 1
 449 347 l 1
 449 287 l 1
EndSplineSet
Substitution2: "sous-table 'sups' Exposant dans Latin lookup 1" plusminus.superior
Substitution2: "sous-table 'aalt' Activer toutes les variantes dans Latin lookup 0" plusminus.superior
EndChar

StartChar: two.superior
Encoding: 178 178 158
Width: 341
Flags: MW
HStem: 440 45<116 304 116 304> 833 44<170.5 193.5>
VStem: 59 48 256 48<751 769>
LayerCount: 2
Fore
SplineSet
304 440 m 1
 58 440 l 1
 58 479 l 1
 231 693 l 2
 248 714 256 736 256 758 c 0
 256 780 249 798 236 812 c 0
 223 826 205 833 182 833 c 0
 159 833 141 827 127 815 c 0
 113 803 106 784 106 758 c 1
 58 758 l 1
 58 793 69 822 92 844 c 0
 115 866 145 877 182 877 c 0
 219 877 249 867 271 846 c 0
 293 825 304 799 304 767 c 0
 304 735 292 705 269 676 c 2
 116 485 l 1
 304 485 l 1
 304 440 l 1
EndSplineSet
Substitution2: "sous-table 'sups' Exposant dans Latin lookup 1" two.superior.superior
Substitution2: "sous-table 'aalt' Activer toutes les variantes dans Latin lookup 0" two.superior.superior
EndChar

StartChar: three.superior
Encoding: 179 179 159
Width: 343
Flags: MW
HStem: 436 44 628 44 833 45
VStem: 42 49 250 48 258 49
LayerCount: 2
Fore
SplineSet
307 558 m 1xf4
 302 559 l 1
 302 521 290 491 266 469 c 0
 242 447 211 436 173 436 c 0
 135 436 105 447 82 468 c 1
 55 487 40 515 38 551 c 1
 87 551 l 1
 88 527 97 509 113 497 c 0
 129 485 149 479 173 479 c 0
 197 479 217 486 233 500 c 0
 249 514 257 533 257 557 c 0xf4
 257 603 229 626 172 626 c 2
 163 626 l 1
 163 670 l 1
 171 670 l 2
 223 670 249 699 249 756 c 0
 249 780 242 799 228 812 c 0
 214 825 196 832 174 832 c 0
 152 832 134 826 120 814 c 0
 106 802 98 785 96 764 c 1
 47 764 l 1
 50 799 63 827 86 848 c 0
 109 869 139 879 175 879 c 0
 211 879 240 868 263 846 c 0
 286 824 298 796 298 761 c 0xf8
 298 707 277 671 235 654 c 1
 283 637 307 605 307 558 c 1xf4
EndSplineSet
Substitution2: "sous-table 'sups' Exposant dans Latin lookup 1" three.superior.superior
Substitution2: "sous-table 'aalt' Activer toutes les variantes dans Latin lookup 0" three.superior.superior
EndChar

StartChar: mu
Encoding: 181 181 160
AltUni2: 0003bc.ffffffff.0
Width: 532
Flags: MW
HStem: 14 52
LayerCount: 2
Fore
SplineSet
455 14 m 1
 389 15 l 1
 400 64 l 1
 360 27 314 9 263 9 c 0
 223 9 194 20 175 43 c 1
 123 -183 l 1
 58 -183 l 1
 206 457 l 1
 271 457 l 1
 208 185 l 2
 190 106 217 67 290 67 c 0
 324 67 353 77 378 97 c 0
 403 117 420 146 429 184 c 2
 492 456 l 1
 557 456 l 1
 455 14 l 1
EndSplineSet
Substitution2: "sous-table 'sups' Exposant dans Latin lookup 1" mu.superior
Substitution2: "sous-table 'aalt' Activer toutes les variantes dans Latin lookup 0" mu.superior
EndChar

StartChar: one.superior
Encoding: 185 185 161
Width: 333
Flags: MW
VStem: 170 49<438 816 816 816>
LayerCount: 2
Fore
SplineSet
219 438 m 1
 170 438 l 1
 170 816 l 1
 70 732 l 1
 70 781 l 1
 174 871 l 1
 219 871 l 1
 219 438 l 1
EndSplineSet
Substitution2: "sous-table 'sups' Exposant dans Latin lookup 1" one.superior.superior
Substitution2: "sous-table 'aalt' Activer toutes les variantes dans Latin lookup 0" one.superior.superior
EndChar

StartChar: onequarter
Encoding: 188 188 162
Width: 738
Flags: MW
HStem: 36 21G<195 249 195 195 610 610 610 660> 93 48<512 610 455 455 660 702> 656 20G<152 204 204 204 494 548 548 548>
VStem: 152 52<292 619 619 619> 610 50<36 93 36 93 141 235>
LayerCount: 2
Fore
SplineSet
204 292 m 1
 152 292 l 1
 152 619 l 1
 78 553 l 1
 78 612 l 1
 152 676 l 1
 204 676 l 1
 204 292 l 1
548 676 m 1
 249 36 l 1
 195 36 l 1
 494 676 l 1
 548 676 l 1
702 93 m 1
 660 93 l 1
 660 36 l 1
 610 36 l 1
 610 93 l 1
 455 93 l 1
 455 141 l 1
 591 420 l 1
 646 420 l 1
 512 141 l 1
 610 141 l 1
 610 235 l 1
 660 235 l 1
 660 141 l 1
 702 141 l 1
 702 93 l 1
EndSplineSet
Substitution2: "sous-table 'sups' Exposant dans Latin lookup 1" onequarter.superior
Substitution2: "sous-table 'aalt' Activer toutes les variantes dans Latin lookup 0" onequarter.superior
EndChar

StartChar: onehalf
Encoding: 189 189 163
Width: 750
Flags: MW
HStem: 36 46<549 707> 377 47 656 20G<153 204 204 204 484 538 538 538>
VStem: 153 51<292 619 619 619> 486 52 655 52
LayerCount: 2
Fore
SplineSet
204 292 m 1
 153 292 l 1
 153 619 l 1
 78 553 l 1
 78 612 l 1
 153 676 l 1
 204 676 l 1
 204 292 l 1
538 676 m 1
 238 36 l 1
 184 36 l 1
 484 676 l 1
 538 676 l 1
707 36 m 1
 484 35 l 1
 484 81 l 1
 632 263 l 2
 646 280 653 297 653 315 c 0
 653 356 634 376 595 376 c 0
 556 376 537 356 537 315 c 1
 485 315 l 1
 485 348 495 374 516 394 c 0
 537 414 564 424 597 424 c 0
 630 424 657 414 677 394 c 0
 697 374 707 350 707 321 c 0
 707 292 695 263 672 234 c 2
 549 82 l 1
 707 82 l 1
 707 36 l 1
EndSplineSet
Substitution2: "sous-table 'sups' Exposant dans Latin lookup 1" onehalf.superior
Substitution2: "sous-table 'aalt' Activer toutes les variantes dans Latin lookup 0" onehalf.superior
EndChar

StartChar: threequarters
Encoding: 190 190 164
Width: 781
Flags: MW
HStem: 36 21G<242 296 242 242 651 651 651 701> 93 48<552 651 496 496 701 743> 288 47<184.5 211.5 181 217.5> 466 45 633 47
VStem: 85 52 261 51 267 52 653 50
LayerCount: 2
Fore
SplineSet
319 400 m 1xfd80
 317 400 l 1
 317 365 306 338 284 318 c 0
 262 298 234 288 201 288 c 0
 168 288 140 297 118 315 c 0
 96 333 85 360 84 395 c 1
 136 395 l 1
 138 355 160 335 202 335 c 0
 221 335 236 341 248 353 c 0
 260 365 266 381 266 401 c 0xfd80
 266 445 244 467 199 467 c 2
 191 467 l 1
 191 512 l 1
 199 512 l 2
 240 512 260 532 260 573 c 0
 260 592 254 607 243 618 c 0
 232 629 218 634 201 634 c 0
 164 634 144 615 141 578 c 1
 90 578 l 1
 92 609 104 634 125 653 c 0
 146 672 172 681 203 681 c 0
 234 681 260 671 281 651 c 0
 302 631 312 603 312 567 c 0xfe80
 312 531 296 505 264 490 c 1
 301 475 319 445 319 400 c 1xfd80
597 677 m 1
 296 36 l 1
 242 36 l 1
 543 677 l 1
 597 677 l 1
743 93 m 1
 701 93 l 1
 701 36 l 1
 651 36 l 1
 651 93 l 1
 496 93 l 1
 496 141 l 1
 632 420 l 1
 688 420 l 1
 552 141 l 1
 651 141 l 1
 651 236 l 1
 701 236 l 1
 701 141 l 1
 743 141 l 1
 743 93 l 1
EndSplineSet
Substitution2: "sous-table 'sups' Exposant dans Latin lookup 1" threequarters.superior
Substitution2: "sous-table 'aalt' Activer toutes les variantes dans Latin lookup 0" threequarters.superior
EndChar

StartChar: Agrave
Encoding: 192 192 165
Width: 580
Flags: MW
HStem: 36 21G<41 118 41 41 492 570 492 492> 244 59<204 406 204 423 187 406> 656 20G<277 335 335 335>
LayerCount: 2
Fore
SplineSet
406 303 m 1
 307 578 l 1
 204 303 l 1
 406 303 l 1
570 36 m 1
 492 36 l 1
 423 244 l 1
 187 244 l 1
 118 36 l 1
 41 36 l 1
 277 676 l 1
 335 676 l 1
 570 36 l 1
337 770 m 1
 257 770 l 1
 181 907 l 1
 258 907 l 1
 337 770 l 1
EndSplineSet
Substitution2: "sous-table 'sups' Exposant dans Latin lookup 1" Agrave.superior
Substitution2: "sous-table 'aalt' Activer toutes les variantes dans Latin lookup 0" Agrave.superior
EndChar

StartChar: Aacute
Encoding: 193 193 166
Width: 580
Flags: HMW
HStem: 36 21G<41 118 41 41 492 570 492 492> 244 59<204 406 204 423 187 406> 656 20G<277 335 335 335>
LayerCount: 2
Fore
SplineSet
429 907 m 5
 354 770 l 5
 273 770 l 5
 352 907 l 5
 429 907 l 5
406 303 m 1
 307 578 l 1
 204 303 l 1
 406 303 l 1
570 36 m 1
 492 36 l 1
 423 244 l 1
 187 244 l 1
 118 36 l 1
 41 36 l 1
 277 676 l 1
 335 676 l 1
 570 36 l 1
EndSplineSet
Substitution2: "sous-table 'sups' Exposant dans Latin lookup 1" Aacute.superior
Substitution2: "sous-table 'aalt' Activer toutes les variantes dans Latin lookup 0" Aacute.superior
EndChar

StartChar: Acircumflex
Encoding: 194 194 167
Width: 580
Flags: MW
HStem: 36 21G<41 118 41 41 492 570 492 492> 244 59<204 406 204 423 187 406> 656 20G<277 335 335 335>
LayerCount: 2
Fore
SplineSet
406 303 m 1
 307 578 l 1
 204 303 l 1
 406 303 l 1
570 36 m 1
 492 36 l 1
 423 244 l 1
 187 244 l 1
 118 36 l 1
 41 36 l 1
 277 676 l 1
 335 676 l 1
 570 36 l 1
440 770 m 1
 378 770 l 1
 297 863 l 1
 216 770 l 1
 154 770 l 1
 266 907 l 1
 328 907 l 1
 440 770 l 1
EndSplineSet
Substitution2: "sous-table 'sups' Exposant dans Latin lookup 1" Acircumflex.superior
Substitution2: "sous-table 'aalt' Activer toutes les variantes dans Latin lookup 0" Acircumflex.superior
EndChar

StartChar: Atilde
Encoding: 195 195 168
Width: 580
Flags: MW
HStem: 36 21G<41 118 41 41 492 570 492 492> 244 59<204 406 204 423 187 406> 656 20G<277 335 335 335> 781 49<346.5 361.5 346.5 368> 821 49<227 241>
LayerCount: 2
Fore
SplineSet
406 303 m 1xe0
 307 578 l 1
 204 303 l 1
 406 303 l 1xe0
570 36 m 1
 492 36 l 1
 423 244 l 1
 187 244 l 1
 118 36 l 1
 41 36 l 1
 277 676 l 1
 335 676 l 1
 570 36 l 1
438 827 m 1
 437 827 l 1
 406 796 379 781 357 781 c 0xf0
 335 781 312 788 289 801 c 0
 266 814 248 821 234 821 c 0
 220 821 203 811 184 792 c 1
 151 824 l 1
 182 855 209 870 232 870 c 0xe8
 255 870 277 863 299 850 c 0
 321 837 339 830 354 830 c 0xf0
 369 830 386 840 405 859 c 1
 438 827 l 1
EndSplineSet
Substitution2: "sous-table 'sups' Exposant dans Latin lookup 1" Atilde.superior
Substitution2: "sous-table 'aalt' Activer toutes les variantes dans Latin lookup 0" Atilde.superior
EndChar

StartChar: Adieresis
Encoding: 196 196 169
Width: 580
Flags: MW
HStem: 36 21G<41 118 41 41 492 570 492 492> 244 59<204 406 204 423 187 406> 656 20G<277 335 335 335> 774 81<169 234 169 234 360 425>
VStem: 169 65<774 855> 360 65<774 855>
LayerCount: 2
Fore
SplineSet
406 303 m 1
 307 578 l 1
 204 303 l 1
 406 303 l 1
570 36 m 1
 492 36 l 1
 423 244 l 1
 187 244 l 1
 118 36 l 1
 41 36 l 1
 277 676 l 1
 335 676 l 1
 570 36 l 1
234 774 m 1
 169 774 l 1
 169 855 l 1
 234 855 l 1
 234 774 l 1
425 774 m 1
 360 774 l 1
 360 855 l 1
 425 855 l 1
 425 774 l 1
EndSplineSet
Substitution2: "sous-table 'sups' Exposant dans Latin lookup 1" Adieresis.superior
Substitution2: "sous-table 'aalt' Activer toutes les variantes dans Latin lookup 0" Adieresis.superior
EndChar

StartChar: Aring
Encoding: 197 197 170
Width: 580
Flags: MW
HStem: 36 21G<41 118 41 41 492 570 492 492> 244 59<204 406 204 423 187 406> 656 20G<277 335 335 335> 742 45 910 45
VStem: 191 44<839.5 856.5 839.5 862.5> 359 44<832.5 849 832.5 856.5>
LayerCount: 2
Fore
SplineSet
406 303 m 1
 307 578 l 1
 204 303 l 1
 406 303 l 1
570 36 m 1
 492 36 l 1
 423 244 l 1
 187 244 l 1
 118 36 l 1
 41 36 l 1
 277 676 l 1
 335 676 l 1
 570 36 l 1
359 849 m 2
 359 848 l 2
 359 865 353 879 341 891 c 0
 329 903 314 909 297 909 c 0
 280 909 265 903 253 891 c 0
 241 879 235 865 235 848 c 0
 235 831 241 817 253 805 c 0
 265 793 280 787 297 787 c 0
 314 787 329 793 341 805 c 0
 353 817 359 832 359 849 c 2
403 848 m 2
 403 847 l 2
 403 818 393 793 372 772 c 0
 351 751 326 741 297 741 c 0
 268 741 243 752 222 773 c 0
 201 794 191 819 191 848 c 0
 191 877 201 902 222 923 c 0
 243 944 268 954 297 954 c 0
 326 954 351 944 372 923 c 0
 393 902 403 877 403 848 c 2
EndSplineSet
Substitution2: "sous-table 'sups' Exposant dans Latin lookup 1" Aring.superior
Substitution2: "sous-table 'aalt' Activer toutes les variantes dans Latin lookup 0" Aring.superior
EndChar

StartChar: Ccedilla
Encoding: 199 199 171
Width: 605
Flags: MW
HStem: 30 61 621 61
VStem: 101 68<321 391 321 395.5>
LayerCount: 2
Fore
SplineSet
545 214 m 1
 547 212 l 1
 537 153 512 108 472 76 c 0
 432 44 382 28 321 28 c 0
 260 28 207 50 162 95 c 0
 133 124 116 155 110 188 c 0
 104 221 101 277 101 356 c 0
 101 435 104 491 110 524 c 0
 116 557 133 587 160 614 c 0
 205 659 258 681 319 681 c 0
 436 681 512 620 546 498 c 1
 476 498 l 1
 462 537 443 567 419 588 c 0
 395 609 362 620 320 620 c 0
 278 620 242 605 213 575 c 0
 194 555 182 531 177 503 c 0
 172 475 169 426 169 356 c 0
 169 286 172 237 177 209 c 0
 182 181 194 157 213 137 c 0
 242 107 278 92 320 92 c 0
 362 92 396 103 423 124 c 0
 450 145 468 175 477 214 c 1
 545 214 l 1
359 -76 m 1
 306 -211 l 1
 235 -211 l 1
 299 -76 l 1
 359 -76 l 1
EndSplineSet
Substitution2: "sous-table 'sups' Exposant dans Latin lookup 1" Ccedilla.superior
Substitution2: "sous-table 'aalt' Activer toutes les variantes dans Latin lookup 0" Ccedilla.superior
EndChar

StartChar: Egrave
Encoding: 200 200 172
Width: 572
Flags: MW
HStem: 36 61<194 523 194 523> 319 61<194 474 194 474> 615 61<194 523 194 194>
VStem: 125 69<97 319 380 615>
LayerCount: 2
Fore
SplineSet
523 36 m 1
 125 36 l 1
 125 676 l 1
 523 676 l 1
 523 615 l 1
 194 615 l 1
 194 380 l 1
 474 380 l 1
 474 319 l 1
 194 319 l 1
 194 97 l 1
 523 97 l 1
 523 36 l 1
347 770 m 1
 267 770 l 1
 191 907 l 1
 268 907 l 1
 347 770 l 1
EndSplineSet
Substitution2: "sous-table 'sups' Exposant dans Latin lookup 1" Egrave.superior
Substitution2: "sous-table 'aalt' Activer toutes les variantes dans Latin lookup 0" Egrave.superior
EndChar

StartChar: Eacute
Encoding: 201 201 173
Width: 572
Flags: HMW
HStem: 36 61<194 523 194 523> 319 61<194 474 194 474> 615 61<194 523 194 194>
VStem: 125 69<97 319 380 615>
LayerCount: 2
Fore
SplineSet
446 907 m 5
 371 770 l 5
 290 770 l 5
 369 907 l 5
 446 907 l 5
523 36 m 1
 125 36 l 1
 125 676 l 1
 523 676 l 1
 523 615 l 1
 194 615 l 1
 194 380 l 1
 474 380 l 1
 474 319 l 1
 194 319 l 1
 194 97 l 1
 523 97 l 1
 523 36 l 1
EndSplineSet
Substitution2: "sous-table 'sups' Exposant dans Latin lookup 1" Eacute.superior
Substitution2: "sous-table 'aalt' Activer toutes les variantes dans Latin lookup 0" Eacute.superior
EndChar

StartChar: Ecircumflex
Encoding: 202 202 174
Width: 572
Flags: MW
HStem: 36 61<194 523 194 523> 319 61<194 474 194 474> 615 61<194 523 194 194>
VStem: 125 69<97 319 380 615>
LayerCount: 2
Fore
SplineSet
523 36 m 1
 125 36 l 1
 125 676 l 1
 523 676 l 1
 523 615 l 1
 194 615 l 1
 194 380 l 1
 474 380 l 1
 474 319 l 1
 194 319 l 1
 194 97 l 1
 523 97 l 1
 523 36 l 1
450 770 m 1
 388 770 l 1
 307 863 l 1
 226 770 l 1
 164 770 l 1
 276 907 l 1
 338 907 l 1
 450 770 l 1
EndSplineSet
Substitution2: "sous-table 'sups' Exposant dans Latin lookup 1" Ecircumflex.superior
Substitution2: "sous-table 'aalt' Activer toutes les variantes dans Latin lookup 0" Ecircumflex.superior
EndChar

StartChar: Edieresis
Encoding: 203 203 175
Width: 572
Flags: MW
HStem: 36 61<194 523 194 523> 319 61<194 474 194 474> 615 61<194 523 194 194> 774 81<179 244 179 244 370 435>
VStem: 125 69<97 319 380 615> 179 65<774 855> 370 65<774 855>
LayerCount: 2
Fore
SplineSet
523 36 m 1xfa
 125 36 l 1
 125 676 l 1
 523 676 l 1
 523 615 l 1
 194 615 l 1
 194 380 l 1
 474 380 l 1
 474 319 l 1
 194 319 l 1
 194 97 l 1
 523 97 l 1
 523 36 l 1xfa
244 774 m 1xf6
 179 774 l 1
 179 855 l 1
 244 855 l 1
 244 774 l 1xf6
435 774 m 1
 370 774 l 1
 370 855 l 1
 435 855 l 1
 435 774 l 1
EndSplineSet
Substitution2: "sous-table 'sups' Exposant dans Latin lookup 1" Edieresis.superior
Substitution2: "sous-table 'aalt' Activer toutes les variantes dans Latin lookup 0" Edieresis.superior
EndChar

StartChar: Igrave
Encoding: 204 204 176
Width: 265
Flags: MW
HStem: 36 21G<107 175 107 107> 656 20G<107 175 175 175>
VStem: 107 68<36 676>
LayerCount: 2
Fore
SplineSet
175 36 m 1
 107 36 l 1
 107 676 l 1
 175 676 l 1
 175 36 l 1
205 770 m 1
 125 770 l 1
 49 907 l 1
 126 907 l 1
 205 770 l 1
EndSplineSet
Substitution2: "sous-table 'sups' Exposant dans Latin lookup 1" Igrave.superior
Substitution2: "sous-table 'aalt' Activer toutes les variantes dans Latin lookup 0" Igrave.superior
EndChar

StartChar: Iacute
Encoding: 205 205 177
Width: 270
Flags: HMW
HStem: 36 21G<107 175 107 107> 656 20G<107 175 175 175>
VStem: 107 68<36 676>
LayerCount: 2
Fore
SplineSet
252 907 m 1
 177 770 l 1
 96 770 l 1
 175 907 l 1
 252 907 l 1
175 36 m 1
 107 36 l 1
 107 676 l 1
 175 676 l 1
 175 36 l 1
EndSplineSet
Substitution2: "sous-table 'sups' Exposant dans Latin lookup 1" Iacute.superior
Substitution2: "sous-table 'aalt' Activer toutes les variantes dans Latin lookup 0" Iacute.superior
EndChar

StartChar: Icircumflex
Encoding: 206 206 178
Width: 267
Flags: MW
HStem: 36 21G<107 175 107 107> 656 20G<107 175 175 175>
VStem: 107 68<36 676>
LayerCount: 2
Fore
SplineSet
175 36 m 1
 107 36 l 1
 107 676 l 1
 175 676 l 1
 175 36 l 1
293 770 m 1
 231 770 l 1
 150 863 l 1
 69 770 l 1
 7 770 l 1
 119 907 l 1
 181 907 l 1
 293 770 l 1
EndSplineSet
Substitution2: "sous-table 'sups' Exposant dans Latin lookup 1" Icircumflex.superior
Substitution2: "sous-table 'aalt' Activer toutes les variantes dans Latin lookup 0" Icircumflex.superior
EndChar

StartChar: Idieresis
Encoding: 207 207 179
Width: 267
Flags: MW
HStem: 36 21G<107 175 107 107> 656 20G<107 175 175 175> 774 81<23 88 23 88 214 279>
VStem: 23 65<774 855> 107 68<36 676> 214 65<774 855>
LayerCount: 2
Fore
SplineSet
175 36 m 1
 107 36 l 1
 107 676 l 1
 175 676 l 1
 175 36 l 1
88 774 m 1
 23 774 l 1
 23 855 l 1
 88 855 l 1
 88 774 l 1
279 774 m 1
 214 774 l 1
 214 855 l 1
 279 855 l 1
 279 774 l 1
EndSplineSet
Substitution2: "sous-table 'sups' Exposant dans Latin lookup 1" Idieresis.superior
Substitution2: "sous-table 'aalt' Activer toutes les variantes dans Latin lookup 0" Idieresis.superior
EndChar

StartChar: Eth
Encoding: 208 208 180
Width: 650
Flags: MW
HStem: 36 60 333 53 616 60
VStem: 138 69 514 68
LayerCount: 2
Fore
SplineSet
514 352 m 1
 513 353 l 1
 513 418 511 463 507 487 c 0
 503 511 494 533 480 552 c 0
 449 595 404 617 345 617 c 2
 206 617 l 1
 206 387 l 1
 351 387 l 1
 351 334 l 1
 206 334 l 1
 206 97 l 1
 345 97 l 2
 409 97 456 119 485 163 c 0
 498 182 506 202 509 223 c 0
 512 244 514 287 514 352 c 1
542 581 m 1
 540 579 l 1
 558 552 569 526 573 501 c 0
 577 476 579 430 579 363 c 0
 579 296 578 255 577 240 c 0
 572 195 560 159 541 131 c 0
 496 68 433 37 352 37 c 2
 137 37 l 1
 137 334 l 1
 67 334 l 1
 67 387 l 1
 137 387 l 1
 137 677 l 1
 357 677 l 2
 438 677 500 645 542 581 c 1
EndSplineSet
Substitution2: "sous-table 'sups' Exposant dans Latin lookup 1" Eth.superior
Substitution2: "sous-table 'aalt' Activer toutes les variantes dans Latin lookup 0" Eth.superior
EndChar

StartChar: Ntilde
Encoding: 209 209 181
Width: 695
Flags: MW
HStem: 36 21G<129 198 129 129 538 603 538 538> 656 20G<129 194 194 194 534 603 603 603> 781 49<403.5 418.5 403.5 425> 821 49<284 298>
VStem: 129 69<36 550 36 676> 534 69<164 676>
LayerCount: 2
Fore
SplineSet
603 36 m 1xcc
 538 36 l 1
 198 550 l 1
 198 36 l 1
 129 36 l 1
 129 676 l 1
 194 676 l 1
 534 164 l 1
 534 676 l 1
 603 676 l 1
 603 36 l 1xcc
495 827 m 1
 494 827 l 1
 463 796 436 781 414 781 c 0xec
 392 781 369 788 346 801 c 0
 323 814 305 821 291 821 c 0
 277 821 260 811 241 792 c 1
 208 824 l 1
 239 855 266 870 289 870 c 0xdc
 312 870 334 863 356 850 c 0
 378 837 396 830 411 830 c 0xec
 426 830 443 840 462 859 c 1
 495 827 l 1
EndSplineSet
Substitution2: "sous-table 'sups' Exposant dans Latin lookup 1" Ntilde.superior
Substitution2: "sous-table 'aalt' Activer toutes les variantes dans Latin lookup 0" Ntilde.superior
EndChar

StartChar: Ograve
Encoding: 210 210 182
Width: 617
Flags: MW
HStem: 23 61 625 61
VStem: 101 68 481 68
LayerCount: 2
Fore
SplineSet
436 130 m 1
 434 131 l 1
 453 152 465 177 471 207 c 0
 477 237 480 288 480 360 c 0
 480 432 477 482 471 510 c 0
 465 538 453 561 436 579 c 0
 406 610 369 625 324 625 c 0
 279 625 242 610 213 579 c 0
 195 559 182 533 175 500 c 0
 170 474 168 425 168 353 c 0
 168 281 170 234 175 212 c 0
 184 175 197 148 213 130 c 1
 243 99 280 84 325 84 c 0
 370 84 407 99 436 130 c 1
540 515 m 1
 538 515 l 1
 543 488 545 434 545 354 c 0
 545 274 543 222 538 199 c 0
 527 153 509 117 484 91 c 0
 439 46 384 24 319 24 c 0
 254 24 200 46 157 91 c 0
 130 120 112 156 104 199 c 0
 99 226 97 280 97 360 c 0
 97 440 99 492 104 515 c 0
 113 559 131 594 157 620 c 0
 202 665 257 687 322 687 c 0
 387 687 442 665 487 620 c 0
 515 592 533 557 540 515 c 1
354 771 m 1
 274 771 l 1
 198 908 l 1
 275 908 l 1
 354 771 l 1
EndSplineSet
Substitution2: "sous-table 'sups' Exposant dans Latin lookup 1" Ograve.superior
Substitution2: "sous-table 'aalt' Activer toutes les variantes dans Latin lookup 0" Ograve.superior
EndChar

StartChar: Oacute
Encoding: 211 211 183
Width: 617
Flags: HMW
HStem: 23 61 625 61
VStem: 101 68 481 68
LayerCount: 2
Fore
SplineSet
446 907 m 5
 371 770 l 5
 290 770 l 5
 369 907 l 5
 446 907 l 5
436 130 m 1
 434 131 l 1
 453 152 465 177 471 207 c 0
 477 237 480 288 480 360 c 0
 480 432 477 482 471 510 c 0
 465 538 453 561 436 579 c 0
 406 610 369 625 324 625 c 0
 279 625 242 610 213 579 c 0
 195 559 182 533 175 500 c 0
 170 474 168 425 168 353 c 0
 168 281 170 234 175 212 c 0
 184 175 197 148 213 130 c 1
 243 99 280 84 325 84 c 0
 370 84 407 99 436 130 c 1
540 515 m 1
 538 515 l 1
 543 488 545 434 545 354 c 0
 545 274 543 222 538 199 c 0
 527 153 509 117 484 91 c 0
 439 46 384 24 319 24 c 0
 254 24 200 46 157 91 c 0
 130 120 112 156 104 199 c 0
 99 226 97 280 97 360 c 0
 97 440 99 492 104 515 c 0
 113 559 131 594 157 620 c 0
 202 665 257 687 322 687 c 0
 387 687 442 665 487 620 c 0
 515 592 533 557 540 515 c 1
EndSplineSet
Substitution2: "sous-table 'sups' Exposant dans Latin lookup 1" Oacute.superior
Substitution2: "sous-table 'aalt' Activer toutes les variantes dans Latin lookup 0" Oacute.superior
EndChar

StartChar: Ocircumflex
Encoding: 212 212 184
Width: 617
Flags: MW
HStem: 23 61 625 61
VStem: 101 68 481 68
LayerCount: 2
Fore
SplineSet
436 130 m 1
 434 131 l 1
 453 152 465 177 471 207 c 0
 477 237 480 288 480 360 c 0
 480 432 477 482 471 510 c 0
 465 538 453 561 436 579 c 0
 406 610 369 625 324 625 c 0
 279 625 242 610 213 579 c 0
 195 559 182 533 175 500 c 0
 170 474 168 425 168 353 c 0
 168 281 170 234 175 212 c 0
 184 175 197 148 213 130 c 1
 243 99 280 84 325 84 c 0
 370 84 407 99 436 130 c 1
540 515 m 1
 538 515 l 1
 543 488 545 434 545 354 c 0
 545 274 543 222 538 199 c 0
 527 153 509 117 484 91 c 0
 439 46 384 24 319 24 c 0
 254 24 200 46 157 91 c 0
 130 120 112 156 104 199 c 0
 99 226 97 280 97 360 c 0
 97 440 99 492 104 515 c 0
 113 559 131 594 157 620 c 0
 202 665 257 687 322 687 c 0
 387 687 442 665 487 620 c 0
 515 592 533 557 540 515 c 1
457 771 m 1
 395 771 l 1
 314 864 l 1
 233 771 l 1
 171 771 l 1
 283 908 l 1
 345 908 l 1
 457 771 l 1
EndSplineSet
Substitution2: "sous-table 'sups' Exposant dans Latin lookup 1" Ocircumflex.superior
Substitution2: "sous-table 'aalt' Activer toutes les variantes dans Latin lookup 0" Ocircumflex.superior
EndChar

StartChar: Otilde
Encoding: 213 213 185
Width: 617
Flags: MW
HStem: 23 61 625 61 781 49 821 49
VStem: 101 68 481 68
LayerCount: 2
Fore
SplineSet
436 130 m 1xcc
 434 131 l 1
 453 152 465 177 471 207 c 0
 477 237 480 288 480 360 c 0
 480 432 477 482 471 510 c 0
 465 538 453 561 436 579 c 0
 406 610 369 625 324 625 c 0
 279 625 242 610 213 579 c 0
 195 559 182 533 175 500 c 0
 170 474 168 425 168 353 c 0
 168 281 170 234 175 212 c 0
 184 175 197 148 213 130 c 1
 243 99 280 84 325 84 c 0
 370 84 407 99 436 130 c 1xcc
540 515 m 1
 538 515 l 1
 543 488 545 434 545 354 c 0
 545 274 543 222 538 199 c 0
 527 153 509 117 484 91 c 0
 439 46 384 24 319 24 c 0
 254 24 200 46 157 91 c 0
 130 120 112 156 104 199 c 0
 99 226 97 280 97 360 c 0
 97 440 99 492 104 515 c 0
 113 559 131 594 157 620 c 0
 202 665 257 687 322 687 c 0
 387 687 442 665 487 620 c 0
 515 592 533 557 540 515 c 1
455 828 m 1
 454 828 l 1
 423 797 396 782 374 782 c 0xec
 352 782 329 789 306 802 c 0
 283 815 265 822 251 822 c 0
 237 822 220 812 201 793 c 1
 168 825 l 1
 199 856 226 871 249 871 c 0xdc
 272 871 294 864 316 851 c 0
 338 838 356 831 371 831 c 0xec
 386 831 403 841 422 860 c 1
 455 828 l 1
EndSplineSet
Substitution2: "sous-table 'sups' Exposant dans Latin lookup 1" Otilde.superior
Substitution2: "sous-table 'aalt' Activer toutes les variantes dans Latin lookup 0" Otilde.superior
EndChar

StartChar: Odieresis
Encoding: 214 214 186
Width: 617
Flags: MW
HStem: 23 61 625 61 774 81
VStem: 101 68 190 65 381 65 481 68
LayerCount: 2
Fore
SplineSet
436 130 m 1
 434 131 l 1
 453 152 465 177 471 207 c 0
 477 237 480 288 480 360 c 0
 480 432 477 482 471 510 c 0
 465 538 453 561 436 579 c 0
 406 610 369 625 324 625 c 0
 279 625 242 610 213 579 c 0
 195 559 182 533 175 500 c 0
 170 474 168 425 168 353 c 0
 168 281 170 234 175 212 c 0
 184 175 197 148 213 130 c 1
 243 99 280 84 325 84 c 0
 370 84 407 99 436 130 c 1
540 515 m 1
 538 515 l 1
 543 488 545 434 545 354 c 0
 545 274 543 222 538 199 c 0
 527 153 509 117 484 91 c 0
 439 46 384 24 319 24 c 0
 254 24 200 46 157 91 c 0
 130 120 112 156 104 199 c 0
 99 226 97 280 97 360 c 0
 97 440 99 492 104 515 c 0
 113 559 131 594 157 620 c 0
 202 665 257 687 322 687 c 0
 387 687 442 665 487 620 c 0
 515 592 533 557 540 515 c 1
251 775 m 1
 186 775 l 1
 186 856 l 1
 251 856 l 1
 251 775 l 1
442 775 m 1
 377 775 l 1
 377 856 l 1
 442 856 l 1
 442 775 l 1
EndSplineSet
Substitution2: "sous-table 'sups' Exposant dans Latin lookup 1" Odieresis.superior
Substitution2: "sous-table 'aalt' Activer toutes les variantes dans Latin lookup 0" Odieresis.superior
EndChar

StartChar: multiply
Encoding: 215 215 187
Width: 495
Flags: MW
HStem: 94 21G<125 125 397 397> 426 20G<125 125 397 397>
LayerCount: 2
Fore
SplineSet
437 134 m 1
 397 94 l 1
 261 230 l 1
 125 94 l 1
 85 134 l 1
 220 270 l 1
 85 406 l 1
 125 446 l 1
 261 310 l 1
 397 446 l 1
 437 406 l 1
 301 270 l 1
 437 134 l 1
EndSplineSet
Substitution2: "sous-table 'sups' Exposant dans Latin lookup 1" multiply.superior
Substitution2: "sous-table 'aalt' Activer toutes les variantes dans Latin lookup 0" multiply.superior
EndChar

StartChar: Ugrave
Encoding: 217 217 188
Width: 647
Flags: MW
HStem: 30 61 662 20G<117 185 185 185 497 565 565 565>
VStem: 118 68 497 68<252 682>
LayerCount: 2
Fore
SplineSet
565 247 m 1
 563 247 l 1
 563 183 542 131 500 91 c 0
 458 51 405 31 340 31 c 0
 275 31 222 51 180 91 c 0
 138 131 117 183 117 247 c 2
 117 682 l 1
 185 682 l 1
 185 252 l 2
 185 203 199 164 227 135 c 0
 255 106 293 91 340 91 c 0
 387 91 425 106 454 135 c 0
 483 164 497 203 497 252 c 2
 497 682 l 1
 565 682 l 1
 565 247 l 1
370 770 m 1
 290 770 l 1
 214 907 l 1
 291 907 l 1
 370 770 l 1
EndSplineSet
Substitution2: "sous-table 'sups' Exposant dans Latin lookup 1" Ugrave.superior
Substitution2: "sous-table 'aalt' Activer toutes les variantes dans Latin lookup 0" Ugrave.superior
EndChar

StartChar: Uacute
Encoding: 218 218 189
Width: 647
Flags: HMW
HStem: 30 61 662 20G<117 185 185 185 497 565 565 565>
VStem: 118 68 497 68<252 682>
LayerCount: 2
Fore
SplineSet
565 247 m 1
 563 247 l 1
 563 183 542 131 500 91 c 0
 458 51 405 31 340 31 c 0
 275 31 222 51 180 91 c 0
 138 131 117 183 117 247 c 2
 117 682 l 1
 185 682 l 1
 185 252 l 2
 185 203 199 164 227 135 c 0
 255 106 293 91 340 91 c 0
 387 91 425 106 454 135 c 0
 483 164 497 203 497 252 c 2
 497 682 l 1
 565 682 l 1
 565 247 l 1
446 907 m 5
 371 770 l 5
 290 770 l 5
 369 907 l 5
 446 907 l 5
EndSplineSet
Substitution2: "sous-table 'sups' Exposant dans Latin lookup 1" Uacute.superior
Substitution2: "sous-table 'aalt' Activer toutes les variantes dans Latin lookup 0" Uacute.superior
EndChar

StartChar: Ucircumflex
Encoding: 219 219 190
Width: 647
Flags: MW
HStem: 30 61 662 20G<117 185 185 185 497 565 565 565>
VStem: 118 68 497 68<252 682>
LayerCount: 2
Fore
SplineSet
565 247 m 1
 563 247 l 1
 563 183 542 131 500 91 c 0
 458 51 405 31 340 31 c 0
 275 31 222 51 180 91 c 0
 138 131 117 183 117 247 c 2
 117 682 l 1
 185 682 l 1
 185 252 l 2
 185 203 199 164 227 135 c 0
 255 106 293 91 340 91 c 0
 387 91 425 106 454 135 c 0
 483 164 497 203 497 252 c 2
 497 682 l 1
 565 682 l 1
 565 247 l 1
473 770 m 1
 411 770 l 1
 330 863 l 1
 249 770 l 1
 187 770 l 1
 299 907 l 1
 361 907 l 1
 473 770 l 1
EndSplineSet
Substitution2: "sous-table 'sups' Exposant dans Latin lookup 1" Ucircumflex.superior
Substitution2: "sous-table 'aalt' Activer toutes les variantes dans Latin lookup 0" Ucircumflex.superior
EndChar

StartChar: Udieresis
Encoding: 220 220 191
Width: 647
Flags: MW
HStem: 30 61 662 20G<117 185 185 185 497 565 565 565> 774 81<202 267 202 267 393 458>
VStem: 118 68 204 65 395 65 497 68<252 682>
LayerCount: 2
Fore
SplineSet
565 247 m 1
 563 247 l 1
 563 183 542 131 500 91 c 0
 458 51 405 31 340 31 c 0
 275 31 222 51 180 91 c 0
 138 131 117 183 117 247 c 2
 117 682 l 1
 185 682 l 1
 185 252 l 2
 185 203 199 164 227 135 c 0
 255 106 293 91 340 91 c 0
 387 91 425 106 454 135 c 0
 483 164 497 203 497 252 c 2
 497 682 l 1
 565 682 l 1
 565 247 l 1
267 774 m 1
 202 774 l 1
 202 855 l 1
 267 855 l 1
 267 774 l 1
458 774 m 1
 393 774 l 1
 393 855 l 1
 458 855 l 1
 458 774 l 1
EndSplineSet
Substitution2: "sous-table 'sups' Exposant dans Latin lookup 1" Udieresis.superior
Substitution2: "sous-table 'aalt' Activer toutes les variantes dans Latin lookup 0" Udieresis.superior
EndChar

StartChar: Yacute
Encoding: 221 221 192
Width: 489
Flags: HMW
HStem: 36 21G<224 292 224 224> 656 20G<33 107 107 107 407 481 481 481>
VStem: 224 68<36 320 36 320>
LayerCount: 2
Fore
SplineSet
481 676 m 1
 292 320 l 1
 292 36 l 1
 224 36 l 1
 224 320 l 1
 33 676 l 1
 107 676 l 1
 258 390 l 1
 407 676 l 1
 481 676 l 1
372 907 m 1
 291 770 l 1
 216 770 l 1
 295 907 l 1
 372 907 l 1
EndSplineSet
Substitution2: "sous-table 'sups' Exposant dans Latin lookup 1" Yacute.superior
Substitution2: "sous-table 'aalt' Activer toutes les variantes dans Latin lookup 0" Yacute.superior
EndChar

StartChar: Thorn
Encoding: 222 222 193
Width: 612
Flags: MW
HStem: 36 21G 171 61 486 62 656 20G
VStem: 127 69 495 69<357 359 357 377.5>
LayerCount: 2
Fore
SplineSet
495 359 m 2
 495 357 l 2
 495 398 483 430 459 452 c 0
 435 474 402 485 360 485 c 2
 197 485 l 1
 197 231 l 1
 360 231 l 2
 402 231 435 242 459 264 c 0
 483 286 495 318 495 359 c 2
509 494 m 0
 546 459 564 413 564 356 c 0
 564 299 546 254 509 220 c 0
 472 186 424 169 365 169 c 2
 195 169 l 1
 195 34 l 1
 126 34 l 1
 126 674 l 1
 195 674 l 1
 195 546 l 1
 365 546 l 2
 424 546 472 529 509 494 c 0
EndSplineSet
Substitution2: "sous-table 'sups' Exposant dans Latin lookup 1" Thorn.superior
Substitution2: "sous-table 'aalt' Activer toutes les variantes dans Latin lookup 0" Thorn.superior
EndChar

StartChar: agrave
Encoding: 224 224 194
Width: 498
Flags: MW
HStem: 27 56 222 54<357 357> 425 56
VStem: 70 64 357 65<34 34 34 66 66 66 190 222 222 222>
LayerCount: 2
Fore
SplineSet
357 190 m 2
 357 222 l 1
 232 223 l 2
 167 224 134 203 134 160 c 0
 134 109 168 84 235 84 c 0
 281 84 314 94 334 114 c 0
 349 128 357 153 357 190 c 2
422 34 m 1
 357 33 l 1
 357 66 l 1
 335 39 294 26 234 26 c 0
 174 26 131 40 105 67 c 0
 82 90 71 121 71 159 c 0
 71 197 85 228 112 251 c 0
 131 268 169 276 226 276 c 2
 359 276 l 1
 359 328 l 2
 359 393 321 425 245 425 c 0
 196 425 159 408 135 375 c 1
 91 415 l 1
 110 440 131 457 154 467 c 0
 177 477 207 482 244 482 c 0
 363 482 422 433 422 334 c 2
 422 34 l 1
292 601 m 1
 212 601 l 1
 136 738 l 1
 213 738 l 1
 292 601 l 1
EndSplineSet
Substitution2: "sous-table 'sups' Exposant dans Latin lookup 1" agrave.superior
Substitution2: "sous-table 'aalt' Activer toutes les variantes dans Latin lookup 0" agrave.superior
EndChar

StartChar: aacute
Encoding: 225 225 195
Width: 498
Flags: HMW
HStem: 27 56 222 54<357 357> 425 56
VStem: 70 64 357 65<34 34 34 66 66 66 190 222 222 222>
LayerCount: 2
Fore
SplineSet
357 190 m 2
 357 222 l 1
 232 223 l 2
 167 224 134 203 134 160 c 0
 134 109 168 84 235 84 c 0
 281 84 314 94 334 114 c 0
 349 128 357 153 357 190 c 2
422 34 m 1
 357 33 l 1
 357 66 l 1
 335 39 294 26 234 26 c 0
 174 26 131 40 105 67 c 0
 82 90 71 121 71 159 c 0
 71 197 85 228 112 251 c 0
 131 268 169 276 226 276 c 2
 359 276 l 1
 359 328 l 2
 359 393 321 425 245 425 c 0
 196 425 159 408 135 375 c 1
 91 415 l 1
 110 440 131 457 154 467 c 0
 177 477 207 482 244 482 c 0
 363 482 422 433 422 334 c 2
 422 34 l 1
368 738 m 1
 293 601 l 1
 212 601 l 1
 291 738 l 1
 368 738 l 1
EndSplineSet
Substitution2: "sous-table 'sups' Exposant dans Latin lookup 1" aacute.superior
Substitution2: "sous-table 'aalt' Activer toutes les variantes dans Latin lookup 0" aacute.superior
EndChar

StartChar: acircumflex
Encoding: 226 226 196
Width: 498
Flags: MW
HStem: 27 56 222 54<357 357> 425 56
VStem: 70 64 357 65<34 34 34 66 66 66 190 222 222 222>
LayerCount: 2
Fore
SplineSet
357 190 m 2
 357 222 l 1
 232 223 l 2
 167 224 134 203 134 160 c 0
 134 109 168 84 235 84 c 0
 281 84 314 94 334 114 c 0
 349 128 357 153 357 190 c 2
422 34 m 1
 357 33 l 1
 357 66 l 1
 335 39 294 26 234 26 c 0
 174 26 131 40 105 67 c 0
 82 90 71 121 71 159 c 0
 71 197 85 228 112 251 c 0
 131 268 169 276 226 276 c 2
 359 276 l 1
 359 328 l 2
 359 393 321 425 245 425 c 0
 196 425 159 408 135 375 c 1
 91 415 l 1
 110 440 131 457 154 467 c 0
 177 477 207 482 244 482 c 0
 363 482 422 433 422 334 c 2
 422 34 l 1
395 601 m 1
 333 601 l 1
 252 694 l 1
 171 601 l 1
 109 601 l 1
 221 738 l 1
 283 738 l 1
 395 601 l 1
EndSplineSet
Substitution2: "sous-table 'sups' Exposant dans Latin lookup 1" acircumflex.superior
Substitution2: "sous-table 'aalt' Activer toutes les variantes dans Latin lookup 0" acircumflex.superior
EndChar

StartChar: atilde
Encoding: 227 227 197
Width: 498
Flags: MW
HStem: 27 56 222 54<357 357> 425 56 612 49<301.5 316.5 301.5 323> 652 49<182 196>
VStem: 70 64 357 65<34 34 34 66 66 66 190 222 222 222>
LayerCount: 2
Fore
SplineSet
357 190 m 2xe6
 357 222 l 1
 232 223 l 2
 167 224 134 203 134 160 c 0
 134 109 168 84 235 84 c 0
 281 84 314 94 334 114 c 0
 349 128 357 153 357 190 c 2xe6
422 34 m 1
 357 33 l 1
 357 66 l 1
 335 39 294 26 234 26 c 0
 174 26 131 40 105 67 c 0
 82 90 71 121 71 159 c 0
 71 197 85 228 112 251 c 0
 131 268 169 276 226 276 c 2
 359 276 l 1
 359 328 l 2
 359 393 321 425 245 425 c 0
 196 425 159 408 135 375 c 1
 91 415 l 1
 110 440 131 457 154 467 c 0
 177 477 207 482 244 482 c 0
 363 482 422 433 422 334 c 2
 422 34 l 1
393 658 m 1
 392 658 l 1
 361 627 334 612 312 612 c 0xf6
 290 612 267 619 244 632 c 0
 221 645 203 652 189 652 c 0
 175 652 158 642 139 623 c 1
 106 655 l 1
 137 686 164 701 187 701 c 0xee
 210 701 232 694 254 681 c 0
 276 668 294 661 309 661 c 0xf6
 324 661 341 671 360 690 c 1
 393 658 l 1
EndSplineSet
Substitution2: "sous-table 'sups' Exposant dans Latin lookup 1" atilde.superior
Substitution2: "sous-table 'aalt' Activer toutes les variantes dans Latin lookup 0" atilde.superior
EndChar

StartChar: adieresis
Encoding: 228 228 198
Width: 498
Flags: MW
HStem: 27 56 222 54<357 357> 425 56 605 81<124 189 124 189 315 380>
VStem: 70 64 124 65<605 686> 315 65<605 686> 357 65<34 34 34 66 66 66 190 222 222 222>
LayerCount: 2
Fore
SplineSet
357 190 m 2xf8
 357 222 l 1
 232 223 l 2
 167 224 134 203 134 160 c 0
 134 109 168 84 235 84 c 0
 281 84 314 94 334 114 c 0
 349 128 357 153 357 190 c 2xf8
422 34 m 1xf9
 357 33 l 1
 357 66 l 1
 335 39 294 26 234 26 c 0
 174 26 131 40 105 67 c 0
 82 90 71 121 71 159 c 0
 71 197 85 228 112 251 c 0
 131 268 169 276 226 276 c 2
 359 276 l 1
 359 328 l 2
 359 393 321 425 245 425 c 0
 196 425 159 408 135 375 c 1
 91 415 l 1
 110 440 131 457 154 467 c 0
 177 477 207 482 244 482 c 0
 363 482 422 433 422 334 c 2
 422 34 l 1xf9
189 605 m 1xf4
 124 605 l 1
 124 686 l 1
 189 686 l 1
 189 605 l 1xf4
380 605 m 1xf2
 315 605 l 1
 315 686 l 1
 380 686 l 1
 380 605 l 1xf2
EndSplineSet
Substitution2: "sous-table 'sups' Exposant dans Latin lookup 1" adieresis.superior
Substitution2: "sous-table 'aalt' Activer toutes les variantes dans Latin lookup 0" adieresis.superior
EndChar

StartChar: aring
Encoding: 229 229 199
Width: 498
Flags: MW
HStem: 27 56 222 54<357 357> 425 56 579 45 747 45
VStem: 70 64 146 44<676.5 693.5 676.5 699.5> 314 44<669.5 686 669.5 693.5> 357 65<34 34 34 66 66 66 190 222 222 222>
LayerCount: 2
Fore
SplineSet
357 190 m 2xfe
 357 222 l 1
 232 223 l 2
 167 224 134 203 134 160 c 0
 134 109 168 84 235 84 c 0
 281 84 314 94 334 114 c 0
 349 128 357 153 357 190 c 2xfe
422 34 m 1xfe80
 357 33 l 1
 357 66 l 1
 335 39 294 26 234 26 c 0
 174 26 131 40 105 67 c 0
 82 90 71 121 71 159 c 0
 71 197 85 228 112 251 c 0
 131 268 169 276 226 276 c 2
 359 276 l 1
 359 328 l 2
 359 393 321 425 245 425 c 0
 196 425 159 408 135 375 c 1
 91 415 l 1
 110 440 131 457 154 467 c 0
 177 477 207 482 244 482 c 0
 363 482 422 433 422 334 c 2
 422 34 l 1xfe80
314 686 m 2xff
 314 685 l 2
 314 702 308 716 296 728 c 0
 284 740 269 746 252 746 c 0
 235 746 220 740 208 728 c 0
 196 716 190 702 190 685 c 0
 190 668 196 654 208 642 c 0
 220 630 235 624 252 624 c 0
 269 624 284 630 296 642 c 0
 308 654 314 669 314 686 c 2xff
358 685 m 2
 358 684 l 2
 358 655 348 630 327 609 c 0
 306 588 281 578 252 578 c 0
 223 578 198 589 177 610 c 0
 156 631 146 656 146 685 c 0
 146 714 156 739 177 760 c 0
 198 781 223 791 252 791 c 0
 281 791 306 781 327 760 c 0
 348 739 358 714 358 685 c 2
EndSplineSet
Substitution2: "sous-table 'sups' Exposant dans Latin lookup 1" aring.superior
Substitution2: "sous-table 'aalt' Activer toutes les variantes dans Latin lookup 0" aring.superior
EndChar

StartChar: ccedilla
Encoding: 231 231 200
Width: 469
Flags: HMW
HStem: 34 58 430 58
VStem: 82 65
LayerCount: 2
Fore
SplineSet
424 100 m 1
 421 100 l 1
 398 75 376 58 354 48 c 0
 332 38 306 33 275 33 c 0
 217 33 171 52 136 90 c 0
 98 130 79 187 79 260 c 0
 79 333 98 390 136 430 c 0
 171 468 217 487 275 487 c 0
 306 487 333 482 355 472 c 0
 377 462 399 445 422 420 c 1
 378 379 l 1
 348 412 313 428 272 428 c 0
 231 428 200 413 178 383 c 0
 156 353 145 312 145 260 c 0
 145 208 156 167 178 137 c 0
 200 107 231 92 272 92 c 0
 313 92 349 109 380 142 c 1
 424 100 l 1
303 -74 m 1
 250 -209 l 1
 179 -209 l 1
 235 -74 l 1
 303 -74 l 1
EndSplineSet
Substitution2: "sous-table 'sups' Exposant dans Latin lookup 1" ccedilla.superior
Substitution2: "sous-table 'aalt' Activer toutes les variantes dans Latin lookup 0" ccedilla.superior
EndChar

StartChar: egrave
Encoding: 232 232 201
Width: 503
Flags: MW
HStem: 35 57 230 52<149 149 149 382 382 383 148 448> 434 55<238 290>
VStem: 83 65
LayerCount: 2
Fore
SplineSet
382 282 m 1
 383 282 l 1
 380 325 375 353 369 367 c 0
 351 412 316 434 264 434 c 0
 212 434 178 412 162 367 c 0
 155 349 150 321 148 282 c 1
 382 282 l 1
149 230 m 1
 148 227 l 1
 148 135 191 89 278 89 c 0
 322 89 361 106 395 139 c 1
 439 101 l 1
 415 77 391 60 367 49 c 0
 343 38 313 33 277 33 c 0
 216 33 169 52 135 90 c 0
 101 128 84 184 84 258 c 0
 84 332 100 389 132 429 c 0
 164 469 209 489 266 489 c 0
 323 489 368 467 400 424 c 0
 432 381 448 326 448 260 c 2
 448 230 l 1
 149 230 l 1
306 599 m 1
 226 599 l 1
 150 736 l 1
 227 736 l 1
 306 599 l 1
EndSplineSet
Substitution2: "sous-table 'sups' Exposant dans Latin lookup 1" egrave.superior
Substitution2: "sous-table 'aalt' Activer toutes les variantes dans Latin lookup 0" egrave.superior
EndChar

StartChar: eacute
Encoding: 233 233 202
Width: 503
Flags: HMW
HStem: 35 57 230 52<149 149 149 382 382 383 148 448> 434 55<238 290>
VStem: 83 65
LayerCount: 2
Fore
SplineSet
382 282 m 1
 383 282 l 1
 380 325 375 353 369 367 c 0
 351 412 316 434 264 434 c 0
 212 434 178 412 162 367 c 0
 155 349 150 321 148 282 c 1
 382 282 l 1
149 230 m 1
 148 227 l 1
 148 135 191 89 278 89 c 0
 322 89 361 106 395 139 c 1
 439 101 l 1
 415 77 391 60 367 49 c 0
 343 38 313 33 277 33 c 0
 216 33 169 52 135 90 c 0
 101 128 84 184 84 258 c 0
 84 332 100 389 132 429 c 0
 164 469 209 489 266 489 c 0
 323 489 368 467 400 424 c 0
 432 381 448 326 448 260 c 2
 448 230 l 1
 149 230 l 1
382 736 m 1
 304 599 l 1
 226 599 l 1
 305 736 l 1
 382 736 l 1
EndSplineSet
Substitution2: "sous-table 'sups' Exposant dans Latin lookup 1" eacute.superior
Substitution2: "sous-table 'aalt' Activer toutes les variantes dans Latin lookup 0" eacute.superior
EndChar

StartChar: ecircumflex
Encoding: 234 234 203
Width: 503
Flags: MW
HStem: 35 57 230 52<149 149 149 382 382 383 148 448> 434 55<238 290>
VStem: 83 65
LayerCount: 2
Fore
SplineSet
382 282 m 1
 383 282 l 1
 380 325 375 353 369 367 c 0
 351 412 316 434 264 434 c 0
 212 434 178 412 162 367 c 0
 155 349 150 321 148 282 c 1
 382 282 l 1
149 230 m 1
 148 227 l 1
 148 135 191 89 278 89 c 0
 322 89 361 106 395 139 c 1
 439 101 l 1
 415 77 391 60 367 49 c 0
 343 38 313 33 277 33 c 0
 216 33 169 52 135 90 c 0
 101 128 84 184 84 258 c 0
 84 332 100 389 132 429 c 0
 164 469 209 489 266 489 c 0
 323 489 368 467 400 424 c 0
 432 381 448 326 448 260 c 2
 448 230 l 1
 149 230 l 1
409 599 m 1
 347 599 l 1
 266 692 l 1
 185 599 l 1
 123 599 l 1
 235 736 l 1
 297 736 l 1
 409 599 l 1
EndSplineSet
Substitution2: "sous-table 'sups' Exposant dans Latin lookup 1" ecircumflex.superior
Substitution2: "sous-table 'aalt' Activer toutes les variantes dans Latin lookup 0" ecircumflex.superior
EndChar

StartChar: edieresis
Encoding: 235 235 204
Width: 503
Flags: MW
HStem: 35 57 230 52<149 149 149 382 382 383 148 448> 434 55<238 290> 606 81
VStem: 83 65 138 65<603 684> 329 65<603 684>
LayerCount: 2
Fore
SplineSet
382 282 m 1xfa
 383 282 l 1
 380 325 375 353 369 367 c 0
 351 412 316 434 264 434 c 0
 212 434 178 412 162 367 c 0
 155 349 150 321 148 282 c 1
 382 282 l 1xfa
149 230 m 1
 148 227 l 1
 148 135 191 89 278 89 c 0
 322 89 361 106 395 139 c 1
 439 101 l 1
 415 77 391 60 367 49 c 0
 343 38 313 33 277 33 c 0
 216 33 169 52 135 90 c 0
 101 128 84 184 84 258 c 0
 84 332 100 389 132 429 c 0
 164 469 209 489 266 489 c 0
 323 489 368 467 400 424 c 0
 432 381 448 326 448 260 c 2
 448 230 l 1
 149 230 l 1
203 603 m 1xf6
 138 603 l 1
 138 684 l 1
 203 684 l 1
 203 603 l 1xf6
394 603 m 1
 329 603 l 1
 329 684 l 1
 394 684 l 1
 394 603 l 1
EndSplineSet
Substitution2: "sous-table 'sups' Exposant dans Latin lookup 1" edieresis.superior
Substitution2: "sous-table 'aalt' Activer toutes les variantes dans Latin lookup 0" edieresis.superior
EndChar

StartChar: igrave
Encoding: 236 236 205
Width: 238
Flags: MW
HStem: 25 21G<94 158 94 94>
VStem: 94 64<25 467>
LayerCount: 2
Fore
SplineSet
158 25 m 1
 94 25 l 1
 94 467 l 1
 158 467 l 1
 158 25 l 1
194 602 m 1
 114 602 l 1
 38 739 l 1
 115 739 l 1
 194 602 l 1
EndSplineSet
Substitution2: "sous-table 'sups' Exposant dans Latin lookup 1" igrave.superior
Substitution2: "sous-table 'aalt' Activer toutes les variantes dans Latin lookup 0" igrave.superior
EndChar

StartChar: iacute
Encoding: 237 237 206
Width: 243
Flags: HMW
HStem: 25 21G<94 158 94 94>
VStem: 94 64<25 467>
LayerCount: 2
Fore
SplineSet
158 25 m 1
 94 25 l 1
 94 467 l 1
 158 467 l 1
 158 25 l 1
244 739 m 1
 161 602 l 1
 88 602 l 1
 167 739 l 1
 244 739 l 1
EndSplineSet
Substitution2: "sous-table 'sups' Exposant dans Latin lookup 1" iacute.superior
Substitution2: "sous-table 'aalt' Activer toutes les variantes dans Latin lookup 0" iacute.superior
EndChar

StartChar: icircumflex
Encoding: 238 238 207
Width: 240
Flags: MW
HStem: 25 21G<94 158 94 94>
VStem: 94 64<25 467>
LayerCount: 2
Fore
SplineSet
158 25 m 1
 94 25 l 1
 94 467 l 1
 158 467 l 1
 158 25 l 1
281 602 m 1
 219 602 l 1
 138 695 l 1
 57 602 l 1
 -5 602 l 1
 107 739 l 1
 169 739 l 1
 281 602 l 1
EndSplineSet
Substitution2: "sous-table 'sups' Exposant dans Latin lookup 1" icircumflex.superior
Substitution2: "sous-table 'aalt' Activer toutes les variantes dans Latin lookup 0" icircumflex.superior
EndChar

StartChar: idieresis
Encoding: 239 239 208
Width: 240
Flags: MW
HStem: 25 21G<94 158 94 94> 606 81<9 74 9 74 200 265>
VStem: 9 65<606 687> 94 64<25 467> 200 65<606 687>
LayerCount: 2
Fore
SplineSet
158 25 m 1
 94 25 l 1
 94 467 l 1
 158 467 l 1
 158 25 l 1
74 606 m 1
 9 606 l 1
 9 687 l 1
 74 687 l 1
 74 606 l 1
265 606 m 1
 200 606 l 1
 200 687 l 1
 265 687 l 1
 265 606 l 1
EndSplineSet
Substitution2: "sous-table 'sups' Exposant dans Latin lookup 1" idieresis.superior
Substitution2: "sous-table 'aalt' Activer toutes les variantes dans Latin lookup 0" idieresis.superior
EndChar

StartChar: eth
Encoding: 240 240 209
Width: 503
Flags: MW
HStem: 30 58 423 54 557 47 658 20G
VStem: 86 65 380 65
LayerCount: 2
Fore
SplineSet
346 121 m 0
 368 143 379 188 379 255 c 0
 379 322 368 367 346 389 c 0
 324 411 297 422 265 422 c 0
 233 422 206 411 184 389 c 0
 162 367 151 322 151 255 c 0
 151 188 162 143 184 121 c 0
 206 99 233 88 265 88 c 0
 297 88 324 99 346 121 c 0
444 254 m 1
 442 253 l 1
 442 172 425 114 391 79 c 0
 357 44 314 27 263 27 c 0
 212 27 169 44 135 79 c 0
 101 114 84 172 84 253 c 0
 84 334 102 392 137 428 c 0
 165 457 202 473 247 475 c 0
 275 477 297 474 314 466 c 1
 262 555 l 1
 158 555 l 1
 158 602 l 1
 237 602 l 1
 195 676 l 1
 262 676 l 1
 304 602 l 1
 378 602 l 1
 378 555 l 1
 330 555 l 1
 386 456 l 2
 409 417 424 384 432 357 c 0
 440 330 444 296 444 254 c 1
EndSplineSet
Substitution2: "sous-table 'sups' Exposant dans Latin lookup 1" eth.superior
Substitution2: "sous-table 'aalt' Activer toutes les variantes dans Latin lookup 0" eth.superior
EndChar

StartChar: ntilde
Encoding: 241 241 210
Width: 534
Flags: MW
HStem: 35 21G<458 458> 426 57 613 49 653 49
VStem: 109 65 393 65<36 309 309 318>
LayerCount: 2
Fore
SplineSet
458 35 m 1xcc
 393 36 l 1
 393 309 l 2
 393 388 357 427 284 427 c 0
 250 427 223 417 203 396 c 0
 183 375 173 346 173 309 c 2
 173 36 l 1
 108 36 l 1
 108 479 l 1
 173 479 l 1
 173 430 l 1
 205 466 246 484 295 484 c 0
 344 484 383 470 413 441 c 0
 443 412 458 371 458 318 c 2
 458 35 l 1xcc
423 660 m 1
 422 660 l 1
 391 629 364 614 342 614 c 0xec
 320 614 297 621 274 634 c 0
 251 647 233 654 219 654 c 0
 205 654 188 644 169 625 c 1
 136 657 l 1
 167 688 194 703 217 703 c 0xdc
 240 703 262 696 284 683 c 0
 306 670 324 663 339 663 c 0xec
 354 663 371 673 390 692 c 1
 423 660 l 1
EndSplineSet
Substitution2: "sous-table 'sups' Exposant dans Latin lookup 1" ntilde.superior
Substitution2: "sous-table 'aalt' Activer toutes les variantes dans Latin lookup 0" ntilde.superior
EndChar

StartChar: ograve
Encoding: 242 242 211
Width: 503
Flags: MW
HStem: 27 58 439 58
VStem: 84 65 381 65
LayerCount: 2
Fore
SplineSet
381 262 m 1
 380 266 l 1
 380 339 369 387 347 409 c 0
 325 431 298 442 266 442 c 0
 234 442 207 431 184 408 c 0
 161 385 150 337 150 264 c 0
 150 191 161 143 184 120 c 0
 207 97 235 86 267 86 c 0
 299 86 326 97 348 119 c 0
 370 141 381 189 381 262 c 1
445 266 m 2
 445 264 l 2
 445 177 428 116 393 81 c 0
 358 46 315 29 264 29 c 0
 213 29 170 47 135 82 c 0
 100 117 83 178 83 265 c 0
 83 352 100 413 135 448 c 0
 170 483 213 501 264 501 c 0
 315 501 358 484 393 449 c 0
 428 414 445 353 445 266 c 2
293 604 m 1
 213 604 l 1
 137 741 l 1
 214 741 l 1
 293 604 l 1
EndSplineSet
Substitution2: "sous-table 'sups' Exposant dans Latin lookup 1" ograve.superior
Substitution2: "sous-table 'aalt' Activer toutes les variantes dans Latin lookup 0" ograve.superior
EndChar

StartChar: oacute
Encoding: 243 243 212
Width: 503
Flags: HMW
HStem: 27 58 439 58
VStem: 84 65 381 65
LayerCount: 2
Fore
SplineSet
381 262 m 1
 380 266 l 1
 380 339 369 387 347 409 c 0
 325 431 298 442 266 442 c 0
 234 442 207 431 184 408 c 0
 161 385 150 337 150 264 c 0
 150 191 161 143 184 120 c 0
 207 97 235 86 267 86 c 0
 299 86 326 97 348 119 c 0
 370 141 381 189 381 262 c 1
445 266 m 2
 445 264 l 2
 445 177 428 116 393 81 c 0
 358 46 315 29 264 29 c 0
 213 29 170 47 135 82 c 0
 100 117 83 178 83 265 c 0
 83 352 100 413 135 448 c 0
 170 483 213 501 264 501 c 0
 315 501 358 484 393 449 c 0
 428 414 445 353 445 266 c 2
379 741 m 1
 298 604 l 5
 223 604 l 1
 302 741 l 1
 379 741 l 1
EndSplineSet
Substitution2: "sous-table 'sups' Exposant dans Latin lookup 1" oacute.superior
Substitution2: "sous-table 'aalt' Activer toutes les variantes dans Latin lookup 0" oacute.superior
EndChar

StartChar: ocircumflex
Encoding: 244 244 213
Width: 503
Flags: MW
HStem: 27 58 439 58
VStem: 84 65 381 65
LayerCount: 2
Fore
SplineSet
381 262 m 1
 380 266 l 1
 380 339 369 387 347 409 c 0
 325 431 298 442 266 442 c 0
 234 442 207 431 184 408 c 0
 161 385 150 337 150 264 c 0
 150 191 161 143 184 120 c 0
 207 97 235 86 267 86 c 0
 299 86 326 97 348 119 c 0
 370 141 381 189 381 262 c 1
445 266 m 2
 445 264 l 2
 445 177 428 116 393 81 c 0
 358 46 315 29 264 29 c 0
 213 29 170 47 135 82 c 0
 100 117 83 178 83 265 c 0
 83 352 100 413 135 448 c 0
 170 483 213 501 264 501 c 0
 315 501 358 484 393 449 c 0
 428 414 445 353 445 266 c 2
406 604 m 1
 344 604 l 1
 263 697 l 1
 182 604 l 1
 120 604 l 1
 232 741 l 1
 294 741 l 1
 406 604 l 1
EndSplineSet
Substitution2: "sous-table 'sups' Exposant dans Latin lookup 1" ocircumflex.superior
Substitution2: "sous-table 'aalt' Activer toutes les variantes dans Latin lookup 0" ocircumflex.superior
EndChar

StartChar: otilde
Encoding: 245 245 214
Width: 503
Flags: MW
HStem: 27 58 439 58 613 49 653 49
VStem: 84 65 381 65
LayerCount: 2
Fore
SplineSet
381 262 m 1xcc
 380 266 l 1
 380 339 369 387 347 409 c 0
 325 431 298 442 266 442 c 0
 234 442 207 431 184 408 c 0
 161 385 150 337 150 264 c 0
 150 191 161 143 184 120 c 0
 207 97 235 86 267 86 c 0
 299 86 326 97 348 119 c 0
 370 141 381 189 381 262 c 1xcc
445 266 m 2
 445 264 l 2
 445 177 428 116 393 81 c 0
 358 46 315 29 264 29 c 0
 213 29 170 47 135 82 c 0
 100 117 83 178 83 265 c 0
 83 352 100 413 135 448 c 0
 170 483 213 501 264 501 c 0
 315 501 358 484 393 449 c 0
 428 414 445 353 445 266 c 2
404 661 m 1
 403 661 l 1
 372 630 345 615 323 615 c 0xec
 301 615 278 622 255 635 c 0
 232 648 214 655 200 655 c 0
 186 655 169 645 150 626 c 1
 117 658 l 1
 148 689 175 704 198 704 c 0xdc
 221 704 243 697 265 684 c 0
 287 671 305 664 320 664 c 0xec
 335 664 352 674 371 693 c 1
 404 661 l 1
EndSplineSet
Substitution2: "sous-table 'sups' Exposant dans Latin lookup 1" otilde.superior
Substitution2: "sous-table 'aalt' Activer toutes les variantes dans Latin lookup 0" otilde.superior
EndChar

StartChar: odieresis
Encoding: 246 246 215
Width: 503
Flags: MW
HStem: 27 58 439 58 606 81
VStem: 84 65 136 65 327 65 381 65
LayerCount: 2
Fore
SplineSet
381 262 m 1xf2
 380 266 l 1
 380 339 369 387 347 409 c 0
 325 431 298 442 266 442 c 0
 234 442 207 431 184 408 c 0
 161 385 150 337 150 264 c 0
 150 191 161 143 184 120 c 0
 207 97 235 86 267 86 c 0
 299 86 326 97 348 119 c 0
 370 141 381 189 381 262 c 1xf2
445 266 m 2
 445 264 l 2
 445 177 428 116 393 81 c 0
 358 46 315 29 264 29 c 0
 213 29 170 47 135 82 c 0xea
 100 117 83 178 83 265 c 0xf0
 83 352 100 413 135 448 c 0xe8
 170 483 213 501 264 501 c 0
 315 501 358 484 393 449 c 0
 428 414 445 353 445 266 c 2
200 608 m 1
 135 608 l 1
 135 689 l 1
 200 689 l 1
 200 608 l 1
391 608 m 1xe4
 326 608 l 1
 326 689 l 1
 391 689 l 1
 391 608 l 1xe4
EndSplineSet
Substitution2: "sous-table 'sups' Exposant dans Latin lookup 1" odieresis.superior
Substitution2: "sous-table 'aalt' Activer toutes les variantes dans Latin lookup 0" odieresis.superior
EndChar

StartChar: divide
Encoding: 247 247 216
Width: 495
Flags: MW
HStem: 71 77<222 300 222 300> 239 61<72 450 72 450> 391 77<222 300 222 300>
VStem: 222 78<71 148 71 148 391 468>
CounterMasks: 1 e0
LayerCount: 2
Fore
SplineSet
300 71 m 1
 222 71 l 1
 222 148 l 1
 300 148 l 1
 300 71 l 1
450 239 m 1
 72 239 l 1
 72 300 l 1
 450 300 l 1
 450 239 l 1
300 391 m 1
 222 391 l 1
 222 468 l 1
 300 468 l 1
 300 391 l 1
EndSplineSet
Substitution2: "sous-table 'sups' Exposant dans Latin lookup 1" divide.superior
Substitution2: "sous-table 'aalt' Activer toutes les variantes dans Latin lookup 0" divide.superior
EndChar

StartChar: ugrave
Encoding: 249 249 217
Width: 534
Flags: MW
HStem: 29 57 457 20G<104 169 169 169 388 453 453 453>
VStem: 104 65<194 204 204 477> 388 65<204 477>
LayerCount: 2
Fore
SplineSet
453 34 m 1
 389 35 l 1
 389 85 l 1
 357 48 316 30 266 30 c 0
 216 30 177 44 148 72 c 0
 119 100 104 141 104 194 c 2
 104 477 l 1
 169 477 l 1
 169 204 l 2
 169 125 205 86 277 86 c 0
 311 86 338 96 358 117 c 0
 378 138 388 167 388 204 c 2
 388 477 l 1
 453 477 l 1
 453 34 l 1
315 603 m 1
 235 603 l 1
 159 740 l 1
 236 740 l 1
 315 603 l 1
EndSplineSet
Substitution2: "sous-table 'sups' Exposant dans Latin lookup 1" ugrave.superior
Substitution2: "sous-table 'aalt' Activer toutes les variantes dans Latin lookup 0" ugrave.superior
EndChar

StartChar: uacute
Encoding: 250 250 218
Width: 534
Flags: HMW
HStem: 29 57 457 20G<104 169 169 169 388 453 453 453>
VStem: 104 65<194 204 204 477> 388 65<204 477>
LayerCount: 2
Fore
SplineSet
453 34 m 1
 389 35 l 1
 389 85 l 1
 357 48 316 30 266 30 c 0
 216 30 177 44 148 72 c 0
 119 100 104 141 104 194 c 2
 104 477 l 1
 169 477 l 1
 169 204 l 2
 169 125 205 86 277 86 c 0
 311 86 338 96 358 117 c 0
 378 138 388 167 388 204 c 2
 388 477 l 1
 453 477 l 1
 453 34 l 1
391 740 m 1
 310 603 l 5
 235 603 l 1
 314 740 l 1
 391 740 l 1
EndSplineSet
Substitution2: "sous-table 'sups' Exposant dans Latin lookup 1" uacute.superior
Substitution2: "sous-table 'aalt' Activer toutes les variantes dans Latin lookup 0" uacute.superior
EndChar

StartChar: ucircumflex
Encoding: 251 251 219
Width: 534
Flags: MW
HStem: 29 57 457 20G<104 169 169 169 388 453 453 453>
VStem: 104 65<194 204 204 477> 388 65<204 477>
LayerCount: 2
Fore
SplineSet
453 34 m 1
 389 35 l 1
 389 85 l 1
 357 48 316 30 266 30 c 0
 216 30 177 44 148 72 c 0
 119 100 104 141 104 194 c 2
 104 477 l 1
 169 477 l 1
 169 204 l 2
 169 125 205 86 277 86 c 0
 311 86 338 96 358 117 c 0
 378 138 388 167 388 204 c 2
 388 477 l 1
 453 477 l 1
 453 34 l 1
418 603 m 1
 356 603 l 1
 275 696 l 1
 194 603 l 1
 132 603 l 1
 244 740 l 1
 306 740 l 1
 418 603 l 1
EndSplineSet
Substitution2: "sous-table 'sups' Exposant dans Latin lookup 1" ucircumflex.superior
Substitution2: "sous-table 'aalt' Activer toutes les variantes dans Latin lookup 0" ucircumflex.superior
EndChar

StartChar: udieresis
Encoding: 252 252 220
Width: 534
Flags: MW
HStem: 29 57 457 20G<104 169 169 169 388 453 453 453> 606 81
VStem: 104 65<194 204 204 477> 147 65<607 688> 338 65<607 688> 388 65<204 477>
LayerCount: 2
Fore
SplineSet
453 34 m 1xf2
 389 35 l 1
 389 85 l 1
 357 48 316 30 266 30 c 0
 216 30 177 44 148 72 c 0
 119 100 104 141 104 194 c 2
 104 477 l 1
 169 477 l 1
 169 204 l 2
 169 125 205 86 277 86 c 0
 311 86 338 96 358 117 c 0
 378 138 388 167 388 204 c 2
 388 477 l 1
 453 477 l 1
 453 34 l 1xf2
212 607 m 1xe8
 147 607 l 1
 147 688 l 1
 212 688 l 1
 212 607 l 1xe8
403 607 m 1xe4
 338 607 l 1
 338 688 l 1
 403 688 l 1
 403 607 l 1xe4
EndSplineSet
Substitution2: "sous-table 'sups' Exposant dans Latin lookup 1" udieresis.superior
Substitution2: "sous-table 'aalt' Activer toutes les variantes dans Latin lookup 0" udieresis.superior
EndChar

StartChar: yacute
Encoding: 253 253 221
Width: 423
Flags: HMW
HStem: -176 58<66 86 86 94 66 86>
LayerCount: 2
Fore
SplineSet
415 457 m 1
 212 -93 l 2
 192 -148 153 -176 94 -176 c 2
 66 -176 l 1
 66 -118 l 1
 86 -118 l 2
 108 -118 124 -114 134 -106 c 0
 144 -98 153 -84 160 -63 c 2
 215 90 l 1
 32 457 l 1
 102 457 l 1
 247 168 l 1
 345 457 l 1
 415 457 l 1
341 739 m 1
 260 602 l 5
 185 602 l 1
 264 739 l 1
 341 739 l 1
EndSplineSet
Substitution2: "sous-table 'sups' Exposant dans Latin lookup 1" yacute.superior
Substitution2: "sous-table 'aalt' Activer toutes les variantes dans Latin lookup 0" yacute.superior
EndChar

StartChar: thorn
Encoding: 254 254 222
Width: 519
Flags: MW
HStem: -173 21G<111 175 111 111> 19 58<270 308> 415 58<269 308>
VStem: 110 64 397 64<246 272>
LayerCount: 2
Fore
SplineSet
397 246 m 0
 397 298 391 337 378 363 c 0
 361 398 330 415 286 415 c 0
 242 415 211 398 194 363 c 0
 181 337 174 298 174 246 c 0
 174 194 181 155 194 129 c 0
 211 94 242 77 286 77 c 0
 330 77 361 94 378 129 c 0
 391 155 397 194 397 246 c 0
461 246 m 1
 462 246 l 1
 462 157 444 94 408 58 c 0
 383 32 345 19 295 19 c 0
 245 19 205 38 175 77 c 1
 175 -173 l 1
 111 -173 l 1
 111 665 l 1
 175 665 l 1
 175 416 l 1
 204 454 244 473 294 473 c 0
 344 473 382 460 407 434 c 0
 443 398 461 335 461 246 c 1
EndSplineSet
Substitution2: "sous-table 'sups' Exposant dans Latin lookup 1" thorn.superior
Substitution2: "sous-table 'aalt' Activer toutes les variantes dans Latin lookup 0" thorn.superior
EndChar

StartChar: ydieresis
Encoding: 255 255 223
Width: 423
Flags: MW
HStem: -176 58<66 86 86 94 66 86> 606 81<97 162 97 162 288 353>
VStem: 98 65 289 65
LayerCount: 2
Fore
SplineSet
415 457 m 1
 212 -93 l 2
 192 -148 153 -176 94 -176 c 2
 66 -176 l 1
 66 -118 l 1
 86 -118 l 2
 108 -118 124 -114 134 -106 c 0
 144 -98 153 -84 160 -63 c 2
 215 90 l 1
 32 457 l 1
 102 457 l 1
 247 168 l 1
 345 457 l 1
 415 457 l 1
162 606 m 1
 97 606 l 1
 97 687 l 1
 162 687 l 1
 162 606 l 1
353 606 m 1
 288 606 l 1
 288 687 l 1
 353 687 l 1
 353 606 l 1
EndSplineSet
Substitution2: "sous-table 'sups' Exposant dans Latin lookup 1" ydieresis.superior
Substitution2: "sous-table 'aalt' Activer toutes les variantes dans Latin lookup 0" ydieresis.superior
EndChar

StartChar: Scaron
Encoding: 352 352 224
Width: 557
Flags: MW
HStem: 30 61 622 60
VStem: 84 67 439 69
LayerCount: 2
Fore
SplineSet
454 339 m 1
 451 338 l 1
 487 307 505 264 505 209 c 0
 505 154 485 110 445 77 c 0
 405 44 351 28 284 28 c 0
 194 28 121 56 64 113 c 1
 111 160 l 1
 158 113 216 89 285 89 c 0
 332 89 369 100 396 121 c 0
 423 142 437 171 437 207 c 0
 437 243 427 270 406 288 c 0
 390 303 362 313 323 319 c 2
 248 331 l 2
 137 348 82 404 82 499 c 0
 82 554 100 598 137 631 c 0
 174 664 227 681 296 681 c 0
 365 681 426 658 479 611 c 1
 435 567 l 1
 394 603 344 621 285 621 c 0
 243 621 210 610 186 589 c 0
 162 568 150 540 150 506 c 0
 150 472 160 446 180 429 c 0
 200 412 229 401 266 395 c 2
 336 384 l 2
 389 376 428 361 454 339 c 1
425 906 m 1
 313 769 l 1
 251 769 l 1
 139 906 l 1
 201 906 l 1
 282 812 l 1
 363 906 l 1
 425 906 l 1
EndSplineSet
Substitution2: "sous-table 'sups' Exposant dans Latin lookup 1" Scaron.superior
Substitution2: "sous-table 'aalt' Activer toutes les variantes dans Latin lookup 0" Scaron.superior
EndChar

StartChar: scaron
Encoding: 353 353 225
Width: 470
Flags: MW
HStem: 33 56 432 55
VStem: 83 63 362 63
LayerCount: 2
Fore
SplineSet
425 168 m 1
 428 169 l 1
 428 127 412 94 379 70 c 0
 346 46 302 34 247 34 c 0
 170 34 109 55 64 98 c 1
 107 141 l 1
 140 107 186 90 245 90 c 0
 324 90 363 116 363 168 c 0
 363 207 338 229 289 233 c 2
 216 239 l 2
 128 247 84 287 84 358 c 0
 84 398 99 430 129 453 c 0
 159 476 198 488 246 488 c 0
 313 488 366 472 405 440 c 1
 363 398 l 1
 332 421 293 433 245 433 c 0
 179 433 146 409 146 360 c 0
 146 321 172 299 223 294 c 2
 294 288 l 2
 381 280 425 240 425 168 c 1
392 740 m 1
 280 603 l 1
 218 603 l 1
 106 740 l 1
 168 740 l 1
 249 646 l 1
 330 740 l 1
 392 740 l 1
EndSplineSet
Substitution2: "sous-table 'sups' Exposant dans Latin lookup 1" scaron.superior
Substitution2: "sous-table 'aalt' Activer toutes les variantes dans Latin lookup 0" scaron.superior
EndChar

StartChar: Ydieresis
Encoding: 376 376 226
Width: 489
Flags: MW
HStem: 36 21G<224 292 224 224> 656 20G<33 107 107 107 407 481 481 481> 774 81<128 193 128 193 319 384>
VStem: 128 65<774 855> 224 68<36 320 36 320> 319 65<774 855>
LayerCount: 2
Fore
SplineSet
481 676 m 1
 292 320 l 1
 292 36 l 1
 224 36 l 1
 224 320 l 1
 33 676 l 1
 107 676 l 1
 258 390 l 1
 407 676 l 1
 481 676 l 1
193 774 m 1
 128 774 l 1
 128 855 l 1
 193 855 l 1
 193 774 l 1
384 774 m 1
 319 774 l 1
 319 855 l 1
 384 855 l 1
 384 774 l 1
EndSplineSet
Substitution2: "sous-table 'sups' Exposant dans Latin lookup 1" Ydieresis.superior
Substitution2: "sous-table 'aalt' Activer toutes les variantes dans Latin lookup 0" Ydieresis.superior
EndChar

StartChar: Zcaron
Encoding: 381 381 227
Width: 528
Flags: MW
HStem: 36 61<154 477 154 477> 615 61<92 400 92 477>
LayerCount: 2
Fore
SplineSet
477 36 m 1
 79 36 l 1
 79 100 l 1
 400 615 l 1
 92 615 l 1
 92 676 l 1
 477 676 l 1
 477 619 l 1
 154 97 l 1
 477 97 l 1
 477 36 l 1
424 907 m 1
 312 770 l 1
 250 770 l 1
 138 907 l 1
 200 907 l 1
 281 813 l 1
 362 907 l 1
 424 907 l 1
EndSplineSet
Substitution2: "sous-table 'sups' Exposant dans Latin lookup 1" Zcaron.superior
Substitution2: "sous-table 'aalt' Activer toutes les variantes dans Latin lookup 0" Zcaron.superior
EndChar

StartChar: zcaron
Encoding: 382 382 228
Width: 436
Flags: MW
HStem: 34 57<142 389 142 389> 419 57<81 314 81 389>
VStem: 68 321<34 89 89 89>
LayerCount: 2
Fore
SplineSet
389 34 m 1
 68 34 l 1
 68 89 l 1
 314 419 l 1
 81 419 l 1
 81 476 l 1
 389 476 l 1
 389 421 l 1
 142 91 l 1
 389 91 l 1
 389 34 l 1
380 739 m 1
 268 602 l 1
 206 602 l 1
 94 739 l 1
 156 739 l 1
 237 645 l 1
 318 739 l 1
 380 739 l 1
EndSplineSet
Substitution2: "sous-table 'sups' Exposant dans Latin lookup 1" zcaron.superior
Substitution2: "sous-table 'aalt' Activer toutes les variantes dans Latin lookup 0" zcaron.superior
EndChar

StartChar: Delta
Encoding: 916 916 229
AltUni2: 002206.ffffffff.0
Width: 572
Flags: MW
HStem: 36 59<149 498 149 574> 656 20G<430 487 487 487>
LayerCount: 2
Fore
SplineSet
498 95 m 1
 436 578 l 1
 149 95 l 1
 498 95 l 1
574 36 m 1
 46 36 l 1
 430 676 l 1
 487 676 l 1
 574 36 l 1
EndSplineSet
Substitution2: "sous-table 'sups' Exposant dans Latin lookup 1" Delta.superior
Substitution2: "sous-table 'aalt' Activer toutes les variantes dans Latin lookup 0" Delta.superior
EndChar

StartChar: Omega
Encoding: 937 937 230
AltUni2: 002126.ffffffff.0
Width: 617
Flags: MW
HStem: 36 60<557 557> 621 61
VStem: 588 73
LayerCount: 2
Fore
SplineSet
557 36 m 1
 377 34 l 1
 390 92 l 1
 432 109 465 132 488 160 c 1
 510 185 531 241 551 328 c 0
 571 415 582 473 583 501 c 0
 584 529 578 553 564 572 c 0
 541 603 508 618 464 618 c 0
 420 618 379 603 342 572 c 0
 319 553 301 529 289 500 c 0
 277 471 261 414 241 328 c 0
 221 242 216 186 227 160 c 1
 237 132 259 109 293 92 c 1
 280 34 l 1
 105 34 l 1
 119 94 l 1
 193 94 l 1
 176 111 164 131 158 154 c 0
 152 177 151 203 155 232 c 0
 159 261 169 308 184 374 c 0
 199 440 214 490 228 523 c 0
 242 556 266 587 300 615 c 0
 355 659 415 681 480 681 c 0
 545 681 595 659 630 615 c 0
 651 587 661 553 660 514 c 1
 658 487 650 441 635 375 c 0
 620 309 608 262 599 233 c 0
 581 176 547 130 496 96 c 1
 571 96 l 1
 557 36 l 1
EndSplineSet
Substitution2: "sous-table 'sups' Exposant dans Latin lookup 1" Omega.superior
Substitution2: "sous-table 'aalt' Activer toutes les variantes dans Latin lookup 0" Omega.superior
EndChar

StartChar: pi
Encoding: 960 960 231
Width: 561
Flags: MW
HStem: 25 21G<120 183 120 120 408 471 408 408> 409 58<183 408 183 183>
VStem: 120 63<25 409 25 467 25 467> 408 63<25 409 409 409>
LayerCount: 2
Fore
SplineSet
471 25 m 1
 408 25 l 1
 408 409 l 1
 183 409 l 1
 183 25 l 1
 120 25 l 1
 120 467 l 1
 471 467 l 1
 471 25 l 1
EndSplineSet
Substitution2: "sous-table 'sups' Exposant dans Latin lookup 1" pi.superior
Substitution2: "sous-table 'aalt' Activer toutes les variantes dans Latin lookup 0" pi.superior
EndChar

StartChar: zero.superior
Encoding: 8304 8304 232
Width: 340
Flags: MW
HStem: 436 45 833 44
VStem: 57 48 253 48
LayerCount: 2
Fore
SplineSet
253 561 m 2
 251 751 l 2
 251 774 245 793 232 808 c 0
 219 823 201 831 178 831 c 0
 155 831 137 824 124 809 c 0
 111 794 105 775 105 752 c 2
 105 560 l 2
 105 537 112 518 125 503 c 0
 138 488 156 481 179 481 c 0
 202 481 220 489 233 504 c 0
 246 519 253 538 253 561 c 2
299 554 m 1
 297 554 l 1
 297 519 286 490 263 468 c 0
 240 446 211 435 176 435 c 0
 141 435 112 446 89 468 c 0
 66 490 55 519 55 555 c 2
 55 756 l 2
 55 791 67 820 90 842 c 0
 113 864 142 875 177 875 c 0
 212 875 241 864 264 842 c 0
 287 820 299 791 299 755 c 2
 299 554 l 1
EndSplineSet
Substitution2: "sous-table 'sups' Exposant dans Latin lookup 1" zero.superior.superior
Substitution2: "sous-table 'aalt' Activer toutes les variantes dans Latin lookup 0" zero.superior.superior
EndChar

StartChar: four.superior
Encoding: 8308 8308 233
Width: 335
Flags: MW
HStem: 534 44<87 212 87 212 260 312>
VStem: 212 48<443 534 443 534 578 731>
LayerCount: 2
Fore
SplineSet
312 534 m 1
 260 534 l 1
 260 443 l 1
 212 443 l 1
 212 534 l 1
 41 534 l 1
 41 573 l 1
 196 871 l 1
 246 871 l 1
 87 578 l 1
 212 578 l 1
 212 731 l 1
 260 731 l 1
 260 578 l 1
 312 578 l 1
 312 534 l 1
EndSplineSet
Substitution2: "sous-table 'sups' Exposant dans Latin lookup 1" four.superior.superior
Substitution2: "sous-table 'aalt' Activer toutes les variantes dans Latin lookup 0" four.superior.superior
EndChar

StartChar: five.superior
Encoding: 8309 8309 234
Width: 342
Flags: MW
HStem: 439 44 687 37 827 44<115 296 115 115>
VStem: 60 48<547 547> 71 44<695 827 695 871> 258 48
LayerCount: 2
Fore
SplineSet
194 724 m 1xec
 195 726 l 1
 270 726 307 679 307 585 c 0
 307 532 296 495 273 473 c 0
 250 451 220 440 182 440 c 0
 144 440 115 452 94 475 c 1
 74 492 63 516 60 547 c 1
 108 547 l 1xf4
 114 504 138 483 181 483 c 0
 203 483 221 490 236 504 c 0
 251 518 258 546 258 587 c 0
 258 648 234 681 186 687 c 0
 159 691 135 686 114 671 c 1
 71 671 l 1
 71 871 l 1
 296 871 l 1
 296 827 l 1
 115 827 l 1
 115 695 l 1
 133 714 159 724 194 724 c 1xec
EndSplineSet
Substitution2: "sous-table 'sups' Exposant dans Latin lookup 1" five.superior.superior
Substitution2: "sous-table 'aalt' Activer toutes les variantes dans Latin lookup 0" five.superior.superior
EndChar

StartChar: six.superior
Encoding: 8310 8310 235
Width: 342
Flags: MW
HStem: 440 44 648 41
VStem: 57 49 256 49
LayerCount: 2
Fore
SplineSet
235 506 m 2
 233 504 l 2
 247 519 254 539 254 563 c 0
 254 587 247 607 234 623 c 0
 221 639 203 647 180 647 c 0
 157 647 139 640 126 625 c 0
 113 610 106 590 106 565 c 0
 106 540 113 520 126 505 c 0
 139 490 157 483 180 483 c 0
 203 483 221 491 235 506 c 2
271 652 m 1
 271 655 l 1
 292 632 303 602 303 565 c 0
 303 528 292 498 269 474 c 0
 246 450 216 438 178 438 c 0
 140 438 110 449 88 471 c 0
 66 493 55 520 55 552 c 0
 55 584 64 619 82 656 c 1
 192 868 l 1
 236 868 l 1
 141 676 l 1
 155 683 171 686 188 686 c 0
 222 686 250 675 271 652 c 1
EndSplineSet
Substitution2: "sous-table 'sups' Exposant dans Latin lookup 1" six.superior.superior
Substitution2: "sous-table 'aalt' Activer toutes les variantes dans Latin lookup 0" six.superior.superior
EndChar

StartChar: seven.superior
Encoding: 8311 8311 236
Width: 331
Flags: MW
HStem: 828 43<64 256 64 301>
VStem: 64 237<833 871 833 871 833 871>
LayerCount: 2
Fore
SplineSet
64 871 m 1
 301 871 l 1
 301 833 l 1
 153 439 l 1
 107 439 l 1
 256 828 l 1
 64 828 l 1
 64 871 l 1
EndSplineSet
Substitution2: "sous-table 'sups' Exposant dans Latin lookup 1" seven.superior.superior
Substitution2: "sous-table 'aalt' Activer toutes les variantes dans Latin lookup 0" seven.superior.superior
EndChar

StartChar: eight.superior
Encoding: 8312 8312 237
Width: 347
Flags: MW
HStem: 436 45 648 44 833 44
VStem: 48 49<552.5 577.5 552.5 582> 58 48 259 48 268 49
LayerCount: 2
Fore
SplineSet
244 504 m 1xf2
 241 504 l 1
 257 520 265 540 265 565 c 0
 265 590 257 610 241 625 c 0
 225 640 205 648 181 648 c 0
 157 648 137 640 121 625 c 0
 105 610 97 590 97 565 c 0
 97 540 105 520 121 504 c 0
 137 488 158 480 183 480 c 0
 208 480 228 488 244 504 c 1xf2
234 712 m 1
 236 711 l 1
 250 725 257 742 257 761 c 0
 257 780 250 797 236 811 c 0
 222 825 204 832 182 832 c 0
 160 832 142 825 127 811 c 0
 112 797 105 780 105 761 c 0xec
 105 742 112 726 126 712 c 0
 140 698 158 691 180 691 c 0
 202 691 220 698 234 712 c 1
316 557 m 1xe2
 318 555 l 1
 318 519 305 490 279 467 c 0
 253 444 221 433 183 433 c 0
 145 433 113 445 87 468 c 0
 61 491 48 521 48 557 c 0xf2
 48 607 72 644 119 669 c 1
 78 690 58 719 58 755 c 0
 58 791 70 820 93 842 c 0
 116 864 146 875 182 875 c 0
 218 875 248 864 271 842 c 0
 294 820 306 791 306 755 c 0xec
 306 719 286 690 246 669 c 1
 293 644 316 607 316 557 c 1xe2
EndSplineSet
Substitution2: "sous-table 'sups' Exposant dans Latin lookup 1" eight.superior.superior
Substitution2: "sous-table 'aalt' Activer toutes les variantes dans Latin lookup 0" eight.superior.superior
EndChar

StartChar: nine.superior
Encoding: 8313 8313 238
Width: 341
Flags: MW
HStem: 623 42 833 44
VStem: 55 49 254 49
LayerCount: 2
Fore
SplineSet
254 749 m 1
 253 751 l 1
 253 776 246 796 232 811 c 0
 218 826 200 834 177 834 c 0
 154 834 136 826 123 811 c 0
 110 796 103 776 103 751 c 0
 103 726 110 706 123 690 c 0
 136 674 154 666 177 666 c 0
 200 666 219 674 233 689 c 0
 247 704 254 724 254 749 c 1
268 845 m 1
 267 847 l 1
 290 824 301 796 301 763 c 0
 301 730 292 695 273 658 c 2
 163 443 l 1
 118 443 l 1
 214 637 l 1
 200 630 184 626 167 626 c 0
 134 626 107 638 86 661 c 0
 65 684 54 714 54 751 c 0
 54 788 65 819 87 843 c 0
 109 867 139 879 177 879 c 0
 215 879 245 868 268 845 c 1
EndSplineSet
Substitution2: "sous-table 'sups' Exposant dans Latin lookup 1" nine.superior.superior
Substitution2: "sous-table 'aalt' Activer toutes les variantes dans Latin lookup 0" nine.superior.superior
EndChar

StartChar: parenleft.superior
Encoding: 8317 8317 239
Width: 195
Flags: MW
VStem: 66 49
LayerCount: 2
Fore
SplineSet
157 417 m 1
 129 388 l 1
 108 407 92 424 81 439 c 1
 72 455 67 476 67 501 c 2
 67 814 l 2
 67 840 71 860 79 874 c 0
 87 888 104 906 129 927 c 1
 158 898 l 1
 139 879 l 1
 124 862 116 839 116 811 c 2
 116 504 l 2
 116 485 119 470 124 459 c 0
 129 448 140 434 157 417 c 1
EndSplineSet
Substitution2: "sous-table 'sups' Exposant dans Latin lookup 1" parenleft.superior.superior
Substitution2: "sous-table 'aalt' Activer toutes les variantes dans Latin lookup 0" parenleft.superior.superior
EndChar

StartChar: parenright.superior
Encoding: 8318 8318 240
Width: 192
Flags: MW
VStem: 87 50<503 810 810 814>
LayerCount: 2
Fore
SplineSet
137 501 m 1
 138 499 l 1
 138 473 134 453 126 439 c 0
 118 425 102 407 77 385 c 1
 47 416 l 1
 66 435 l 2
 72 442 77 450 81 459 c 0
 85 468 87 483 87 503 c 2
 87 810 l 2
 87 830 85 845 80 855 c 0
 75 865 64 879 46 897 c 1
 76 927 l 1
 99 906 115 889 124 876 c 1
 133 861 137 840 137 814 c 2
 137 501 l 1
EndSplineSet
Substitution2: "sous-table 'sups' Exposant dans Latin lookup 1" parenright.superior.superior
Substitution2: "sous-table 'aalt' Activer toutes les variantes dans Latin lookup 0" parenright.superior.superior
EndChar

StartChar: n.superior
Encoding: 8319 8319 241
Width: 386
Flags: MW
HStem: 704 48<188 221>
VStem: 60 54<420 618 707 748> 276 54
LayerCount: 2
Fore
SplineSet
330 420 m 1
 275 420 l 1
 275 618 l 2
 275 675 248 704 194 704 c 0
 169 704 149 697 135 682 c 0
 121 667 114 646 114 618 c 2
 114 420 l 1
 60 420 l 1
 60 748 l 1
 114 748 l 1
 114 707 l 1
 138 737 169 752 207 752 c 0
 245 752 275 741 297 720 c 0
 319 699 330 669 330 630 c 2
 330 420 l 1
EndSplineSet
Substitution2: "sous-table 'sups' Exposant dans Latin lookup 1" n.superior.superior
Substitution2: "sous-table 'aalt' Activer toutes les variantes dans Latin lookup 0" n.superior.superior
EndChar

StartChar: trademark
Encoding: 8482 8482 242
Width: 795
Flags: MW
HStem: 643 48<73 179 73 339 232 339 232 232>
VStem: 179 53<306 643 306 643> 406 52<306 584 306 691> 692 52<306 584 584 584>
LayerCount: 2
Fore
SplineSet
339 643 m 1
 232 643 l 1
 232 306 l 1
 179 306 l 1
 179 643 l 1
 73 643 l 1
 73 691 l 1
 339 691 l 1
 339 643 l 1
744 306 m 1
 692 306 l 1
 692 584 l 1
 601 402 l 1
 550 402 l 1
 458 584 l 1
 458 306 l 1
 406 306 l 1
 406 691 l 1
 458 691 l 1
 575 458 l 1
 692 691 l 1
 744 691 l 1
 744 306 l 1
EndSplineSet
Substitution2: "sous-table 'sups' Exposant dans Latin lookup 1" trademark.superior
Substitution2: "sous-table 'aalt' Activer toutes les variantes dans Latin lookup 0" trademark.superior
EndChar

StartChar: partialdiff
Encoding: 8706 8706 243
Width: 515
Flags: MW
HStem: 30 58 424 57 626 56
VStem: 85 65 369 65<221.5 250 250 254 254 288.5>
LayerCount: 2
Fore
SplineSet
337 121 m 0
 358 143 369 188 369 255 c 0
 369 322 358 367 337 390 c 0
 316 413 290 424 260 424 c 0
 230 424 204 413 183 390 c 0
 162 367 151 322 151 255 c 0
 151 188 162 143 183 121 c 0
 204 99 230 88 260 88 c 0
 290 88 316 99 337 121 c 0
434 254 m 1
 434 250 l 2
 434 169 417 111 382 75 c 0
 351 42 310 25 259 25 c 0
 208 25 167 42 136 75 c 0
 101 111 84 170 84 252 c 0
 84 334 100 392 133 426 c 0
 166 460 206 477 254 477 c 0
 302 477 340 460 368 425 c 1
 368 488 l 2
 368 527 358 559 338 584 c 0
 318 609 287 622 246 622 c 0
 222 622 203 619 189 612 c 0
 175 605 159 594 140 578 c 1
 99 619 l 1
 123 641 146 657 168 666 c 0
 190 675 217 680 249 680 c 0
 308 680 354 662 386 627 c 0
 418 592 434 545 434 486 c 2
 434 254 l 1
EndSplineSet
Substitution2: "sous-table 'sups' Exposant dans Latin lookup 1" partialdiff.superior
Substitution2: "sous-table 'aalt' Activer toutes les variantes dans Latin lookup 0" partialdiff.superior
EndChar

StartChar: product
Encoding: 8719 8719 244
Width: 661
Flags: MW
HStem: -171 21G<128 196 128 128 500 568 500 500> 650 61<196 500 196 196>
VStem: 128 68<-171 650 -171 711 -171 711> 500 68<-171 650 650 650>
LayerCount: 2
Fore
SplineSet
568 -171 m 1
 500 -171 l 1
 500 650 l 1
 196 650 l 1
 196 -171 l 1
 128 -171 l 1
 128 711 l 1
 568 711 l 1
 568 -171 l 1
EndSplineSet
Substitution2: "sous-table 'sups' Exposant dans Latin lookup 1" product.superior
Substitution2: "sous-table 'aalt' Activer toutes les variantes dans Latin lookup 0" product.superior
EndChar

StartChar: summation
Encoding: 8721 8721 245
Width: 523
Flags: MW
HStem: -171 61<157 478 157 478> 650 61<159 477 159 159>
LayerCount: 2
Fore
SplineSet
478 -171 m 1
 79 -171 l 1
 79 -112 l 1
 261 282 l 1
 80 653 l 1
 80 711 l 1
 477 711 l 1
 477 650 l 1
 159 650 l 1
 321 312 l 1
 321 250 l 1
 157 -110 l 1
 478 -110 l 1
 478 -171 l 1
EndSplineSet
Substitution2: "sous-table 'sups' Exposant dans Latin lookup 1" summation.superior
Substitution2: "sous-table 'aalt' Activer toutes les variantes dans Latin lookup 0" summation.superior
EndChar

StartChar: radical
Encoding: 8730 8730 246
Width: 532
Flags: MW
HStem: 36 21G<181 236 181 181> 458 20G<34 105 105 105> 615 61<426 506 426 426>
LayerCount: 2
Fore
SplineSet
506 615 m 1
 426 615 l 1
 236 36 l 1
 181 36 l 1
 34 478 l 1
 105 478 l 1
 209 158 l 1
 374 676 l 1
 506 676 l 1
 506 615 l 1
EndSplineSet
Substitution2: "sous-table 'sups' Exposant dans Latin lookup 1" radical.superior
Substitution2: "sous-table 'aalt' Activer toutes les variantes dans Latin lookup 0" radical.superior
EndChar

StartChar: infinity
Encoding: 8734 8734 247
Width: 767
Flags: MW
HStem: 123 59 351 60<232 254>
VStem: 101 62 644 62
LayerCount: 2
Fore
SplineSet
363 266 m 1
 362 266 l 1
 337 296 316 318 300 331 c 0
 284 344 265 351 243 351 c 0
 221 351 202 343 186 327 c 0
 170 311 162 291 162 266 c 0
 162 241 170 221 186 206 c 0
 202 191 221 183 243 183 c 0
 265 183 285 190 302 203 c 0
 319 216 339 237 363 266 c 1
643 266 m 2
 643 267 l 2
 643 292 635 312 620 327 c 0
 605 342 586 350 564 350 c 0
 542 350 522 343 505 330 c 0
 488 317 468 296 444 267 c 1
 468 238 487 218 502 207 c 1
 521 191 542 183 564 183 c 0
 586 183 605 191 620 206 c 0
 635 221 643 241 643 266 c 2
705 268 m 1
 707 268 l 1
 707 227 694 193 668 166 c 0
 642 139 608 126 565 126 c 0
 534 126 506 133 481 148 c 0
 456 163 430 187 403 220 c 1
 352 157 299 125 244 125 c 0
 201 125 166 139 139 166 c 0
 112 193 99 227 99 268 c 0
 99 309 112 343 139 370 c 0
 166 397 201 411 244 411 c 0
 298 411 351 379 403 316 c 1
 430 349 456 373 480 388 c 0
 504 403 532 411 563 411 c 0
 606 411 640 397 666 370 c 0
 692 343 705 309 705 268 c 1
EndSplineSet
Substitution2: "sous-table 'sups' Exposant dans Latin lookup 1" infinity.superior
Substitution2: "sous-table 'aalt' Activer toutes les variantes dans Latin lookup 0" infinity.superior
EndChar

StartChar: integral
Encoding: 8747 8747 248
Width: 353
Flags: MW
HStem: -171 55 613 55<275 286 286 319>
VStem: 153 66
LayerCount: 2
Fore
SplineSet
319 613 m 1
 286 613 l 2
 242 613 220 590 220 543 c 2
 220 -45 l 2
 220 -84 209 -115 187 -138 c 0
 165 -161 135 -172 97 -172 c 2
 52 -172 l 1
 52 -117 l 1
 87 -117 l 2
 131 -117 153 -94 153 -47 c 2
 153 541 l 2
 153 580 164 611 185 634 c 0
 206 657 236 668 275 668 c 2
 319 668 l 1
 319 613 l 1
EndSplineSet
Substitution2: "sous-table 'sups' Exposant dans Latin lookup 1" integral.superior
Substitution2: "sous-table 'aalt' Activer toutes les variantes dans Latin lookup 0" integral.superior
EndChar

StartChar: approxequal
Encoding: 8776 8776 249
AltUni2: 0022f2.ffffffff.0
Width: 512
Flags: MW
HStem: 136 61 186 61 295 62 345 62
LayerCount: 2
Fore
SplineSet
513 197 m 1x80
 513 198 l 1
 483 173 459 157 441 149 c 0
 423 141 403 137 381 137 c 0x80
 359 137 332 145 300 162 c 0
 268 179 244 187 229 187 c 0
 206 187 178 173 145 146 c 1
 113 187 l 1
 143 211 167 227 185 235 c 0
 203 243 223 247 245 247 c 0x40
 267 247 294 239 326 222 c 0
 358 205 382 197 397 197 c 0
 420 197 448 211 481 238 c 1
 513 197 l 1x80
550 358 m 1x20
 550 357 l 1
 520 332 496 316 478 308 c 0
 460 300 440 296 419 296 c 0x20
 398 296 371 304 339 321 c 0
 307 338 281 346 261 346 c 0
 241 346 215 333 183 306 c 1
 152 346 l 1
 182 371 206 388 224 396 c 0
 242 404 261 408 282 408 c 0x10
 303 408 330 400 362 383 c 0
 394 366 418 358 434 358 c 0
 458 358 486 371 518 398 c 1
 550 358 l 1x20
EndSplineSet
Substitution2: "sous-table 'sups' Exposant dans Latin lookup 1" approxequal.superior
Substitution2: "sous-table 'aalt' Activer toutes les variantes dans Latin lookup 0" approxequal.superior
EndChar

StartChar: notequal
Encoding: 8800 8800 250
Width: 510
Flags: MW
HStem: 163 59<74 134 74 187 262 463 74 208> 315 60<74 276 74 329 74 350 403 463> 455 20G<423 423>
LayerCount: 2
Fore
SplineSet
463 163 m 1
 208 163 l 1
 115 63 l 1
 74 99 l 1
 134 163 l 1
 74 163 l 1
 74 222 l 1
 187 222 l 1
 276 315 l 1
 74 315 l 1
 74 375 l 1
 329 375 l 1
 423 475 l 1
 463 438 l 1
 403 375 l 1
 463 375 l 1
 463 315 l 1
 350 315 l 1
 262 222 l 1
 463 222 l 1
 463 163 l 1
EndSplineSet
Substitution2: "sous-table 'sups' Exposant dans Latin lookup 1" notequal.superior
Substitution2: "sous-table 'aalt' Activer toutes les variantes dans Latin lookup 0" notequal.superior
EndChar

StartChar: lessequal
Encoding: 8804 8804 251
Width: 976
Flags: MW
HStem: 24 21G<250 250>
LayerCount: 2
Fore
SplineSet
783 -45 m 1
 381 356 l 1
 250 24 l 1
 221 53 l 1
 221 560 l 1
 729 561 l 1
 764 526 l 1
 425 401 l 1
 827 0 l 1
 783 -45 l 1
EndSplineSet
Substitution2: "sous-table 'sups' Exposant dans Latin lookup 1" lessequal.superior
Substitution2: "sous-table 'aalt' Activer toutes les variantes dans Latin lookup 0" lessequal.superior
EndChar

StartChar: greaterequal
Encoding: 8805 8805 252
Width: 976
Flags: MW
HStem: -45 21G<265 265> 541 20G<319 319>
LayerCount: 2
Fore
SplineSet
667 356 m 1
 265 -45 l 1
 221 0 l 1
 623 401 l 1
 284 526 l 1
 319 561 l 1
 827 560 l 1
 827 53 l 1
 798 24 l 1
 667 356 l 1
EndSplineSet
Substitution2: "sous-table 'sups' Exposant dans Latin lookup 1" greaterequal.superior
Substitution2: "sous-table 'aalt' Activer toutes les variantes dans Latin lookup 0" greaterequal.superior
EndChar

StartChar: lozenge
Encoding: 9674 9674 253
Width: 616
Flags: MW
HStem: 24 21G<325 325> 660 20G<325 325>
LayerCount: 2
Fore
SplineSet
483 352 m 1
 325 580 l 1
 166 352 l 1
 325 122 l 1
 483 352 l 1
556 352 m 1
 325 24 l 1
 93 352 l 1
 325 680 l 1
 556 352 l 1
EndSplineSet
Substitution2: "sous-table 'sups' Exposant dans Latin lookup 1" lozenge.superior
Substitution2: "sous-table 'aalt' Activer toutes les variantes dans Latin lookup 0" lozenge.superior
EndChar

StartChar: a.sc
Encoding: 65539 -1 256
Width: 400
Flags: MW
HStem: 22 21G<28 81 28 28 340 393 340 340> 166 56<141 280 141 292 129 280>
LayerCount: 2
Fore
SplineSet
280 222 m 1
 212 397 l 1
 141 222 l 1
 280 222 l 1
393 22 m 1
 340 22 l 1
 292 166 l 1
 129 166 l 1
 81 22 l 1
 28 22 l 1
 191 467 l 1
 231 467 l 1
 393 22 l 1
EndSplineSet
Substitution2: "sous-table 'sups' Exposant dans Latin lookup 1" a.sc.superior
Substitution2: "sous-table 'aalt' Activer toutes les variantes dans Latin lookup 0" a.sc.superior
EndChar

StartChar: b.sc
Encoding: 65540 -1 257
Width: 478
Flags: MW
HStem: 25 58 213 58 409 58
VStem: 88 66 356 66 366 66
LayerCount: 2
Fore
SplineSet
366 152 m 1xf4
 367 151 l 1
 367 192 337 212 276 212 c 2
 155 212 l 1
 155 82 l 1
 276 82 l 2
 304 82 326 88 342 101 c 0
 358 114 366 131 366 152 c 1xf4
357 343 m 2xf8
 357 342 l 2
 357 363 349 379 333 390 c 0
 317 401 296 407 270 407 c 2
 155 407 l 1
 155 269 l 1
 270 269 l 2
 296 269 317 276 333 290 c 0
 349 304 357 322 357 343 c 2xf8
433 146 m 1xf4
 434 147 l 1
 434 107 421 77 394 56 c 0
 367 35 331 25 286 25 c 2
 91 25 l 1
 91 467 l 1
 278 467 l 2
 321 467 356 457 383 436 c 0
 410 415 424 386 424 349 c 0xf8
 424 326 416 305 400 286 c 0
 384 267 364 254 339 247 c 1
 402 229 433 195 433 146 c 1xf4
EndSplineSet
Substitution2: "sous-table 'sups' Exposant dans Latin lookup 1" b.sc.superior
Substitution2: "sous-table 'aalt' Activer toutes les variantes dans Latin lookup 0" b.sc.superior
EndChar

StartChar: c.sc
Encoding: 65541 -1 258
Width: 435
Flags: MW
HStem: 11 60 420 59
VStem: 70 65
LayerCount: 2
Fore
SplineSet
347 340 m 1
 343 338 l 1
 324 391 289 418 238 418 c 0
 207 418 182 408 162 388 c 0
 149 375 141 359 137 341 c 0
 133 323 131 291 131 245 c 0
 131 199 133 166 137 147 c 0
 141 128 150 112 163 99 c 0
 183 79 208 69 237 69 c 0
 266 69 290 76 308 90 c 0
 326 104 338 124 344 150 c 1
 391 150 l 1
 384 105 366 70 337 46 c 0
 308 22 271 10 227 10 c 0
 183 10 145 26 112 58 c 0
 91 79 79 101 75 125 c 0
 71 149 69 189 69 245 c 0
 69 301 71 341 76 365 c 0
 81 389 93 411 113 431 c 0
 146 463 185 479 230 479 c 0
 275 479 311 467 337 443 c 0
 363 419 383 385 396 340 c 1
 347 340 l 1
EndSplineSet
Substitution2: "sous-table 'sups' Exposant dans Latin lookup 1" c.sc.superior
Substitution2: "sous-table 'aalt' Activer toutes les variantes dans Latin lookup 0" c.sc.superior
EndChar

StartChar: d.sc
Encoding: 65542 -1 259
Width: 478
Flags: MW
HStem: 25 58 409 58
VStem: 88 65 366 65
LayerCount: 2
Fore
SplineSet
336 113 m 1
 336 112 l 1
 349 124 357 141 361 163 c 0
 365 185 367 214 367 249 c 0
 367 284 366 309 363 323 c 1
 360 348 351 367 337 379 c 0
 316 399 287 409 250 409 c 2
 153 409 l 1
 153 83 l 1
 250 83 l 2
 287 83 316 93 336 113 c 1
426 343 m 1
 425 343 l 1
 428 326 430 295 430 249 c 0
 430 203 428 171 425 152 c 0
 418 114 403 85 380 65 c 0
 350 38 308 24 255 24 c 2
 86 24 l 1
 86 466 l 1
 255 466 l 2
 308 466 350 452 381 425 c 0
 404 405 419 378 426 343 c 1
EndSplineSet
Substitution2: "sous-table 'sups' Exposant dans Latin lookup 1" d.sc.superior
Substitution2: "sous-table 'aalt' Activer toutes les variantes dans Latin lookup 0" d.sc.superior
EndChar

StartChar: e.sc
Encoding: 65543 -1 260
Width: 413
Flags: MW
HStem: 25 58<152 379 152 379> 212 58<152 346 152 346> 409 58<152 379 152 152>
VStem: 86 66<83 212 270 409>
LayerCount: 2
Fore
SplineSet
379 25 m 1
 86 25 l 1
 86 467 l 1
 379 467 l 1
 379 409 l 1
 152 409 l 1
 152 270 l 1
 346 270 l 1
 346 212 l 1
 152 212 l 1
 152 83 l 1
 379 83 l 1
 379 25 l 1
EndSplineSet
Substitution2: "sous-table 'sups' Exposant dans Latin lookup 1" e.sc.superior
Substitution2: "sous-table 'aalt' Activer toutes les variantes dans Latin lookup 0" e.sc.superior
EndChar

StartChar: f.sc
Encoding: 65544 -1 261
Width: 400
Flags: MW
HStem: 212 58<152 346 152 346> 409 58<152 379 152 152>
VStem: 86 66<17 212 270 409>
LayerCount: 2
Fore
SplineSet
379 409 m 1
 152 409 l 1
 152 270 l 1
 346 270 l 1
 346 212 l 1
 152 212 l 1
 152 17 l 1
 86 17 l 1
 86 467 l 1
 379 467 l 1
 379 409 l 1
EndSplineSet
Substitution2: "sous-table 'sups' Exposant dans Latin lookup 1" f.sc.superior
Substitution2: "sous-table 'aalt' Activer toutes les variantes dans Latin lookup 0" f.sc.superior
EndChar

StartChar: g.sc
Encoding: 65545 -1 262
Width: 462
Flags: MW
HStem: 11 60 211 59<243 352 243 417> 420 59
VStem: 70 64 351 65<342 342>
LayerCount: 2
Fore
SplineSet
417 189 m 1
 419 192 l 1
 419 139 405 98 376 69 c 1
 341 32 298 14 246 14 c 0
 194 14 151 30 117 62 c 0
 96 83 83 105 78 129 c 0
 73 153 71 193 71 249 c 0
 71 305 73 345 78 369 c 0
 83 393 96 415 117 435 c 0
 152 467 193 483 241 483 c 0
 289 483 328 470 359 444 c 0
 390 418 409 384 416 342 c 1
 351 342 l 1
 344 367 331 387 312 401 c 0
 293 415 269 422 240 422 c 0
 211 422 186 412 165 392 c 0
 152 379 144 363 140 344 c 0
 136 325 134 293 134 247 c 0
 134 201 136 169 140 150 c 0
 144 131 153 115 166 102 c 0
 186 82 213 72 246 72 c 0
 279 72 305 82 324 102 c 0
 343 122 352 147 352 176 c 2
 352 211 l 1
 243 211 l 1
 243 270 l 1
 417 270 l 1
 417 189 l 1
EndSplineSet
Substitution2: "sous-table 'sups' Exposant dans Latin lookup 1" g.sc.superior
Substitution2: "sous-table 'aalt' Activer toutes les variantes dans Latin lookup 0" g.sc.superior
EndChar

StartChar: h.sc
Encoding: 65546 -1 263
Width: 492
Flags: MW
HStem: 22 21G<88 153 88 88 363 428 363 363> 218 58<153 363 153 363>
VStem: 88 65<22 218 22 276 276 467> 363 65<22 218 218 218 276 467>
LayerCount: 2
Fore
SplineSet
428 22 m 1
 363 22 l 1
 363 218 l 1
 153 218 l 1
 153 22 l 1
 88 22 l 1
 88 467 l 1
 153 467 l 1
 153 276 l 1
 363 276 l 1
 363 467 l 1
 428 467 l 1
 428 22 l 1
EndSplineSet
Substitution2: "sous-table 'sups' Exposant dans Latin lookup 1" h.sc.superior
Substitution2: "sous-table 'aalt' Activer toutes les variantes dans Latin lookup 0" h.sc.superior
EndChar

StartChar: i.sc
Encoding: 65547 -1 264
Width: 202
Flags: MW
VStem: 74 65<19 467>
LayerCount: 2
Fore
SplineSet
139 19 m 1
 74 19 l 1
 74 467 l 1
 139 467 l 1
 139 19 l 1
EndSplineSet
Substitution2: "sous-table 'sups' Exposant dans Latin lookup 1" i.sc.superior
Substitution2: "sous-table 'aalt' Activer toutes les variantes dans Latin lookup 0" i.sc.superior
EndChar

StartChar: j.sc
Encoding: 65548 -1 265
Width: 344
Flags: MW
HStem: 20 58<132 146.5 132 160.5>
VStem: 221 66<176 467>
LayerCount: 2
Fore
SplineSet
287 158 m 1
 289 159 l 1
 289 116 275 82 247 57 c 0
 219 32 183 20 138 20 c 0
 93 20 57 36 31 69 c 1
 63 102 l 1
 78 78 101 70 132 78 c 1
 161 78 183 87 198 104 c 0
 213 121 221 145 221 176 c 2
 221 467 l 1
 287 467 l 1
 287 158 l 1
EndSplineSet
Substitution2: "sous-table 'sups' Exposant dans Latin lookup 1" j.sc.superior
Substitution2: "sous-table 'aalt' Activer toutes les variantes dans Latin lookup 0" j.sc.superior
EndChar

StartChar: k.sc
Encoding: 65549 -1 266
Width: 447
Flags: MW
VStem: 90 65<19 190 19 254 254 467>
LayerCount: 2
Fore
SplineSet
439 19 m 1
 383 19 l 1
 240 274 l 1
 155 190 l 1
 155 19 l 1
 90 19 l 1
 90 467 l 1
 155 467 l 1
 155 254 l 1
 361 467 l 1
 419 467 l 1
 276 301 l 1
 439 19 l 1
EndSplineSet
Substitution2: "sous-table 'sups' Exposant dans Latin lookup 1" k.sc.superior
Substitution2: "sous-table 'aalt' Activer toutes les variantes dans Latin lookup 0" k.sc.superior
EndChar

StartChar: l.sc
Encoding: 65550 -1 267
Width: 397
Flags: MW
HStem: 25 58<151 378 151 378>
VStem: 86 65<83 467 83 467 83 467>
LayerCount: 2
Fore
SplineSet
378 25 m 1
 86 25 l 1
 86 467 l 1
 151 467 l 1
 151 83 l 1
 378 83 l 1
 378 25 l 1
EndSplineSet
Substitution2: "sous-table 'sups' Exposant dans Latin lookup 1" l.sc.superior
Substitution2: "sous-table 'aalt' Activer toutes les variantes dans Latin lookup 0" l.sc.superior
EndChar

StartChar: m.sc
Encoding: 65551 -1 268
Width: 571
Flags: MW
VStem: 93 65<19 354 19 467> 443 65<19 354 354 354>
LayerCount: 2
Fore
SplineSet
508 19 m 1
 443 19 l 1
 443 354 l 1
 322 112 l 1
 281 112 l 1
 158 354 l 1
 158 19 l 1
 93 19 l 1
 93 467 l 1
 158 467 l 1
 302 171 l 1
 443 467 l 1
 508 467 l 1
 508 19 l 1
EndSplineSet
Substitution2: "sous-table 'sups' Exposant dans Latin lookup 1" m.sc.superior
Substitution2: "sous-table 'aalt' Activer toutes les variantes dans Latin lookup 0" m.sc.superior
EndChar

StartChar: n.sc
Encoding: 65552 -1 269
Width: 516
Flags: MW
VStem: 89 66<19 374 19 467> 387 66<107 467>
LayerCount: 2
Fore
SplineSet
453 19 m 1
 391 19 l 1
 155 374 l 1
 155 19 l 1
 89 19 l 1
 89 467 l 1
 151 467 l 1
 387 107 l 1
 387 467 l 1
 453 467 l 1
 453 19 l 1
EndSplineSet
Substitution2: "sous-table 'sups' Exposant dans Latin lookup 1" n.sc.superior
Substitution2: "sous-table 'aalt' Activer toutes les variantes dans Latin lookup 0" n.sc.superior
EndChar

StartChar: o.sc
Encoding: 65553 -1 270
Width: 462
Flags: HMWO
HStem: 7 59 423 59
VStem: 70 65 351 65
LayerCount: 2
Fore
SplineSet
241.5 61.9004 m 4
 210.5 61.9004 186 76 165 96 c 5
 154 108 146 124 141 143 c 4
 136 162 133 195 133 243 c 4
 133 291 135 324 139 343 c 4
 143 362 151 378 164 391 c 4
 184 411 209 421 239 421 c 4
 270 421 295 411 315 391 c 4
 328 378 336 362 340 343 c 4
 344 324 346 291 346 243 c 4
 346 195 343 162 338 143 c 4
 333 124 325 108 314 96 c 5
 293 76 272.5 61.9004 241.5 61.9004 c 4
239 480 m 0
 190 480 148 464 113 432 c 0
 93 413 79 388 72 357 c 0
 69 340 67 303 67 245 c 0
 67 187 69 146 73 121 c 0
 77 96 89 73 110 52 c 0
 142 20 191.5 -1 239.5 -1 c 1
 288.5 -1 337 20 369 52 c 0
 390 73 402 96 406 121 c 0
 410 146 412 187 412 245 c 0
 412 303 410 340 407 357 c 0
 400 388 386 413 366 432 c 0
 331 464 289 480 239 480 c 0
EndSplineSet
Substitution2: "sous-table 'sups' Exposant dans Latin lookup 1" o.sc.superior
Substitution2: "sous-table 'aalt' Activer toutes les variantes dans Latin lookup 0" o.sc.superior
EndChar

StartChar: p.sc
Encoding: 65554 -1 271
Width: 452
Flags: MW
HStem: 212 58 409 58
VStem: 88 66<14 209 269 408> 361 66<332 334 332 344.5>
LayerCount: 2
Fore
SplineSet
361 334 m 2
 361 332 l 2
 361 357 353 376 336 389 c 0
 319 402 296 408 267 408 c 2
 154 408 l 1
 154 269 l 1
 267 269 l 2
 296 269 319 274 336 283 c 0
 353 292 361 309 361 334 c 2
427 331 m 1
 426 330 l 1
 426 289 412 259 385 239 c 0
 358 219 323 209 280 209 c 2
 154 209 l 1
 154 14 l 1
 88 14 l 1
 88 464 l 1
 273 464 l 2
 318 464 355 452 384 428 c 0
 413 404 427 372 427 331 c 1
EndSplineSet
Substitution2: "sous-table 'sups' Exposant dans Latin lookup 1" p.sc.superior
Substitution2: "sous-table 'aalt' Activer toutes les variantes dans Latin lookup 0" p.sc.superior
EndChar

StartChar: q.sc
Encoding: 65555 -1 272
Width: 463
Flags: HMW
HStem: 11 59 423 59
VStem: 70 66 351 66
LayerCount: 2
Fore
SplineSet
293 156 m 1
 328 115 l 1
 335 127 340 142 343 160 c 0
 346 178 347 208 347 251 c 0
 347 294 346 323 343 338 c 0
 337 362 328 380 316 391 c 0
 295 411 270 421 240 421 c 0
 210 421 185 411 165 391 c 0
 152 378 143 362 139 342 c 0
 135 322 133 289 133 243 c 0
 133 197 135 165 139 147 c 0
 143 129 152 113 166 100 c 0
 187 80 211 70 238 70 c 0
 265 70 280 73.0996 299 86.0996 c 1
 260 126.1 l 1
 293 156 l 1
 293 156 l 1
413 36.0996 m 1
 384 0 l 1
 341 44.0996 l 1
 312 15.0996 268 5 224 5 c 0
 180 5 142 21 109 52 c 0
 88 73 75 95 70 119 c 0
 65 143 63 184 63 242 c 0
 63 300 65 337 70 354 c 0
 78 387 92 413 111 432 c 1
 145 463 187 479 238 479 c 0
 289 479 331 464 364 433 c 0
 385 413 398 391 403 367 c 0
 408 343 411 305 411 253 c 0
 411 201 409 164 405 142 c 0
 401 120 395 97.0996 375 79.0996 c 1
 413 36.0996 l 1
EndSplineSet
Substitution2: "sous-table 'sups' Exposant dans Latin lookup 1" q.sc.superior
Substitution2: "sous-table 'aalt' Activer toutes les variantes dans Latin lookup 0" q.sc.superior
EndChar

StartChar: r.sc
Encoding: 65556 -1 273
Width: 468
Flags: MW
HStem: 213 57<152 259 152 271> 409 58<152 271 152 152>
VStem: 88 65 360 66
LayerCount: 2
Fore
SplineSet
336 288 m 1
 335 289 l 1
 351 301 359 318 359 340 c 0
 359 362 351 379 335 391 c 0
 319 403 298 409 271 409 c 2
 152 409 l 1
 152 270 l 1
 271 270 l 2
 298 270 320 276 336 288 c 1
432 18 m 1
 360 17 l 1
 259 213 l 1
 152 213 l 1
 152 17 l 1
 87 17 l 1
 87 467 l 1
 278 467 l 2
 321 467 356 456 383 433 c 0
 410 410 424 381 424 346 c 0
 424 311 414 283 393 262 c 0
 372 241 344 227 309 220 c 1
 432 18 l 1
EndSplineSet
Substitution2: "sous-table 'sups' Exposant dans Latin lookup 1" r.sc.superior
Substitution2: "sous-table 'aalt' Activer toutes les variantes dans Latin lookup 0" r.sc.superior
EndChar

StartChar: s.sc
Encoding: 65557 -1 274
Width: 420
Flags: MW
HStem: 11 60<185.5 228 185.5 239> 421 58
VStem: 58 64 321 66
LayerCount: 2
Fore
SplineSet
249 274 m 1
 247 273 l 1
 339 260 385 217 385 144 c 0
 385 103 369 71 338 47 c 0
 307 23 265 11 213 11 c 0
 144 11 88 36 45 87 c 1
 84 118 l 1
 118 87 160 71 211 71 c 0
 245 71 272 78 291 91 c 0
 310 104 320 122 320 144 c 0
 320 166 314 182 301 192 c 0
 288 202 268 209 241 212 c 1
 189 220 l 2
 101 233 57 274 57 344 c 0
 57 385 71 418 99 442 c 0
 127 466 167 478 219 478 c 0
 271 478 318 456 359 413 c 1
 318 384 l 1
 290 408 258 420 223 420 c 0
 188 420 162 414 146 401 c 0
 130 388 122 371 122 350 c 0
 122 329 129 313 142 302 c 0
 155 291 175 284 201 281 c 2
 249 274 l 1
EndSplineSet
Substitution2: "sous-table 'sups' Exposant dans Latin lookup 1" s.sc.superior
Substitution2: "sous-table 'aalt' Activer toutes les variantes dans Latin lookup 0" s.sc.superior
EndChar

